<?xml version="1.0" encoding="UTF-8"?>
<svg id="add_contact_icon" data-name="Ebene 1" xmlns="http://www.w3.org/2000/svg" viewBox="0 0 148.86 106.35">
  <defs>
    <style>
      .cls-1 {
        fill: #fff;
        stroke-width: 0px;
      }
    </style>
  </defs>
  <path class="cls-1" d="M121.82,65.39c-1.6,0-2.94-.53-4.02-1.61-1.08-1.08-1.62-2.42-1.62-4.02l-.04-15.8-15.8.04c-1.6,0-2.94-.53-4.03-1.62-1.08-1.08-1.63-2.43-1.63-4.03s.53-2.94,1.61-4.02c1.08-1.08,2.42-1.62,4.02-1.62l15.8-.04-.04-15.8c0-1.6.53-2.94,1.62-4.03,1.08-1.08,2.43-1.63,4.03-1.63s2.94.53,4.02,1.61c1.08,1.08,1.62,2.42,1.62,4.02l.04,15.8,15.8-.04c1.6,0,2.94.53,4.03,1.62,1.08,1.08,1.63,2.43,1.63,4.03s-.53,2.94-1.61,4.02c-1.08,1.08-2.42,1.62-4.02,1.62l-15.8.04.04,15.8c0,1.6-.53,2.94-1.62,4.03-1.08,1.08-2.43,1.63-4.03,1.63ZM54.08,51.92c-7.45.02-13.65-2.43-18.59-7.34-4.94-4.92-7.42-11.1-7.44-18.55-.02-7.45,2.43-13.65,7.34-18.59C40.3,2.5,46.48.02,53.93,0c7.45-.02,13.65,2.43,18.59,7.34,4.94,4.92,7.42,11.1,7.45,18.55.02,7.45-2.43,13.65-7.34,18.59-4.91,4.94-11.1,7.42-18.55,7.44ZM5.69,106.35c-1.6,0-2.94-.53-4.03-1.61-1.08-1.08-1.63-2.42-1.63-4.02L0,89.44c-.01-3.91.99-7.48,2.99-10.7,2-3.22,4.75-5.65,8.25-7.28,7.97-3.67,15.35-6.32,22.14-7.93,6.79-1.62,13.7-2.44,20.71-2.46,7.01-.02,13.92.76,20.74,2.34,6.82,1.58,14.18,4.18,22.09,7.81,3.5,1.68,6.29,4.11,8.35,7.29,2.06,3.17,3.09,6.72,3.11,10.63l.03,11.29c0,1.6-.53,2.94-1.61,4.03-1.08,1.08-2.42,1.63-4.02,1.63l-97.08.27ZM11.3,95.05l85.79-.24-.02-5.64c0-1.62-.41-3.14-1.23-4.57-.81-1.43-2.03-2.5-3.65-3.21-7.31-3.55-13.86-5.95-19.66-7.2-5.8-1.24-11.93-1.86-18.4-1.84s-12.6.68-18.39,2c-5.79,1.31-12.37,3.73-19.73,7.25-1.47.72-2.62,1.79-3.46,3.23-.84,1.43-1.26,2.96-1.26,4.58l.02,5.64ZM54.05,40.64c4.18-.01,7.66-1.42,10.46-4.23,2.8-2.81,4.19-6.3,4.18-10.48-.01-4.18-1.42-7.66-4.23-10.46-2.81-2.8-6.3-4.19-10.48-4.18-4.18.01-7.66,1.42-10.46,4.23-2.8,2.81-4.19,6.3-4.18,10.48.01,4.18,1.42,7.66,4.23,10.46,2.81,2.8,6.3,4.19,10.48,4.18Z"/>
</svg>