<?xml version="1.0" encoding="UTF-8"?>
<svg id="Ebene_1" data-name="Ebene 1" xmlns="http://www.w3.org/2000/svg" xmlns:xlink="http://www.w3.org/1999/xlink" viewBox="0 0 122.5 122.65">
  <defs>
    <style>
      .cls-1 {
        fill: #cdcdcd;
      }

      .cls-1, .cls-2 {
        stroke-width: 0px;
      }

      .cls-2 {
        fill: #d9d9d9;
      }

      .cls-3 {
        mask: url(#mask);
      }
    </style>
    <mask id="mask" x="-10.72" y="-10.64" width="147" height="147" maskUnits="userSpaceOnUse">
      <g id="mask0_185215_1288" data-name="mask0 185215 1288">
        <rect class="cls-2" x="-10.72" y="-10.64" width="147" height="147"/>
      </g>
    </mask>
  </defs>
  <g class="cls-3">
    <path class="cls-1" d="M11.95,122.65c-3.29,0-6.1-1.17-8.44-3.51-2.34-2.34-3.51-5.15-3.51-8.44V27.04c0-3.29,1.17-6.1,3.51-8.44,2.34-2.34,5.15-3.51,8.44-3.51h53.33l-11.95,11.95H11.95v83.66h83.66v-41.53l11.95-11.95v53.48c0,3.29-1.17,6.1-3.51,8.44s-5.15,3.51-8.44,3.51H11.95ZM78.73,18.52l8.52,8.37-39.44,39.44v8.52h8.37l39.59-39.59,8.52,8.37-39.59,39.59c-1.1,1.1-2.37,1.97-3.81,2.61-1.44.65-2.96.97-4.56.97h-14.49c-1.69,0-3.11-.57-4.26-1.72-1.15-1.15-1.72-2.56-1.72-4.26v-14.49c0-1.59.3-3.11.9-4.56.6-1.44,1.44-2.71,2.54-3.81l39.44-39.44ZM104.27,43.62l-25.55-25.1,14.94-14.94c2.39-2.39,5.25-3.59,8.59-3.59s6.15,1.2,8.44,3.59l8.37,8.52c2.29,2.29,3.44,5.08,3.44,8.37s-1.15,6.08-3.44,8.37l-14.79,14.79Z"/>
  </g>
</svg>