<?xml version="1.0" encoding="UTF-8"?>
<svg xmlns="http://www.w3.org/2000/svg" version="1.1" viewBox="0 0 100 100">
  <defs>
    <style>
      .cls-1 {
        fill: #fff;
      }
    </style>
  </defs>
  <!-- Generator: Adobe Illustrator 28.7.0, SVG Export Plug-In . SVG Version: 1.2.0 Build 136)  -->
  <g>
    <g id="Ebene_1">
      <g>
        <path class="cls-1" d="M92.4,75.1c-10.4-17.3-20.8-34.5-31.2-51.8-1.6-2.7-3.2-5.4-4.9-8.1-1.5-2.3-3.8-3.4-6.5-3.4-3.2,0-5.5,1.6-7.1,4.3-11.2,18.7-22.5,37.3-33.8,56-1.2,2.1-2.7,4-3.3,6.4v2.4c.2.6.4,1.3.7,1.9,1.5,3.3,4.2,4.8,7.8,4.8,23.8,0,47.6,0,71.4,0,.3,0,.6,0,.9,0,1.7,0,3.3-.7,4.6-1.8,3.2-2.7,3.8-6.9,1.4-10.7ZM86.4,81.8c-.4,0-.8,0-1.2,0-11.8,0-23.7,0-35.5,0s-23.6,0-35.4,0c-.4,0-.8,0-1.2,0-1.3-.3-2.1-1.6-1.5-2.9.1-.3.3-.7.5-1,11.8-19.6,23.6-39.2,35.4-58.7.1-.2.3-.4.4-.7,1-1.3,2.7-1.3,3.6,0,.5.7.9,1.5,1.4,2.2,11.5,19.1,23,38.1,34.5,57.2.2.3.4.6.5,1,.5,1.3-.2,2.6-1.5,2.9Z"/>
        <path class="cls-1" d="M48.1,62.5c1,.3,2,.4,3,0,1.3-.5,1.6-1,1.7-2.4.1-3.6.2-7.1.3-10.7,0,0,0,0,0,0,0-3.4.2-6.9.3-10.3,0-.7-.2-1.6-.5-2.2-.8-1.4-3-1.9-4.8-1.3-1.6.5-2.4,1.6-2.3,3.5.2,7.1.5,14.2.7,21.3,0,1,.6,1.7,1.5,2.1Z"/>
        <path class="cls-1" d="M49.8,66.5c-2.3,0-4.1,1.8-4.1,4.1,0,2.3,1.9,4.1,4.1,4.1,2.1,0,4-2,4-4.1,0-2.2-1.9-4.1-4.1-4.1Z"/>
      </g>
    </g>
  </g>
</svg>