<?xml version="1.0" encoding="UTF-8"?>
<svg id="Ebene_1" data-name="Ebene 1" xmlns="http://www.w3.org/2000/svg" viewBox="0 0 250 250">
  <defs>
    <style>
      .cls-1 {
        fill: #cdcdcd;
        stroke-width: 0px;
      }
    </style>
  </defs>
  <path class="cls-1" d="M155.8,85.4v79.2c0,2.33-.93,4.57-2.58,6.22-1.65,1.65-3.89,2.58-6.22,2.58h-17.6c-2.33,0-4.57-.93-6.22-2.58-1.65-1.65-2.58-3.89-2.58-6.22v-79.2c0-2.33.93-4.57,2.58-6.22,1.65-1.65,3.89-2.58,6.22-2.58h17.6c2.33,0,4.57.93,6.22,2.58,1.65,1.65,2.58,3.89,2.58,6.22ZM129.4,164.6h17.6v-79.2h-17.6v79.2ZM129.4,85.4v79.2c0,2.33-.93,4.57-2.58,6.22-1.65,1.65-3.89,2.58-6.22,2.58h-17.6c-2.33,0-4.57-.93-6.22-2.58-1.65-1.65-2.58-3.89-2.58-6.22v-79.2c0-2.33.93-4.57,2.58-6.22,1.65-1.65,3.89-2.58,6.22-2.58h17.6c2.33,0,4.57.93,6.22,2.58,1.65,1.65,2.58,3.89,2.58,6.22ZM103,164.6h17.6s0-79.2,0-79.2h-17.6s0,79.2,0,79.2ZM103,85.4v79.2c0,2.33-.93,4.57-2.58,6.22-1.65,1.65-3.89,2.58-6.22,2.58h-17.6c-2.33,0-4.57-.93-6.22-2.58-1.65-1.65-2.58-3.89-2.58-6.22v-79.2c0-2.33.93-4.57,2.58-6.22,1.65-1.65,3.89-2.58,6.22-2.58h17.6c2.33,0,4.57.93,6.22,2.58,1.65,1.65,2.58,3.89,2.58,6.22ZM76.6,164.6h17.6v-79.2h-17.6v79.2Z"/>
  <path class="cls-1" d="M182.2,85.4v79.2c0,2.33-.93,4.57-2.58,6.22-1.65,1.65-3.89,2.58-6.22,2.58h-17.6c-2.33,0-4.57-.93-6.22-2.58-1.65-1.65-2.58-3.89-2.58-6.22v-79.2c0-2.33.93-4.57,2.58-6.22,1.65-1.65,3.89-2.58,6.22-2.58h17.6c2.33,0,4.57.93,6.22,2.58,1.65,1.65,2.58,3.89,2.58,6.22ZM155.8,164.6h17.6s0-79.2,0-79.2h-17.6s0,79.2,0,79.2Z"/>
</svg>