<?xml version="1.0" encoding="UTF-8"?>
<svg id="button_user_story" data-name="Ebene 1" xmlns="http://www.w3.org/2000/svg" viewBox="0 0 221 41.44">
  <defs>
    <style>
      .cls-1 {
        fill: #fff;
      }

      .cls-1, .cls-2 {
        stroke-width: 0px;
      }

      .cls-2 {
        fill: #0038ff;
      }
    </style>
  </defs>
  <rect class="cls-2" width="221" height="41.44" rx="12.28" ry="12.28"/>
  <path class="cls-1" d="M48.27,8.66h2.77v15.14c0,1.56-.37,2.96-1.11,4.19-.73,1.22-1.76,2.18-3.09,2.89-1.33.7-2.89,1.05-4.69,1.05s-3.36-.35-4.69-1.05c-1.33-.71-2.37-1.67-3.1-2.89-.73-1.23-1.09-2.62-1.09-4.19v-15.14h2.77v14.91c0,1.12.25,2.11.74,2.98.49.86,1.19,1.54,2.1,2.04.92.49,2.01.74,3.28.74s2.37-.25,3.28-.74c.92-.5,1.61-1.18,2.1-2.04.49-.87.74-1.86.74-2.98v-14.91ZM68.35,18.22l-2.37.67c-.15-.39-.37-.78-.66-1.15-.28-.38-.67-.69-1.16-.94s-1.12-.37-1.89-.37c-1.05,0-1.92.24-2.62.73-.69.48-1.04,1.08-1.04,1.82,0,.65.24,1.17.71,1.55.48.38,1.22.7,2.23.95l2.55.62c1.53.37,2.68.94,3.43,1.71.75.76,1.13,1.74,1.13,2.94,0,.98-.28,1.86-.85,2.63-.56.77-1.34,1.38-2.34,1.83-1,.45-2.17.67-3.51.67-1.75,0-3.2-.38-4.34-1.14-1.15-.76-1.87-1.87-2.18-3.33l2.5-.63c.24.92.69,1.61,1.35,2.08.67.46,1.54.69,2.62.69,1.23,0,2.2-.26,2.92-.78.73-.53,1.09-1.16,1.09-1.9,0-.6-.21-1.09-.63-1.5-.42-.41-1.06-.71-1.92-.92l-2.86-.67c-1.57-.37-2.72-.95-3.46-1.73-.73-.79-1.09-1.77-1.09-2.96,0-.97.27-1.82.81-2.57.55-.74,1.3-1.33,2.24-1.75.95-.42,2.03-.64,3.24-.64,1.7,0,3.03.37,4,1.12.98.74,1.67,1.73,2.08,2.95ZM79.82,31.88c-1.65,0-3.08-.36-4.28-1.09-1.19-.74-2.11-1.76-2.76-3.08-.64-1.32-.96-2.86-.96-4.62s.32-3.3.96-4.64c.65-1.35,1.55-2.4,2.7-3.15,1.16-.76,2.52-1.14,4.06-1.14.89,0,1.77.15,2.65.45.87.3,1.66.78,2.38,1.45.71.66,1.28,1.54,1.71,2.63.42,1.09.64,2.44.64,4.04v1.12h-13.22v-2.28h10.54c0-.97-.19-1.83-.58-2.59-.38-.76-.92-1.36-1.63-1.8-.7-.44-1.53-.66-2.48-.66-1.05,0-1.96.26-2.72.78-.76.51-1.34,1.18-1.75,2.01-.41.83-.61,1.71-.61,2.66v1.52c0,1.29.22,2.39.67,3.29.45.89,1.08,1.57,1.89,2.04.8.46,1.74.69,2.8.69.69,0,1.32-.1,1.88-.29.57-.2,1.05-.5,1.46-.89.41-.4.73-.9.95-1.5l2.55.71c-.27.86-.72,1.62-1.35,2.28-.63.65-1.41,1.15-2.34,1.52-.93.36-1.98.54-3.14.54ZM90.93,31.52V14.38h2.55v2.59h.18c.31-.85.88-1.54,1.7-2.06.82-.53,1.74-.79,2.77-.79.19,0,.44,0,.73.01.29,0,.51.02.66.03v2.68c-.09-.02-.29-.06-.61-.1-.31-.05-.64-.08-.99-.08-.83,0-1.58.17-2.23.52-.65.34-1.16.82-1.54,1.43-.37.6-.56,1.29-.56,2.07v10.85h-2.63ZM124.32,14.38c-.13-1.13-.68-2.01-1.63-2.63-.95-.63-2.12-.94-3.51-.94-1.01,0-1.9.16-2.66.49-.75.33-1.34.78-1.76,1.35-.42.57-.63,1.22-.63,1.95,0,.61.14,1.13.44,1.57.3.43.68.79,1.14,1.08.46.28.95.52,1.45.7.51.18.97.32,1.4.44l2.32.63c.6.16,1.26.37,1.99.65.74.28,1.44.65,2.11,1.13.68.47,1.24,1.07,1.67,1.81.44.74.66,1.64.66,2.71,0,1.24-.32,2.35-.97,3.35-.64,1-1.58,1.79-2.81,2.38-1.23.59-2.72.88-4.48.88-1.64,0-3.05-.26-4.25-.79-1.19-.53-2.13-1.27-2.81-2.21-.68-.94-1.06-2.04-1.15-3.29h2.86c.07.86.36,1.58.87,2.14.51.56,1.16.97,1.94,1.25.79.27,1.64.4,2.55.4,1.06,0,2.01-.17,2.85-.51.84-.35,1.51-.83,2-1.45.49-.63.74-1.35.74-2.19,0-.76-.21-1.38-.64-1.85s-.98-.86-1.67-1.16c-.69-.3-1.44-.56-2.24-.78l-2.81-.8c-1.79-.51-3.2-1.25-4.24-2.2-1.04-.95-1.56-2.2-1.56-3.74,0-1.28.35-2.4,1.04-3.35.7-.96,1.64-1.7,2.81-2.23,1.18-.54,2.5-.8,3.96-.8s2.78.26,3.93.79c1.15.52,2.05,1.24,2.72,2.14.68.91,1.03,1.94,1.07,3.09h-2.68ZM138.96,14.38v2.23h-8.89v-2.23h8.89ZM132.67,10.27h2.63v16.34c0,.74.11,1.3.32,1.67.22.36.51.61.85.74.35.12.72.18,1.11.18.29,0,.53-.01.71-.04.19-.04.33-.07.45-.09l.54,2.37c-.18.07-.43.13-.75.2-.32.07-.73.11-1.22.11-.74,0-1.47-.16-2.19-.48-.71-.32-1.29-.81-1.76-1.46-.46-.65-.69-1.48-.69-2.48V10.27ZM149.71,31.88c-1.55,0-2.91-.37-4.07-1.11-1.16-.74-2.07-1.77-2.72-3.09-.65-1.32-.97-2.87-.97-4.64s.32-3.34.97-4.68c.65-1.33,1.56-2.37,2.72-3.1,1.17-.74,2.53-1.11,4.07-1.11s2.9.37,4.06,1.11c1.17.74,2.08,1.77,2.72,3.1.66,1.33.98,2.89.98,4.68s-.33,3.32-.98,4.64c-.65,1.32-1.56,2.36-2.72,3.09-1.16.74-2.52,1.11-4.06,1.11ZM149.71,29.51c1.18,0,2.14-.3,2.9-.9.76-.6,1.32-1.4,1.69-2.38.36-.98.55-2.05.55-3.19s-.18-2.21-.55-3.2c-.36-.99-.93-1.79-1.69-2.4-.76-.61-1.73-.92-2.9-.92s-2.14.31-2.9.92c-.76.61-1.32,1.41-1.69,2.4-.36.99-.55,2.06-.55,3.2s.18,2.21.55,3.19c.36.98.93,1.77,1.69,2.38.76.6,1.73.9,2.9.9ZM161.5,31.52V14.38h2.55v2.59h.18c.31-.85.88-1.54,1.7-2.06.82-.53,1.74-.79,2.77-.79.19,0,.44,0,.73.01.29,0,.51.02.66.03v2.68c-.09-.02-.29-.06-.61-.1-.31-.05-.64-.08-.99-.08-.83,0-1.58.17-2.23.52-.65.34-1.16.82-1.54,1.43-.37.6-.56,1.29-.56,2.07v10.85h-2.63ZM175.41,37.95c-.45,0-.84-.04-1.19-.11-.35-.07-.59-.13-.73-.2l.67-2.32c.64.16,1.21.22,1.7.18.49-.04.93-.26,1.31-.66.39-.39.74-1.02,1.06-1.89l.49-1.34-6.34-17.24h2.86l4.73,13.66h.18l4.73-13.66h2.86l-7.28,19.65c-.33.89-.73,1.62-1.22,2.2-.48.59-1.05,1.02-1.69,1.31-.63.28-1.35.42-2.14.42Z"/>
</svg>