<?xml version="1.0" encoding="UTF-8"?>
<svg id="Ebene_1" data-name="Ebene 1" xmlns="http://www.w3.org/2000/svg" xmlns:xlink="http://www.w3.org/1999/xlink" viewBox="0 0 250 250">
  <defs>
    <style>
      .cls-1 {
        fill: #000;
      }

      .cls-1, .cls-2, .cls-3, .cls-4 {
        stroke-width: 0px;
      }

      .cls-2 {
        fill: none;
      }

      .cls-3 {
        fill: #ffa800;
      }

      .cls-5 {
        clip-path: url(#clippath);
      }

      .cls-4 {
        fill: #fff;
      }
    </style>
    <clipPath id="clippath">
      <rect class="cls-2" x="171.82" y="117.69" width="36.59" height="13.63"/>
    </clipPath>
  </defs>
  <rect class="cls-4" x="16.02" y="87" width="221.95" height="75" rx="18.29" ry="18.29"/>
  <path class="cls-1" d="M48.18,113.27h3.08l7.23,17.67h.25l7.23-17.67h3.08v21.29h-2.41v-16.17h-.21l-6.65,16.17h-2.33l-6.65-16.17h-.21v16.17h-2.41v-21.29ZM80.57,134.89c-1.54,0-2.87-.34-3.98-1.02-1.11-.69-1.96-1.64-2.57-2.87-.6-1.23-.89-2.67-.89-4.3s.3-3.08.89-4.32c.6-1.25,1.44-2.23,2.52-2.93,1.08-.71,2.34-1.06,3.78-1.06.83,0,1.65.14,2.46.42.81.28,1.55.73,2.21,1.35.67.62,1.2,1.43,1.59,2.45.39,1.02.59,2.27.59,3.76v1.04h-12.31v-2.12h9.81c0-.9-.18-1.7-.54-2.41-.35-.71-.86-1.26-1.52-1.67-.65-.41-1.42-.61-2.31-.61-.98,0-1.82.24-2.54.73-.71.48-1.25,1.1-1.63,1.87-.38.77-.57,1.59-.57,2.47v1.41c0,1.21.21,2.23.62,3.07.42.83,1.01,1.47,1.76,1.9.75.43,1.62.64,2.61.64.64,0,1.23-.09,1.75-.27.53-.19.98-.46,1.36-.83.38-.37.68-.84.88-1.39l2.37.67c-.25.8-.67,1.51-1.26,2.12-.59.6-1.32,1.07-2.18,1.41-.87.33-1.84.5-2.92.5ZM96.94,134.89c-1.33,0-2.5-.34-3.52-1.01-1.02-.68-1.82-1.64-2.39-2.87-.57-1.24-.86-2.71-.86-4.4s.29-3.13.86-4.37c.58-1.23,1.38-2.19,2.4-2.86,1.03-.67,2.21-1.01,3.55-1.01,1.04,0,1.86.17,2.46.52.61.34,1.07.73,1.39,1.16.33.43.58.78.76,1.06h.21v-7.86h2.45v21.29h-2.37v-2.45h-.29c-.18.29-.44.66-.77,1.1-.33.44-.81.83-1.42,1.17-.62.34-1.44.51-2.46.51ZM97.28,132.69c.98,0,1.82-.26,2.49-.77.68-.52,1.2-1.24,1.55-2.15.35-.92.53-1.99.53-3.19s-.17-2.23-.52-3.13c-.35-.9-.86-1.6-1.54-2.1-.68-.51-1.52-.76-2.52-.76s-1.91.27-2.6.8c-.69.53-1.2,1.24-1.55,2.15-.34.9-.51,1.91-.51,3.03s.17,2.17.52,3.1c.35.92.87,1.66,1.56,2.2.69.54,1.55.81,2.58.81ZM109.09,134.56v-15.96h2.45v15.96h-2.45ZM110.34,115.94c-.48,0-.89-.16-1.24-.49-.34-.33-.51-.72-.51-1.17s.17-.85.51-1.17c.35-.33.76-.49,1.24-.49s.89.16,1.23.49c.35.33.52.72.52,1.17s-.17.85-.52,1.17c-.34.33-.75.49-1.23.49ZM126.1,128.03v-9.44h2.45v15.96h-2.45v-2.7h-.17c-.37.81-.96,1.5-1.75,2.07-.79.56-1.79.84-2.99.84-1,0-1.88-.22-2.66-.65-.78-.44-1.39-1.11-1.83-2-.44-.89-.67-2.02-.67-3.38v-10.14h2.45v9.98c0,1.16.33,2.09.98,2.79.66.69,1.5,1.04,2.52,1.04.61,0,1.23-.16,1.86-.47.64-.31,1.17-.79,1.6-1.43.44-.64.65-1.47.65-2.46ZM133.05,134.56v-15.96h2.37v2.49h.21c.33-.85.87-1.51,1.61-1.99.74-.48,1.63-.72,2.67-.72s1.93.24,2.63.72c.71.47,1.26,1.13,1.65,1.99h.17c.41-.82,1.02-1.48,1.84-1.96.82-.49,1.8-.74,2.94-.74,1.43,0,2.59.45,3.5,1.34.91.89,1.36,2.27,1.36,4.15v10.68h-2.45v-10.68c0-1.18-.32-2.02-.97-2.53-.64-.51-1.4-.76-2.28-.76-1.12,0-1.99.34-2.61,1.02-.62.67-.93,1.52-.93,2.56v10.39h-2.49v-10.93c0-.91-.29-1.64-.88-2.19-.59-.56-1.35-.84-2.28-.84-.64,0-1.23.17-1.79.51-.55.34-.99.81-1.33,1.41-.33.6-.5,1.29-.5,2.07v9.98h-2.45Z"/>
  <g class="cls-5">
    <g>
      <path class="cls-3" d="M206.4,131.31h-32.58c-.53,0-1.04-.21-1.42-.59-.38-.38-.59-.89-.59-1.43s.21-1.05.59-1.43c.38-.38.89-.59,1.42-.59h32.58c.53,0,1.04.21,1.42.59.38.38.59.89.59,1.43s-.21,1.05-.59,1.43c-.38.38-.89.59-1.42.59Z"/>
      <path class="cls-3" d="M206.4,121.72h-32.58c-.53,0-1.04-.21-1.42-.59-.38-.38-.59-.89-.59-1.43s.21-1.05.59-1.43c.38-.38.89-.59,1.42-.59h32.58c.53,0,1.04.21,1.42.59.38.38.59.89.59,1.43s-.21,1.05-.59,1.43c-.38.38-.89.59-1.42.59Z"/>
    </g>
  </g>
</svg>