<?xml version="1.0" encoding="UTF-8"?>
<svg id="button_technical_task" data-name="Ebene 1" xmlns="http://www.w3.org/2000/svg" viewBox="0 0 222.47 41.71">
  <defs>
    <style>
      .cls-1 {
        fill: #1fd7c1;
      }

      .cls-1, .cls-2 {
        stroke-width: 0px;
      }

      .cls-2 {
        fill: #fff;
      }
    </style>
  </defs>
  <rect class="cls-1" x="0" width="222.47" height="41.71" rx="12.36" ry="12.36"/>
  <path class="cls-2" d="M25.91,13.31v-1.93h13.48v1.93h-5.65v16.05h-2.18V13.31h-5.65ZM46.17,29.63c-1.3,0-2.42-.29-3.36-.86-.94-.58-1.66-1.39-2.17-2.42-.5-1.04-.75-2.25-.75-3.63s.25-2.6.75-3.65c.51-1.06,1.22-1.88,2.12-2.48.91-.6,1.98-.9,3.2-.9.7,0,1.4.12,2.08.35.68.23,1.31.61,1.87,1.14.56.52,1.01,1.21,1.34,2.07.33.86.5,1.92.5,3.18v.88h-10.39v-1.79h8.29c0-.76-.15-1.44-.46-2.04-.3-.6-.73-1.07-1.28-1.41-.55-.35-1.2-.52-1.95-.52-.83,0-1.54.2-2.14.61-.6.4-1.06.93-1.38,1.58-.32.65-.48,1.35-.48,2.09v1.19c0,1.02.18,1.88.53,2.59.36.7.85,1.24,1.48,1.61.63.36,1.37.54,2.2.54.54,0,1.04-.08,1.47-.23.44-.16.83-.39,1.15-.7.32-.32.57-.71.75-1.18l2,.56c-.21.68-.56,1.28-1.06,1.79-.5.51-1.11.91-1.84,1.19-.73.28-1.55.42-2.47.42ZM60.38,29.63c-1.26,0-2.35-.3-3.27-.9-.91-.6-1.62-1.42-2.11-2.47-.49-1.05-.74-2.24-.74-3.59s.25-2.58.75-3.63c.51-1.05,1.22-1.88,2.12-2.47.91-.6,1.98-.9,3.2-.9.95,0,1.8.18,2.56.53s1.38.84,1.87,1.47c.49.63.79,1.37.9,2.21h-2.07c-.16-.61-.51-1.16-1.05-1.63-.54-.48-1.26-.72-2.18-.72-.81,0-1.52.21-2.12.63-.6.42-1.07,1-1.41,1.76-.33.75-.5,1.64-.5,2.66s.16,1.95.49,2.72c.33.77.8,1.37,1.4,1.8.61.43,1.32.64,2.14.64.54,0,1.03-.09,1.47-.28.44-.19.81-.46,1.11-.81.3-.35.52-.77.65-1.26h2.07c-.12.8-.41,1.51-.87,2.15-.46.63-1.06,1.14-1.82,1.51-.75.37-1.62.55-2.62.55ZM70.79,21.24v8.11h-2.07V11.38h2.07v6.6h.18c.32-.7.79-1.25,1.42-1.66.64-.42,1.49-.62,2.55-.62.92,0,1.72.18,2.41.55.69.36,1.23.92,1.61,1.68.39.75.58,1.7.58,2.86v8.57h-2.07v-8.43c0-1.07-.28-1.9-.83-2.48-.55-.59-1.31-.89-2.29-.89-.68,0-1.29.14-1.83.43-.53.29-.95.71-1.26,1.26-.3.55-.46,1.22-.46,2ZM85.39,21.24v8.11h-2.07v-13.48h2v2.11h.18c.32-.68.8-1.23,1.44-1.65.64-.42,1.47-.63,2.49-.63.91,0,1.71.19,2.4.56.68.37,1.22.93,1.6,1.69.38.75.57,1.7.57,2.84v8.57h-2.07v-8.43c0-1.06-.28-1.88-.83-2.48-.55-.6-1.3-.9-2.26-.9-.66,0-1.25.14-1.77.43-.52.29-.92.71-1.22,1.26-.3.55-.45,1.22-.45,2ZM97.78,29.35v-13.48h2.07v13.48h-2.07ZM98.83,13.62c-.4,0-.75-.14-1.04-.41-.29-.28-.43-.61-.43-.99s.14-.72.43-.99c.29-.28.64-.41,1.04-.41s.75.14,1.04.41c.29.28.44.61.44.99s-.15.72-.44.99c-.29.28-.63.41-1.04.41ZM109.12,29.63c-1.26,0-2.35-.3-3.27-.9-.91-.6-1.62-1.42-2.11-2.47-.49-1.05-.74-2.24-.74-3.59s.25-2.58.75-3.63c.51-1.05,1.22-1.88,2.12-2.47.91-.6,1.98-.9,3.2-.9.95,0,1.8.18,2.56.53.76.35,1.38.84,1.87,1.47.49.63.79,1.37.9,2.21h-2.07c-.16-.61-.51-1.16-1.05-1.63-.54-.48-1.26-.72-2.18-.72-.81,0-1.52.21-2.12.63-.6.42-1.07,1-1.41,1.76-.33.75-.5,1.64-.5,2.66s.16,1.95.49,2.72c.33.77.8,1.37,1.4,1.8.61.43,1.32.64,2.14.64.54,0,1.03-.09,1.47-.28.44-.19.81-.46,1.11-.81.3-.35.52-.77.65-1.26h2.07c-.12.8-.41,1.51-.87,2.15-.46.63-1.06,1.14-1.82,1.51-.75.37-1.62.55-2.62.55ZM121.42,29.67c-.85,0-1.63-.16-2.33-.48-.7-.33-1.25-.8-1.66-1.41-.41-.62-.61-1.37-.61-2.25,0-.77.15-1.4.46-1.88.3-.49.71-.87,1.22-1.14.51-.27,1.07-.48,1.69-.61.62-.14,1.24-.25,1.87-.33.82-.11,1.48-.18,1.99-.24.51-.06.89-.15,1.12-.29.24-.13.36-.37.36-.7v-.07c0-.87-.24-1.54-.71-2.02-.47-.48-1.18-.72-2.13-.72s-1.76.22-2.33.65c-.56.43-.96.9-1.18,1.39l-1.97-.7c.35-.82.82-1.46,1.4-1.91.59-.46,1.23-.78,1.93-.97.7-.19,1.39-.28,2.07-.28.43,0,.93.05,1.49.16.57.1,1.11.31,1.64.62.53.32.97.79,1.33,1.43.35.64.53,1.49.53,2.56v8.88h-2.07v-1.83h-.11c-.14.29-.37.61-.7.94-.33.33-.76.62-1.31.85-.54.23-1.21.35-1.99.35ZM121.73,27.81c.82,0,1.51-.16,2.07-.48.57-.32.99-.74,1.28-1.25.29-.51.44-1.04.44-1.61v-1.9c-.09.11-.28.2-.58.29-.29.08-.63.16-1.02.22-.38.06-.75.11-1.11.16-.36.04-.65.08-.87.11-.54.07-1.04.18-1.51.34-.46.15-.84.38-1.12.69-.28.3-.42.72-.42,1.25,0,.72.27,1.26.8,1.63.54.36,1.22.54,2.05.54ZM133.45,11.38v17.98h-2.07V11.38h2.07ZM143.5,13.31v-1.93h13.48v1.93h-5.65v16.05h-2.18V13.31h-5.65ZM162.19,29.67c-.85,0-1.63-.16-2.33-.48-.7-.33-1.25-.8-1.66-1.41-.41-.62-.61-1.37-.61-2.25,0-.77.15-1.4.46-1.88.3-.49.71-.87,1.22-1.14.51-.27,1.07-.48,1.69-.61.62-.14,1.24-.25,1.87-.33.82-.11,1.48-.18,1.99-.24.51-.06.89-.15,1.12-.29.24-.13.36-.37.36-.7v-.07c0-.87-.24-1.54-.71-2.02-.47-.48-1.18-.72-2.13-.72s-1.76.22-2.33.65c-.56.43-.96.9-1.18,1.39l-1.97-.7c.35-.82.82-1.46,1.4-1.91.59-.46,1.23-.78,1.93-.97.7-.19,1.39-.28,2.07-.28.43,0,.93.05,1.49.16.57.1,1.11.31,1.64.62.53.32.97.79,1.33,1.43.35.64.53,1.49.53,2.56v8.88h-2.07v-1.83h-.11c-.14.29-.38.61-.7.94-.33.33-.76.62-1.31.85-.55.23-1.21.35-1.99.35ZM162.51,27.81c.82,0,1.51-.16,2.07-.48.57-.32.99-.74,1.28-1.25.29-.51.44-1.04.44-1.61v-1.9c-.09.11-.28.2-.58.29-.29.08-.63.16-1.02.22-.38.06-.75.11-1.12.16-.36.04-.65.08-.87.11-.54.07-1.04.18-1.51.34-.46.15-.84.38-1.12.69-.28.3-.42.72-.42,1.25,0,.72.27,1.26.8,1.63.54.36,1.22.54,2.05.54ZM181.7,18.89l-1.86.53c-.12-.31-.29-.61-.52-.9-.22-.3-.53-.54-.91-.74s-.88-.29-1.48-.29c-.82,0-1.51.19-2.06.57-.54.37-.82.85-.82,1.43,0,.52.19.92.56,1.22.38.3.96.55,1.76.75l2,.49c1.21.29,2.1.74,2.69,1.34.59.6.89,1.37.89,2.31,0,.77-.22,1.46-.67,2.07-.44.61-1.05,1.09-1.84,1.44-.79.35-1.71.53-2.76.53-1.37,0-2.51-.3-3.41-.9-.9-.6-1.47-1.47-1.71-2.62l1.97-.49c.19.73.54,1.27,1.06,1.63.53.36,1.21.54,2.06.54.97,0,1.73-.2,2.3-.61.57-.42.86-.91.86-1.49,0-.47-.16-.86-.49-1.18-.33-.32-.83-.56-1.51-.72l-2.25-.53c-1.23-.29-2.14-.75-2.72-1.36-.57-.62-.86-1.4-.86-2.33,0-.76.21-1.43.64-2.02.43-.59,1.02-1.04,1.76-1.38.75-.33,1.6-.5,2.54-.5,1.33,0,2.38.29,3.14.88.77.59,1.31,1.36,1.63,2.32ZM187,24.44l-.04-2.56h.42l5.9-6h2.56l-6.28,6.36h-.18l-2.39,2.21ZM185.07,29.35V11.38h2.07v17.98h-2.07ZM193.63,29.35l-5.27-6.67,1.48-1.44,6.43,8.11h-2.63Z"/>
</svg>