<?xml version="1.0" encoding="UTF-8"?>
<svg id="Ebene_1" data-name="Ebene 1" xmlns="http://www.w3.org/2000/svg" xmlns:xlink="http://www.w3.org/1999/xlink" viewBox="0 0 219.53 74.18">
  <defs>
    <style>
      .cls-1 {
        fill: none;
      }

      .cls-1, .cls-2, .cls-3 {
        stroke-width: 0px;
      }

      .cls-2 {
        fill: #ffa800;
      }

      .cls-4 {
        clip-path: url(#clippath);
      }

      .cls-3 {
        fill: #fff;
      }
    </style>
    <clipPath id="clippath">
      <rect class="cls-1" x="156.8" y="30.35" width="36.19" height="13.48"/>
    </clipPath>
  </defs>
  <rect class="cls-2" width="219.53" height="74.18" rx="18.09" ry="18.09"/>
  <path class="cls-3" d="M28.37,25.99h5.49l5.8,14.15h.25l5.8-14.15h5.49v21.05h-4.32v-13.7h-.17l-5.45,13.6h-2.94l-5.45-13.65h-.17v13.75h-4.32v-21.05ZM61.97,47.35c-1.62,0-3.02-.33-4.19-.99-1.16-.66-2.06-1.6-2.69-2.82-.63-1.22-.95-2.66-.95-4.33s.32-3.05.95-4.28c.63-1.23,1.52-2.18,2.66-2.87,1.15-.69,2.5-1.03,4.05-1.03,1.04,0,2.01.17,2.91.5.9.33,1.69.83,2.36,1.49.68.66,1.21,1.5,1.58,2.51.38,1,.57,2.17.57,3.52v1.2h-13.33v-2.71h9.21c0-.63-.14-1.19-.41-1.68-.27-.49-.65-.87-1.14-1.14-.48-.28-1.04-.42-1.68-.42s-1.25.15-1.77.46c-.51.3-.9.71-1.19,1.22-.29.51-.44,1.07-.44,1.7v2.58c0,.78.14,1.46.43,2.03.29.57.71,1.01,1.24,1.32.53.31,1.17.46,1.9.46.49,0,.93-.07,1.34-.21.4-.14.75-.34,1.04-.62.29-.27.51-.61.66-1.01l4.05.27c-.21.97-.63,1.82-1.26,2.55-.63.72-1.45,1.28-2.45,1.69-.99.4-2.14.6-3.44.6ZM77.89,47.3c-1.2,0-2.29-.31-3.26-.93-.97-.62-1.73-1.54-2.3-2.74-.56-1.21-.84-2.7-.84-4.46s.29-3.31.87-4.51c.58-1.21,1.36-2.11,2.32-2.7.97-.6,2.04-.9,3.2-.9.88,0,1.62.15,2.21.45.6.29,1.08.66,1.44,1.11.37.44.65.87.84,1.3h.13v-7.92h4.37v21.05h-4.32v-2.53h-.19c-.21.44-.5.87-.87,1.31-.37.42-.85.78-1.45,1.06-.59.28-1.31.42-2.16.42ZM79.28,43.81c.71,0,1.3-.19,1.79-.58.49-.39.87-.94,1.13-1.63.27-.7.4-1.52.4-2.46s-.13-1.75-.39-2.45c-.26-.69-.64-1.23-1.13-1.6-.49-.38-1.09-.57-1.8-.57s-1.33.2-1.82.59c-.49.39-.87.93-1.12,1.62-.25.69-.38,1.49-.38,2.41s.13,1.73.38,2.44c.26.7.63,1.25,1.12,1.64.49.39,1.1.59,1.82.59ZM90.48,47.04v-15.79h4.38v15.79h-4.38ZM92.68,29.22c-.65,0-1.21-.22-1.68-.65-.46-.44-.69-.96-.69-1.57s.23-1.12.69-1.55c.47-.44,1.02-.66,1.68-.66s1.21.22,1.67.66c.47.43.7.95.7,1.55s-.23,1.13-.7,1.57c-.46.43-1.01.65-1.67.65ZM108.49,40.32v-9.07h4.38v15.79h-4.2v-2.87h-.16c-.36.93-.95,1.67-1.78,2.23-.82.56-1.83.84-3.01.84-1.06,0-1.98-.24-2.79-.72-.8-.48-1.43-1.16-1.88-2.05-.45-.88-.67-1.94-.68-3.18v-10.05h4.38v9.27c0,.93.26,1.67.75,2.21.49.54,1.15.81,1.98.81.53,0,1.02-.12,1.48-.36.46-.25.83-.61,1.11-1.09.29-.48.43-1.07.42-1.78ZM116.37,47.04v-15.79h4.17v2.79h.19c.33-.93.88-1.66,1.64-2.19.77-.53,1.69-.8,2.75-.8s2,.27,2.77.81c.76.53,1.27,1.26,1.52,2.18h.16c.32-.9.9-1.63,1.75-2.17.85-.55,1.85-.82,3.01-.82,1.47,0,2.67.47,3.59,1.41.93.93,1.39,2.25,1.39,3.97v10.62h-4.37v-9.76c0-.88-.23-1.54-.7-1.97-.47-.44-1.05-.66-1.75-.66-.8,0-1.42.25-1.86.76-.45.5-.67,1.16-.67,1.98v9.64h-4.25v-9.85c0-.77-.22-1.39-.67-1.85-.44-.46-1.02-.69-1.74-.69-.49,0-.93.12-1.32.37-.38.24-.69.58-.91,1.02-.23.43-.34.94-.34,1.52v9.48h-4.38Z"/>
  <g class="cls-4">
    <g>
      <path class="cls-3" d="M191.01,43.83h-32.22c-.53,0-1.03-.21-1.4-.58-.37-.37-.58-.88-.58-1.41s.21-1.04.58-1.41c.37-.37.88-.58,1.4-.58h32.22c.53,0,1.03.21,1.4.58.37.37.58.88.58,1.41s-.21,1.04-.58,1.41c-.37.37-.88.58-1.4.58Z"/>
      <path class="cls-3" d="M191.01,34.34h-32.22c-.53,0-1.03-.21-1.4-.58-.37-.37-.58-.88-.58-1.41s.21-1.04.58-1.41c.37-.37.88-.58,1.4-.58h32.22c.53,0,1.03.21,1.4.58.37.37.58.88.58,1.41s-.21,1.04-.58,1.41c-.37.37-.88.58-1.4.58Z"/>
    </g>
  </g>
</svg>