<?xml version="1.0" encoding="UTF-8"?>
<svg id="button_priority_low_WHT" data-name="Ebene 1" xmlns="http://www.w3.org/2000/svg" viewBox="0 0 221.62 74.89">
  <defs>
    <style>
      .cls-1 {
        fill: #000;
      }

      .cls-1, .cls-2, .cls-3 {
        stroke-width: 0px;
      }

      .cls-2 {
        fill: #7ae229;
      }

      .cls-3 {
        fill: #fff;
      }
    </style>
  </defs>
  <rect class="cls-3" width="221.62" height="74.89" rx="18.27" ry="18.27"/>
  <path class="cls-1" d="M58.59,47.49v-21.25h2.57v18.97h9.88v2.28h-12.45ZM81.17,47.82c-1.44,0-2.7-.34-3.79-1.03-1.08-.68-1.92-1.64-2.53-2.87-.6-1.23-.9-2.67-.9-4.32s.3-3.11.9-4.35c.61-1.24,1.45-2.2,2.53-2.88,1.09-.68,2.35-1.03,3.79-1.03s2.7.34,3.78,1.03c1.09.68,1.93,1.65,2.53,2.88.61,1.24.91,2.69.91,4.35s-.3,3.09-.91,4.32c-.6,1.23-1.45,2.19-2.53,2.87-1.08.68-2.34,1.03-3.78,1.03ZM81.17,45.62c1.09,0,1.99-.28,2.7-.84.71-.56,1.23-1.3,1.57-2.21.34-.91.51-1.9.51-2.97s-.17-2.06-.51-2.98c-.34-.92-.86-1.66-1.57-2.23-.71-.57-1.61-.85-2.7-.85s-1.99.28-2.7.85c-.71.57-1.23,1.31-1.57,2.23s-.51,1.91-.51,2.98.17,2.05.51,2.97.86,1.65,1.57,2.21c.71.56,1.61.84,2.7.84ZM95.2,47.49l-4.86-15.94h2.57l3.45,12.2h.17l3.4-12.2h2.62l3.36,12.16h.17l3.45-12.16h2.57l-4.86,15.94h-2.41l-3.49-12.25h-.25l-3.49,12.25h-2.41Z"/>
  <path class="cls-2" d="M147.34,40.19c-.43,0-.85-.14-1.19-.39l-16.26-12c-.21-.16-.39-.35-.53-.58-.14-.23-.23-.48-.26-.74-.08-.52.05-1.06.37-1.49.32-.43.79-.71,1.31-.79.53-.08,1.06.05,1.49.37l15.07,11.11,15.07-11.11c.21-.16.45-.27.71-.33.26-.06.52-.08.78-.04.26.04.51.13.74.26.23.14.42.31.58.53.16.21.27.45.33.71.06.26.08.52.04.78-.04.26-.13.51-.26.74-.14.23-.31.42-.53.58l-16.26,12c-.35.25-.76.39-1.19.39Z"/>
  <path class="cls-2" d="M147.34,50.69c-.43,0-.85-.14-1.19-.39l-16.26-12c-.43-.32-.71-.79-.79-1.31-.08-.53.05-1.06.37-1.49.32-.43.79-.71,1.31-.79.53-.08,1.06.05,1.49.37l15.07,11.11,15.07-11.11c.43-.32.96-.45,1.49-.37.53.08,1,.36,1.31.79.32.43.45.96.37,1.49-.08.53-.36,1-.79,1.31l-16.26,12c-.35.25-.76.39-1.19.39Z"/>
</svg>