<svg width="113" height="55" viewBox="0 0 113 55" fill="none" xmlns="http://www.w3.org/2000/svg">
<rect x="0.5" y="0.5" width="112" height="54" rx="7.5" fill="white"/>
<rect x="0.5" y="0.5" width="112" height="54" rx="7.5" stroke="#2A3647"/>
<path d="M30.5625 35H25.8494V19.7273H30.7713C32.2528 19.7273 33.5206 20.033 34.5746 20.6445C35.6286 21.2511 36.4364 22.1236 36.9982 23.2621C37.56 24.3956 37.8409 25.7528 37.8409 27.3338C37.8409 28.9247 37.5575 30.2944 36.9908 31.4428C36.424 32.5863 35.5987 33.4663 34.5149 34.0827C33.4311 34.6942 32.1136 35 30.5625 35ZM27.6989 33.3594H30.4432C31.706 33.3594 32.7525 33.1158 33.5827 32.6286C34.413 32.1413 35.032 31.4478 35.4396 30.5479C35.8473 29.6481 36.0511 28.5767 36.0511 27.3338C36.0511 26.1009 35.8498 25.0394 35.4471 24.1495C35.0444 23.2546 34.4428 22.5685 33.6424 22.0913C32.842 21.609 31.8452 21.3679 30.652 21.3679H27.6989V33.3594ZM45.5071 35.2386C44.4034 35.2386 43.4513 34.995 42.6509 34.5078C41.8555 34.0156 41.2415 33.3295 40.8089 32.4496C40.3814 31.5646 40.1676 30.5355 40.1676 29.3622C40.1676 28.1889 40.3814 27.1548 40.8089 26.2599C41.2415 25.3601 41.843 24.6591 42.6136 24.157C43.3892 23.6499 44.294 23.3963 45.3281 23.3963C45.9247 23.3963 46.5138 23.4957 47.0955 23.6946C47.6772 23.8935 48.2067 24.2166 48.6839 24.6641C49.1612 25.1065 49.5415 25.6932 49.8249 26.424C50.1083 27.1548 50.25 28.0547 50.25 29.1236V29.8693H41.4205V28.348H48.4602C48.4602 27.7017 48.331 27.125 48.0724 26.6179C47.8189 26.1108 47.456 25.7106 46.9837 25.4173C46.5163 25.1239 45.9645 24.9773 45.3281 24.9773C44.6271 24.9773 44.0206 25.1513 43.5085 25.4993C43.0014 25.8423 42.6112 26.2898 42.3377 26.8416C42.0643 27.3935 41.9276 27.9851 41.9276 28.6165V29.6307C41.9276 30.4957 42.0767 31.229 42.375 31.8306C42.6783 32.4272 43.0984 32.8821 43.6353 33.1953C44.1722 33.5036 44.7962 33.6577 45.5071 33.6577C45.9695 33.6577 46.3871 33.593 46.7599 33.4638C47.1378 33.3295 47.4634 33.1307 47.7369 32.8672C48.0103 32.5987 48.2216 32.2656 48.3707 31.8679L50.071 32.3452C49.892 32.9219 49.5913 33.429 49.1687 33.8665C48.7461 34.299 48.2241 34.6371 47.6026 34.8807C46.9812 35.1193 46.2827 35.2386 45.5071 35.2386ZM54.6871 19.7273V35H52.9272V19.7273H54.6871ZM62.7132 35.2386C61.6095 35.2386 60.6574 34.995 59.857 34.5078C59.0615 34.0156 58.4475 33.3295 58.015 32.4496C57.5874 31.5646 57.3737 30.5355 57.3737 29.3622C57.3737 28.1889 57.5874 27.1548 58.015 26.2599C58.4475 25.3601 59.0491 24.6591 59.8197 24.157C60.5953 23.6499 61.5001 23.3963 62.5342 23.3963C63.1308 23.3963 63.7199 23.4957 64.3016 23.6946C64.8833 23.8935 65.4127 24.2166 65.89 24.6641C66.3673 25.1065 66.7476 25.6932 67.031 26.424C67.3144 27.1548 67.4561 28.0547 67.4561 29.1236V29.8693H58.6265V28.348H65.6663C65.6663 27.7017 65.537 27.125 65.2785 26.6179C65.0249 26.1108 64.662 25.7106 64.1897 25.4173C63.7224 25.1239 63.1705 24.9773 62.5342 24.9773C61.8332 24.9773 61.2267 25.1513 60.7146 25.4993C60.2075 25.8423 59.8172 26.2898 59.5438 26.8416C59.2703 27.3935 59.1336 27.9851 59.1336 28.6165V29.6307C59.1336 30.4957 59.2828 31.229 59.5811 31.8306C59.8843 32.4272 60.3044 32.8821 60.8414 33.1953C61.3783 33.5036 62.0022 33.6577 62.7132 33.6577C63.1755 33.6577 63.5931 33.593 63.966 33.4638C64.3438 33.3295 64.6695 33.1307 64.9429 32.8672C65.2164 32.5987 65.4276 32.2656 65.5768 31.8679L67.2771 32.3452C67.0981 32.9219 66.7973 33.429 66.3747 33.8665C65.9521 34.299 65.4301 34.6371 64.8087 34.8807C64.1872 35.1193 63.4887 35.2386 62.7132 35.2386ZM75.1148 23.5455V25.0369H69.1787V23.5455H75.1148ZM70.9088 20.8011H72.6688V31.7188C72.6688 32.2159 72.7409 32.5888 72.885 32.8374C73.0342 33.081 73.2231 33.245 73.4518 33.3295C73.6855 33.4091 73.9316 33.4489 74.1901 33.4489C74.384 33.4489 74.5431 33.4389 74.6673 33.419C74.7916 33.3942 74.8911 33.3743 74.9656 33.3594L75.3236 34.9403C75.2043 34.9851 75.0377 35.0298 74.824 35.0746C74.6102 35.1243 74.3392 35.1491 74.0111 35.1491C73.5139 35.1491 73.0267 35.0423 72.5494 34.8285C72.0771 34.6147 71.6844 34.2891 71.3712 33.8516C71.0629 33.4141 70.9088 32.8622 70.9088 32.196V20.8011ZM82.4417 35.2386C81.338 35.2386 80.3859 34.995 79.5855 34.5078C78.79 34.0156 78.176 33.3295 77.7435 32.4496C77.316 31.5646 77.1022 30.5355 77.1022 29.3622C77.1022 28.1889 77.316 27.1548 77.7435 26.2599C78.176 25.3601 78.7776 24.6591 79.5482 24.157C80.3238 23.6499 81.2286 23.3963 82.2627 23.3963C82.8593 23.3963 83.4484 23.4957 84.0301 23.6946C84.6118 23.8935 85.1412 24.2166 85.6185 24.6641C86.0958 25.1065 86.4761 25.6932 86.7595 26.424C87.0429 27.1548 87.1846 28.0547 87.1846 29.1236V29.8693H78.355V28.348H85.3948C85.3948 27.7017 85.2655 27.125 85.007 26.6179C84.7535 26.1108 84.3905 25.7106 83.9182 25.4173C83.4509 25.1239 82.8991 24.9773 82.2627 24.9773C81.5617 24.9773 80.9552 25.1513 80.4431 25.4993C79.936 25.8423 79.5457 26.2898 79.2723 26.8416C78.9988 27.3935 78.8621 27.9851 78.8621 28.6165V29.6307C78.8621 30.4957 79.0113 31.229 79.3096 31.8306C79.6128 32.4272 80.0329 32.8821 80.5699 33.1953C81.1068 33.5036 81.7307 33.6577 82.4417 33.6577C82.904 33.6577 83.3216 33.593 83.6945 33.4638C84.0724 33.3295 84.398 33.1307 84.6714 32.8672C84.9449 32.5987 85.1562 32.2656 85.3053 31.8679L87.0056 32.3452C86.8266 32.9219 86.5258 33.429 86.1032 33.8665C85.6807 34.299 85.1586 34.6371 84.5372 34.8807C83.9157 35.1193 83.2172 35.2386 82.4417 35.2386Z" fill="#2A3647"/>
</svg>
