<?xml version="1.0" encoding="UTF-8"?>
<svg id="Ebene_1" data-name="Ebene 1" xmlns="http://www.w3.org/2000/svg" xmlns:xlink="http://www.w3.org/1999/xlink" viewBox="0 0 164 164">
  <defs>
    <style>
      .cls-1 {
        fill: #d9d9d9;
      }

      .cls-1, .cls-2, .cls-3 {
        stroke-width: 0px;
      }

      .cls-2 {
        fill: #2a3647;
      }

      .cls-3 {
        fill: #fff;
      }

      .cls-4 {
        mask: url(#mask);
      }
    </style>
    <mask id="mask" x="43.97" y="43.97" width="76.06" height="76.06" maskUnits="userSpaceOnUse">
      <g id="mask0_187930_5271" data-name="mask0 187930 5271">
        <rect class="cls-1" x="43.97" y="43.97" width="76.06" height="76.06"/>
      </g>
    </mask>
  </defs>
  <circle class="cls-2" cx="82" cy="82" r="82"/>
  <g class="cls-4">
    <path class="cls-3" d="M59.82,104.18h4.44l27.33-27.33-4.44-4.44-27.33,27.33v4.44ZM105.13,72.25l-13.47-13.31,4.44-4.44c1.21-1.21,2.71-1.82,4.48-1.82s3.26.61,4.48,1.82l4.44,4.44c1.21,1.21,1.85,2.68,1.9,4.4.05,1.72-.53,3.18-1.74,4.4l-4.52,4.52ZM100.54,76.93l-33.59,33.59h-13.47v-13.47l33.59-33.59,13.47,13.47Z"/>
  </g>
</svg>