<?xml version="1.0" encoding="UTF-8"?>
<svg id="button_more_options_dark_blue" data-name="Ebene 1" xmlns="http://www.w3.org/2000/svg" xmlns:xlink="http://www.w3.org/1999/xlink" viewBox="0 0 177.98 177.98">
  <defs>
    <style>
      .cls-1 {
        fill: #d9d9d9;
      }

      .cls-1, .cls-2, .cls-3 {
        stroke-width: 0px;
      }

      .cls-4 {
        fill: none;
        stroke: #2a3647;
      }

      .cls-2 {
        fill: #2a3647;
      }

      .cls-3 {
        fill: #fff;
      }

      .cls-5 {
        mask: url(#mask);
      }
    </style>
    <mask id="mask" x="38.14" y="38.14" width="101.7" height="101.7" maskUnits="userSpaceOnUse">
      <g id="mask0_71395_17955" data-name="mask0 71395 17955">
        <rect class="cls-1" x="38.14" y="38.14" width="101.7" height="101.7"/>
      </g>
    </mask>
  </defs>
  <path class="cls-2" d="M88.99,0h0c49.15,0,88.99,39.84,88.99,88.99h0c0,49.15-39.84,88.99-88.99,88.99h0C39.84,177.98,0,138.14,0,88.99h0C0,39.84,39.84,0,88.99,0Z" shape-rendering="crispEdges"/>
  <path class="cls-4" d="M88.99,1.59h0c48.27,0,87.4,39.13,87.4,87.4h0c0,48.27-39.13,87.4-87.4,87.4h0C40.72,176.39,1.59,137.26,1.59,88.99h0C1.59,40.72,40.72,1.59,88.99,1.59Z" shape-rendering="crispEdges"/>
  <g class="cls-5">
    <path class="cls-3" d="M88.99,122.89c-2.33,0-4.33-.83-5.99-2.49-1.66-1.66-2.49-3.65-2.49-5.99s.83-4.33,2.49-5.99c1.66-1.66,3.65-2.49,5.99-2.49s4.33.83,5.99,2.49c1.66,1.66,2.49,3.65,2.49,5.99s-.83,4.33-2.49,5.99c-1.66,1.66-3.65,2.49-5.99,2.49ZM88.99,97.46c-2.33,0-4.33-.83-5.99-2.49-1.66-1.66-2.49-3.65-2.49-5.99s.83-4.33,2.49-5.99c1.66-1.66,3.65-2.49,5.99-2.49s4.33.83,5.99,2.49c1.66,1.66,2.49,3.65,2.49,5.99s-.83,4.33-2.49,5.99c-1.66,1.66-3.65,2.49-5.99,2.49ZM88.99,72.04c-2.33,0-4.33-.83-5.99-2.49-1.66-1.66-2.49-3.65-2.49-5.99s.83-4.33,2.49-5.99c1.66-1.66,3.65-2.49,5.99-2.49s4.33.83,5.99,2.49c1.66,1.66,2.49,3.65,2.49,5.99s-.83,4.33-2.49,5.99c-1.66,1.66-3.65,2.49-5.99,2.49Z"/>
  </g>
</svg>