<?xml version="1.0" encoding="UTF-8"?>
<svg id="Ebene_1" data-name="Ebene 1" xmlns="http://www.w3.org/2000/svg" xmlns:xlink="http://www.w3.org/1999/xlink" viewBox="0 0 221.95 75">
  <defs>
    <style>
      .cls-1 {
        fill: none;
      }

      .cls-1, .cls-2, .cls-3 {
        stroke-width: 0px;
      }

      .cls-2 {
        fill: #ff3d00;
      }

      .cls-4 {
        clip-path: url(#clippath);
      }

      .cls-3 {
        fill: #fff;
      }
    </style>
    <clipPath id="clippath">
      <rect class="cls-1" x="149.39" y="24.23" width="36.59" height="26.54"/>
    </clipPath>
  </defs>
  <rect class="cls-2" width="221.95" height="75" rx="18.29" ry="18.29"/>
  <path class="cls-3" d="M50.97,26.27h4.5v13.82c0,1.55-.37,2.91-1.11,4.07-.73,1.16-1.76,2.07-3.09,2.72-1.32.64-2.87.97-4.63.97s-3.31-.32-4.64-.97c-1.32-.65-2.35-1.56-3.09-2.72-.73-1.16-1.1-2.52-1.1-4.07v-13.82h4.5v13.44c0,.81.18,1.53.53,2.16.36.63.87,1.13,1.52,1.49.65.36,1.41.54,2.28.54s1.63-.18,2.28-.54c.65-.36,1.15-.86,1.51-1.49.36-.63.54-1.35.54-2.16v-13.44ZM59.09,47.56v-15.96h4.29v2.79h.17c.29-.99.78-1.74,1.47-2.25.69-.51,1.48-.77,2.37-.77.22,0,.46.01.72.04.26.03.48.07.68.11v3.93c-.21-.06-.5-.12-.86-.17-.37-.05-.7-.07-1.01-.07-.65,0-1.23.14-1.75.43-.51.28-.91.67-1.21,1.16-.29.5-.44,1.07-.44,1.73v9.03h-4.43ZM77.52,53.88c-1.43,0-2.66-.2-3.69-.59-1.02-.39-1.83-.92-2.43-1.59-.6-.67-.99-1.43-1.17-2.27l4.1-.55c.12.32.32.62.59.89.27.28.63.5,1.07.67.45.17,1,.26,1.64.26.96,0,1.76-.24,2.38-.71.63-.46.95-1.24.95-2.34v-2.92h-.19c-.19.44-.49.86-.87,1.26-.39.4-.89.72-1.5.97-.61.25-1.34.37-2.18.37-1.2,0-2.29-.28-3.27-.83-.98-.56-1.76-1.42-2.34-2.57-.58-1.16-.86-2.62-.86-4.39s.29-3.32.88-4.53c.59-1.21,1.37-2.12,2.35-2.72.98-.6,2.06-.9,3.23-.9.89,0,1.64.15,2.25.46.6.3,1.09.67,1.46,1.12.37.44.66.88.86,1.31h.17v-2.68h4.4v16.12c0,1.36-.33,2.49-1,3.41-.67.91-1.59,1.6-2.76,2.06-1.17.46-2.52.7-4.04.7ZM77.61,44.01c.71,0,1.32-.18,1.81-.53.5-.36.88-.87,1.14-1.54.27-.67.41-1.48.41-2.41s-.13-1.75-.39-2.43c-.26-.69-.64-1.23-1.14-1.61-.5-.38-1.11-.57-1.82-.57s-1.34.2-1.84.59c-.5.39-.88.93-1.13,1.62-.26.69-.38,1.49-.38,2.4s.13,1.72.38,2.39c.26.67.64,1.18,1.13,1.55.5.36,1.11.54,1.84.54ZM96.12,47.87c-1.64,0-3.06-.33-4.24-1-1.18-.67-2.09-1.62-2.72-2.85-.64-1.23-.96-2.69-.96-4.38s.32-3.08.96-4.32c.64-1.24,1.53-2.21,2.69-2.9,1.16-.69,2.53-1.04,4.09-1.04,1.05,0,2.03.17,2.94.51.91.33,1.71.83,2.39,1.51.69.67,1.22,1.52,1.6,2.54.38,1.01.57,2.2.57,3.55v1.22h-13.48v-2.74h9.31c0-.64-.14-1.2-.42-1.69-.28-.49-.66-.88-1.15-1.15-.48-.28-1.05-.43-1.69-.43s-1.27.16-1.79.47c-.51.3-.91.72-1.21,1.24-.29.51-.44,1.08-.45,1.71v2.61c0,.79.15,1.47.44,2.05.3.58.72,1.02,1.26,1.33.54.31,1.18.47,1.92.47.49,0,.94-.07,1.35-.21s.76-.35,1.05-.62c.29-.28.51-.62.67-1.02l4.1.27c-.21.98-.63,1.84-1.28,2.58-.64.73-1.46,1.3-2.47,1.7-1,.4-2.17.6-3.48.6ZM110.77,38.33v9.23h-4.43v-15.96h4.22v2.82h.19c.35-.93.95-1.66,1.78-2.2.83-.55,1.84-.82,3.02-.82,1.11,0,2.08.24,2.9.73.82.49,1.47,1.18,1.92,2.08.46.89.69,1.96.69,3.2v10.16h-4.43v-9.38c0-.98-.24-1.74-.75-2.29-.51-.55-1.2-.83-2.09-.83-.6,0-1.12.13-1.58.38-.45.26-.8.63-1.06,1.12-.25.49-.38,1.07-.38,1.76ZM133.04,31.6v3.33h-9.61v-3.33h9.61ZM125.61,27.77h4.43v14.88c0,.41.06.73.19.96.12.22.3.38.52.47.23.09.49.14.79.14.21,0,.42-.02.62-.05.21-.04.37-.07.48-.09l.7,3.29c-.22.07-.53.15-.94.24-.4.1-.89.16-1.47.18-1.07.04-2-.1-2.81-.43-.8-.33-1.42-.83-1.86-1.52-.44-.69-.66-1.55-.65-2.6v-15.47Z"/>
  <g class="cls-4">
    <g>
      <path class="cls-3" d="M183.97,50.77c-.43,0-.85-.14-1.19-.39l-15.1-11.13-15.1,11.13c-.21.16-.45.27-.71.33-.26.06-.52.08-.78.04-.26-.04-.51-.13-.74-.26-.23-.14-.42-.31-.58-.53-.16-.21-.27-.45-.33-.71-.06-.26-.08-.52-.04-.78.08-.53.36-1,.79-1.32l16.29-12.02c.35-.26.76-.39,1.19-.39s.85.14,1.19.39l16.29,12.02c.34.25.59.6.72,1,.13.4.13.83,0,1.24-.13.4-.39.75-.73,1-.34.25-.75.38-1.18.38Z"/>
      <path class="cls-3" d="M183.97,40.25c-.43,0-.85-.14-1.19-.39l-15.1-11.13-15.1,11.13c-.43.32-.96.45-1.49.37s-1-.36-1.32-.79c-.32-.43-.45-.96-.37-1.49.08-.53.36-1,.79-1.32l16.29-12.02c.35-.26.76-.39,1.19-.39s.85.14,1.19.39l16.29,12.02c.34.25.59.6.72,1s.13.83,0,1.24c-.13.4-.39.75-.73,1-.34.25-.75.38-1.18.38Z"/>
    </g>
  </g>
</svg>