<?xml version="1.0" encoding="UTF-8"?>
<svg id="Ebene_1" data-name="Ebene 1" xmlns="http://www.w3.org/2000/svg" xmlns:xlink="http://www.w3.org/1999/xlink" viewBox="0 0 250 250">
  <defs>
    <style>
      .cls-1 {
        fill: #d9d9d9;
      }

      .cls-1, .cls-2, .cls-3 {
        stroke-width: 0px;
      }

      .cls-4 {
        fill: none;
        stroke: #2a3647;
      }

      .cls-2 {
        fill: #2a3647;
      }

      .cls-3 {
        fill: #fff;
      }

      .cls-5 {
        mask: url(#mask);
      }
    </style>
    <mask id="mask" x="74.14" y="74.14" width="101.71" height="101.71" maskUnits="userSpaceOnUse">
      <g id="mask0_71395_11112" data-name="mask0 71395 11112">
        <rect class="cls-1" x="74.14" y="74.14" width="101.71" height="101.71"/>
      </g>
    </mask>
  </defs>
  <path class="cls-2" d="M125,36h0c49.15,0,89,39.85,89,89h0c0,49.15-39.85,89-89,89h0c-49.15,0-89-39.85-89-89h0c0-49.15,39.85-89,89-89Z" shape-rendering="crispEdges"/>
  <path class="cls-4" d="M125,37.59h0c48.28,0,87.41,39.14,87.41,87.41h0c0,48.28-39.14,87.41-87.41,87.41h0c-48.28,0-87.41-39.14-87.41-87.41h0c0-48.28,39.14-87.41,87.41-87.41Z" shape-rendering="crispEdges"/>
  <g class="cls-5">
    <path class="cls-3" d="M154.65,133.48c-1,0-1.84-.34-2.51-1.02-.67-.68-1.01-1.52-1.01-2.52v-9.89h-9.89c-1,0-1.84-.34-2.52-1.02-.68-.68-1.02-1.52-1.02-2.53s.34-1.84,1.02-2.51c.68-.67,1.52-1.01,2.52-1.01h9.89v-9.89c0-1,.34-1.84,1.02-2.52s1.52-1.02,2.53-1.02,1.84.34,2.51,1.02c.67.68,1.01,1.52,1.01,2.52v9.89h9.89c1,0,1.84.34,2.52,1.02.68.68,1.02,1.52,1.02,2.53s-.34,1.84-1.02,2.51c-.68.67-1.52,1.01-2.52,1.01h-9.89v9.89c0,1-.34,1.84-1.02,2.52-.68.68-1.52,1.02-2.53,1.02ZM112.28,124.93c-4.66,0-8.54-1.54-11.62-4.63-3.08-3.08-4.63-6.96-4.63-11.62s1.54-8.54,4.63-11.62c3.08-3.08,6.96-4.63,11.62-4.63s8.54,1.54,11.62,4.63c3.08,3.08,4.63,6.96,4.63,11.62s-1.54,8.54-4.63,11.62-6.96,4.63-11.62,4.63ZM81.91,158.9c-1,0-1.84-.34-2.52-1.02-.68-.68-1.02-1.52-1.02-2.52v-7.06c0-2.45.63-4.68,1.89-6.69,1.26-2.01,2.98-3.53,5.17-4.54,4.99-2.28,9.61-3.93,13.87-4.93,4.25-1,8.57-1.5,12.96-1.5s8.71.5,12.97,1.5c4.26,1,8.86,2.64,13.81,4.93,2.19,1.06,3.93,2.58,5.21,4.57,1.28,1.99,1.92,4.21,1.92,6.66v7.06c0,1-.34,1.84-1.02,2.52-.68.68-1.52,1.02-2.52,1.02h-60.75ZM85.44,151.84h53.68v-3.53c0-1.01-.25-1.97-.76-2.86-.51-.89-1.27-1.57-2.28-2.01-4.57-2.24-8.66-3.75-12.29-4.54-3.63-.79-7.46-1.18-11.51-1.18s-7.89.41-11.51,1.22c-3.63.81-7.75,2.31-12.36,4.5-.92.45-1.64,1.12-2.17,2.01-.53.89-.79,1.85-.79,2.86v3.53ZM112.28,117.87c2.61,0,4.8-.88,6.55-2.63s2.63-3.94,2.63-6.55-.88-4.8-2.63-6.55c-1.75-1.75-3.94-2.63-6.55-2.63s-4.8.88-6.55,2.63c-1.75,1.75-2.63,3.94-2.63,6.55s.88,4.8,2.63,6.55c1.75,1.75,3.94,2.63,6.55,2.63Z"/>
  </g>
</svg>