<?xml version="1.0" encoding="UTF-8"?>
<svg id="Ebene_1" data-name="Ebene 1" xmlns="http://www.w3.org/2000/svg" xmlns:xlink="http://www.w3.org/1999/xlink" viewBox="0 0 250 250">
  <defs>
    <style>
      .cls-1 {
        fill: #000;
      }

      .cls-1, .cls-2, .cls-3, .cls-4 {
        stroke-width: 0px;
      }

      .cls-2 {
        fill: none;
      }

      .cls-3 {
        fill: #ff3d00;
      }

      .cls-5 {
        clip-path: url(#clippath);
      }

      .cls-4 {
        fill: #fff;
      }
    </style>
    <clipPath id="clippath">
      <rect class="cls-2" x="161.59" y="111.73" width="36.59" height="26.54"/>
    </clipPath>
  </defs>
  <rect class="cls-4" x="14.02" y="87.5" width="221.95" height="75" rx="18.29" ry="18.29"/>
  <path class="cls-1" d="M68.38,113.77h2.58v14.09c0,1.46-.34,2.75-1.03,3.9-.68,1.14-1.64,2.03-2.88,2.69-1.24.65-2.7.98-4.37.98s-3.12-.33-4.37-.98c-1.24-.66-2.2-1.56-2.89-2.69-.68-1.14-1.02-2.44-1.02-3.9v-14.09h2.58v13.89c0,1.04.23,1.96.69,2.78.46.8,1.11,1.44,1.95,1.9.85.46,1.87.69,3.06.69s2.2-.23,3.06-.69c.85-.46,1.5-1.1,1.95-1.9.46-.81.69-1.74.69-2.78v-13.89ZM75.77,135.06v-15.96h2.37v2.41h.17c.29-.79.82-1.43,1.58-1.92.76-.49,1.62-.74,2.58-.74.18,0,.41,0,.68.01.27,0,.47.02.61.03v2.49c-.08-.02-.27-.05-.57-.09-.29-.05-.6-.07-.93-.07-.78,0-1.47.16-2.08.49-.6.32-1.08.76-1.43,1.33-.35.56-.52,1.2-.52,1.92v10.1h-2.45ZM92.62,141.38c-1.18,0-2.2-.15-3.06-.46-.85-.3-1.56-.69-2.13-1.18-.56-.48-1.01-1-1.34-1.56l1.95-1.37c.22.29.5.62.84,1,.34.38.8.71,1.39.99.6.28,1.38.43,2.34.43,1.29,0,2.35-.31,3.19-.94.84-.62,1.26-1.6,1.26-2.93v-3.24h-.21c-.18.29-.44.65-.77,1.08-.33.42-.8.8-1.41,1.13-.61.33-1.43.49-2.47.49-1.29,0-2.45-.3-3.47-.91-1.02-.61-1.83-1.5-2.42-2.66-.59-1.16-.88-2.58-.88-4.24s.29-3.06.86-4.27c.57-1.22,1.38-2.16,2.4-2.83,1.03-.67,2.21-1.01,3.55-1.01,1.04,0,1.86.17,2.47.52.62.34,1.09.73,1.41,1.16.33.43.59.78.77,1.06h.25v-2.54h2.37v16.42c0,1.37-.31,2.49-.94,3.35-.62.87-1.45,1.5-2.49,1.9-1.04.41-2.2.61-3.47.61ZM92.53,132.61c.98,0,1.82-.23,2.49-.68.68-.45,1.2-1.1,1.55-1.94.35-.85.53-1.86.53-3.03s-.17-2.17-.52-3.05-.86-1.57-1.54-2.07c-.68-.5-1.52-.75-2.52-.75s-1.91.26-2.6.79c-.69.53-1.2,1.23-1.55,2.12-.34.89-.51,1.87-.51,2.95s.17,2.09.52,2.94c.35.85.87,1.51,1.56,2,.69.48,1.55.72,2.58.72ZM110.7,135.39c-1.54,0-2.87-.34-3.98-1.02-1.11-.69-1.96-1.64-2.57-2.87-.6-1.23-.89-2.67-.89-4.3s.3-3.08.89-4.32c.6-1.25,1.44-2.23,2.52-2.93,1.08-.71,2.34-1.06,3.78-1.06.83,0,1.65.14,2.46.42.81.28,1.55.73,2.21,1.35.67.62,1.2,1.43,1.59,2.45.39,1.02.59,2.27.59,3.76v1.04h-12.31v-2.12h9.81c0-.9-.18-1.7-.54-2.41-.35-.71-.86-1.26-1.52-1.67-.65-.41-1.42-.61-2.31-.61-.98,0-1.82.24-2.54.73-.71.48-1.25,1.1-1.63,1.87-.38.77-.57,1.59-.57,2.47v1.41c0,1.21.21,2.23.62,3.07.42.83,1.01,1.47,1.76,1.9.75.43,1.62.64,2.61.64.64,0,1.23-.09,1.75-.27.53-.19.98-.46,1.36-.83.38-.37.68-.84.88-1.39l2.37.67c-.25.8-.67,1.51-1.26,2.12-.59.6-1.32,1.07-2.18,1.41-.87.33-1.84.5-2.92.5ZM123.5,125.46v9.6h-2.45v-15.96h2.37v2.49h.21c.37-.81.94-1.46,1.7-1.95.76-.5,1.75-.75,2.95-.75,1.08,0,2.03.22,2.84.67.81.44,1.44,1.1,1.89,2,.45.89.68,2.01.68,3.37v10.14h-2.45v-9.98c0-1.25-.33-2.23-.98-2.93-.65-.71-1.55-1.06-2.68-1.06-.78,0-1.48.17-2.1.51-.61.34-1.09.84-1.44,1.49-.35.65-.53,1.44-.53,2.37ZM145.11,119.1v2.08h-8.27v-2.08h8.27ZM139.24,115.27h2.45v15.22c0,.69.1,1.21.3,1.56.21.34.47.57.79.69.33.11.67.17,1.03.17.27,0,.49-.01.67-.04.17-.03.31-.06.42-.08l.5,2.2c-.17.06-.4.12-.7.19-.3.07-.68.1-1.13.1-.69,0-1.37-.15-2.04-.45-.66-.3-1.21-.75-1.64-1.36-.43-.61-.64-1.38-.64-2.31v-15.88Z"/>
  <g class="cls-5">
    <g>
      <path class="cls-3" d="M196.17,138.27c-.43,0-.85-.14-1.19-.39l-15.1-11.13-15.1,11.13c-.21.16-.45.27-.71.33-.26.06-.52.08-.78.04-.26-.04-.51-.13-.74-.26-.23-.14-.42-.31-.58-.53-.16-.21-.27-.45-.33-.71-.06-.26-.08-.52-.04-.78.08-.53.36-1,.79-1.32l16.29-12.02c.35-.26.76-.39,1.19-.39s.85.14,1.19.39l16.29,12.02c.34.25.59.6.72,1,.13.4.13.83,0,1.24-.13.4-.39.75-.73,1-.34.25-.75.38-1.18.38Z"/>
      <path class="cls-3" d="M196.17,127.75c-.43,0-.85-.14-1.19-.39l-15.1-11.13-15.1,11.13c-.43.32-.96.45-1.49.37s-1-.36-1.32-.79c-.32-.43-.45-.96-.37-1.49.08-.53.36-1,.79-1.32l16.29-12.02c.35-.26.76-.39,1.19-.39s.85.14,1.19.39l16.29,12.02c.34.25.59.6.72,1s.13.83,0,1.24c-.13.4-.39.75-.73,1-.34.25-.75.38-1.18.38Z"/>
    </g>
  </g>
</svg>