<?xml version="1.0" encoding="UTF-8"?>
<svg id="button_priority_low_COLOR" data-name="Ebene 1" xmlns="http://www.w3.org/2000/svg" viewBox="0 0 219.78 74.27">
  <defs>
    <style>
      .cls-1 {
        fill: #7ae229;
      }

      .cls-1, .cls-2 {
        stroke-width: 0px;
      }

      .cls-2 {
        fill: #fff;
      }
    </style>
  </defs>
  <rect class="cls-1" width="219.78" height="74.27" rx="18.11" ry="18.11"/>
  <path class="cls-2" d="M56.47,47.1v-21.08h4.46v17.4h9.04v3.67h-13.49ZM79.98,47.4c-1.6,0-2.98-.34-4.15-1.02-1.16-.69-2.05-1.64-2.69-2.86-.63-1.23-.95-2.65-.95-4.27s.32-3.06.95-4.28c.63-1.23,1.53-2.18,2.69-2.86,1.17-.69,2.55-1.03,4.15-1.03s2.98.34,4.14,1.03c1.17.68,2.07,1.63,2.7,2.86.63,1.22.95,2.65.95,4.28s-.32,3.04-.95,4.27c-.63,1.22-1.53,2.18-2.7,2.86-1.16.68-2.54,1.02-4.14,1.02ZM80,44.01c.73,0,1.33-.21,1.82-.62.49-.42.85-.99,1.1-1.71.25-.72.38-1.54.38-2.46s-.13-1.74-.38-2.46c-.25-.72-.61-1.29-1.1-1.71-.49-.42-1.09-.63-1.82-.63s-1.35.21-1.85.63c-.49.42-.87.99-1.12,1.71-.25.72-.37,1.54-.37,2.46s.12,1.74.37,2.46c.25.72.63,1.29,1.12,1.71.5.41,1.12.62,1.85.62ZM93.33,47.1l-4.3-15.81h4.44l2.45,10.62h.14l2.55-10.62h4.35l2.59,10.56h.13l2.41-10.56h4.43l-4.29,15.81h-4.64l-2.72-9.94h-.2l-2.72,9.94h-4.63Z"/>
  <path class="cls-2" d="M147.02,39.86c-.42,0-.84-.13-1.18-.39l-16.13-11.9c-.21-.16-.39-.35-.52-.57-.13-.22-.22-.47-.26-.73-.08-.52.05-1.05.37-1.47.31-.42.78-.71,1.3-.78.52-.08,1.05.05,1.48.37l14.95,11.02,14.95-11.02c.21-.16.45-.27.7-.33.25-.06.52-.08.77-.04.26.04.51.13.73.26.22.13.42.31.57.52.16.21.27.45.33.7.06.25.08.52.04.77-.04.26-.13.51-.26.73-.13.22-.31.42-.52.57l-16.13,11.9c-.34.25-.76.39-1.18.39Z"/>
  <path class="cls-2" d="M147.02,50.27c-.42,0-.84-.13-1.18-.39l-16.13-11.9c-.42-.31-.71-.78-.78-1.3-.08-.52.05-1.05.37-1.47.31-.42.78-.71,1.3-.78.52-.08,1.05.05,1.48.37l14.95,11.02,14.95-11.02c.42-.31.95-.44,1.48-.37.52.08.99.36,1.3.78.31.42.45.95.37,1.47-.08.52-.36.99-.78,1.3l-16.13,11.9c-.34.25-.76.39-1.18.39Z"/>
</svg>