<?xml version="1.0" encoding="UTF-8"?>
<svg id="Ebene_1" data-name="Ebene 1" xmlns="http://www.w3.org/2000/svg" xmlns:xlink="http://www.w3.org/1999/xlink" viewBox="0 0 250 250">
  <defs>
    <style>
      .cls-1 {
        fill: #d9d9d9;
      }

      .cls-1, .cls-2, .cls-3 {
        stroke-width: 0px;
      }

      .cls-4 {
        fill: none;
        stroke: #2a3647;
      }

      .cls-2 {
        fill: #2a3647;
      }

      .cls-3 {
        fill: #fff;
      }

      .cls-5 {
        mask: url(#mask);
      }
    </style>
    <mask id="mask" x="74.15" y="74.15" width="101.7" height="101.7" maskUnits="userSpaceOnUse">
      <g id="mask0_71395_17955" data-name="mask0 71395 17955">
        <rect class="cls-1" x="74.15" y="74.15" width="101.7" height="101.7"/>
      </g>
    </mask>
  </defs>
  <path class="cls-2" d="M125,36.01h0c49.15,0,88.99,39.84,88.99,88.99h0c0,49.15-39.84,88.99-88.99,88.99h0c-49.15,0-88.99-39.84-88.99-88.99h0c0-49.15,39.84-88.99,88.99-88.99Z" shape-rendering="crispEdges"/>
  <path class="cls-4" d="M125,37.6h0c48.27,0,87.4,39.13,87.4,87.4h0c0,48.27-39.13,87.4-87.4,87.4h0c-48.27,0-87.4-39.13-87.4-87.4h0c0-48.27,39.13-87.4,87.4-87.4Z" shape-rendering="crispEdges"/>
  <g class="cls-5">
    <path class="cls-3" d="M125,158.9c-2.33,0-4.33-.83-5.99-2.49-1.66-1.66-2.49-3.65-2.49-5.99s.83-4.33,2.49-5.99c1.66-1.66,3.65-2.49,5.99-2.49s4.33.83,5.99,2.49c1.66,1.66,2.49,3.65,2.49,5.99s-.83,4.33-2.49,5.99c-1.66,1.66-3.65,2.49-5.99,2.49ZM125,133.47c-2.33,0-4.33-.83-5.99-2.49-1.66-1.66-2.49-3.65-2.49-5.99s.83-4.33,2.49-5.99c1.66-1.66,3.65-2.49,5.99-2.49s4.33.83,5.99,2.49c1.66,1.66,2.49,3.65,2.49,5.99s-.83,4.33-2.49,5.99c-1.66,1.66-3.65,2.49-5.99,2.49ZM125,108.05c-2.33,0-4.33-.83-5.99-2.49-1.66-1.66-2.49-3.65-2.49-5.99s.83-4.33,2.49-5.99c1.66-1.66,3.65-2.49,5.99-2.49s4.33.83,5.99,2.49c1.66,1.66,2.49,3.65,2.49,5.99s-.83,4.33-2.49,5.99c-1.66,1.66-3.65,2.49-5.99,2.49Z"/>
  </g>
</svg>