<?xml version="1.0" encoding="UTF-8"?>
<svg id="button_more_options_light_blue" data-name="Ebene 1" xmlns="http://www.w3.org/2000/svg" xmlns:xlink="http://www.w3.org/1999/xlink" viewBox="0 0 178 178">
  <defs>
    <style>
      .cls-1 {
        fill: #d9d9d9;
      }

      .cls-1, .cls-2, .cls-3 {
        stroke-width: 0px;
      }

      .cls-2 {
        fill: #fff;
      }

      .cls-4 {
        mask: url(#mask);
      }

      .cls-3 {
        fill: #29abe2;
      }
    </style>
    <mask id="mask" x="38.14" y="38.14" width="101.71" height="101.71" maskUnits="userSpaceOnUse">
      <g id="mask0_71395_17959" data-name="mask0 71395 17959">
        <rect class="cls-1" x="38.14" y="38.14" width="101.71" height="101.71"/>
      </g>
    </mask>
  </defs>
  <path class="cls-3" d="M89,0h0c49.15,0,89,39.85,89,89h0c0,49.15-39.85,89-89,89h0C39.85,178,0,138.15,0,89h0C0,39.85,39.85,0,89,0Z" shape-rendering="crispEdges"/>
  <g class="cls-4">
    <path class="cls-2" d="M89,122.9c-2.33,0-4.33-.83-5.99-2.49-1.66-1.66-2.49-3.66-2.49-5.99s.83-4.33,2.49-5.99c1.66-1.66,3.66-2.49,5.99-2.49s4.33.83,5.99,2.49c1.66,1.66,2.49,3.66,2.49,5.99s-.83,4.33-2.49,5.99c-1.66,1.66-3.66,2.49-5.99,2.49ZM89,97.48c-2.33,0-4.33-.83-5.99-2.49-1.66-1.66-2.49-3.66-2.49-5.99s.83-4.33,2.49-5.99c1.66-1.66,3.66-2.49,5.99-2.49s4.33.83,5.99,2.49c1.66,1.66,2.49,3.66,2.49,5.99s-.83,4.33-2.49,5.99c-1.66,1.66-3.66,2.49-5.99,2.49ZM89,72.05c-2.33,0-4.33-.83-5.99-2.49-1.66-1.66-2.49-3.66-2.49-5.99s.83-4.33,2.49-5.99c1.66-1.66,3.66-2.49,5.99-2.49s4.33.83,5.99,2.49c1.66,1.66,2.49,3.66,2.49,5.99s-.83,4.33-2.49,5.99c-1.66,1.66-3.66,2.49-5.99,2.49Z"/>
  </g>
</svg>