<?xml version="1.0" encoding="UTF-8"?>
<svg id="button_contact_grey" data-name="Ebene 1" xmlns="http://www.w3.org/2000/svg" xmlns:xlink="http://www.w3.org/1999/xlink" viewBox="0 0 173 173">
  <defs>
    <style>
      .cls-1 {
        fill: #d9d9d9;
      }

      .cls-1, .cls-2, .cls-3 {
        stroke-width: 0px;
      }

      .cls-4 {
        fill: none;
        stroke: #fff;
        stroke-width: 3px;
      }

      .cls-2 {
        fill: #fff;
      }

      .cls-5 {
        mask: url(#mask);
      }

      .cls-3 {
        fill: #d1d1d1;
      }
    </style>
    <mask id="mask" x="42.27" y="42.27" width="88.46" height="88.46" maskUnits="userSpaceOnUse">
      <g id="mask0_597_3745" data-name="mask0 597 3745">
        <rect class="cls-1" x="42.27" y="42.27" width="88.46" height="88.46"/>
      </g>
    </mask>
  </defs>
  <path class="cls-2" d="M86.5,3.57h0c45.8,0,82.93,37.13,82.93,82.93h0c0,45.8-37.13,82.93-82.93,82.93h0c-45.8,0-82.93-37.13-82.93-82.93h0C3.57,40.7,40.7,3.57,86.5,3.57Z"/>
  <path class="cls-4" d="M86.5,1.5h0c46.94,0,85,38.06,85,85h0c0,46.94-38.06,85-85,85h0C39.56,171.5,1.5,133.44,1.5,86.5h0C1.5,39.56,39.56,1.5,86.5,1.5Z"/>
  <circle class="cls-3" cx="86.5" cy="86.5" r="82.93"/>
  <g class="cls-5">
    <path class="cls-2" d="M86.5,86.5c-4.05,0-7.52-1.44-10.41-4.33-2.89-2.89-4.33-6.36-4.33-10.41s1.44-7.52,4.33-10.41,6.36-4.33,10.41-4.33,7.52,1.44,10.41,4.33c2.89,2.89,4.33,6.36,4.33,10.41s-1.44,7.52-4.33,10.41c-2.89,2.89-6.36,4.33-10.41,4.33ZM108.61,115.98h-44.23c-2.03,0-3.76-.72-5.21-2.17-1.44-1.44-2.17-3.18-2.17-5.21v-2.95c0-2.09.54-4.01,1.61-5.76,1.08-1.75,2.5-3.09,4.28-4.01,3.81-1.9,7.68-3.33,11.61-4.28,3.93-.95,7.92-1.43,11.98-1.43s8.05.48,11.98,1.43c3.93.95,7.8,2.38,11.61,4.28,1.78.92,3.21,2.26,4.28,4.01,1.08,1.75,1.61,3.67,1.61,5.76v2.95c0,2.03-.72,3.76-2.17,5.21-1.44,1.44-3.18,2.17-5.21,2.17ZM64.39,108.61h44.23v-2.95c0-.68-.17-1.29-.51-1.84-.34-.55-.78-.98-1.34-1.29-3.32-1.66-6.66-2.9-10.04-3.73-3.38-.83-6.79-1.24-10.23-1.24s-6.85.41-10.23,1.24c-3.38.83-6.73,2.07-10.04,3.73-.55.31-1,.74-1.34,1.29-.34.55-.51,1.17-.51,1.84v2.95ZM86.5,79.13c2.03,0,3.76-.72,5.21-2.17,1.44-1.44,2.17-3.18,2.17-5.21s-.72-3.76-2.17-5.21c-1.44-1.44-3.18-2.17-5.21-2.17s-3.76.72-5.21,2.17c-1.44,1.44-2.17,3.18-2.17,5.21s.72,3.76,2.17,5.21c1.44,1.44,3.18,2.17,5.21,2.17Z"/>
  </g>
</svg>