<?xml version="1.0" encoding="UTF-8"?>
<svg id="checkbox_checked_hover" data-name="Ebene 1" xmlns="http://www.w3.org/2000/svg" viewBox="0 0 24 24">
  <defs>
    <style>
      .cls-1 {
        stroke-linejoin: round;
      }

      .cls-1, .cls-2 {
        fill: none;
        stroke: #2a3647;
        stroke-linecap: round;
        stroke-width: 2px;
      }

      .cls-3 {
        fill: #edf2fa;
        stroke-width: 0px;
      }
    </style>
  </defs>
  <path class="cls-3" d="M12,0h0c6.63,0,12,5.37,12,12h0c0,6.63-5.37,12-12,12h0C5.37,24,0,18.63,0,12h0C0,5.37,5.37,0,12,0Z"/>
  <path class="cls-2" d="M20,11v6c0,1.66-1.34,3-3,3H7c-1.66,0-3-1.34-3-3V7c0-1.66,1.34-3,3-3h8"/>
  <path class="cls-1" d="M8,12l4,4,8-11.5"/>
</svg>