<?xml version="1.0" encoding="UTF-8"?>
<svg xmlns="http://www.w3.org/2000/svg" version="1.1" viewBox="0 0 80 80">
  <defs>
    <style>
      .cls-1 {
        fill: #00bee8;
      }
    </style>
  </defs>
  <!-- Generator: Adobe Illustrator 28.7.0, SVG Export Plug-In . SVG Version: 1.2.0 Build 136)  -->
  <g>
    <g id="close_icon">
      <path class="cls-1" d="M40,48.5l-29.8,29.8c-1.1,1.1-2.5,1.7-4.3,1.7s-3.1-.6-4.3-1.7C.6,77.2,0,75.8,0,74.1s.6-3.1,1.7-4.3l29.8-29.8L1.7,10.2c-1.1-1.1-1.7-2.5-1.7-4.3S.6,2.8,1.7,1.7C2.8.6,4.2,0,5.9,0s3.1.6,4.3,1.7l29.8,29.8L69.8,1.7c1.1-1.1,2.5-1.7,4.3-1.7s3.1.6,4.3,1.7c1.1,1.1,1.7,2.5,1.7,4.3s-.6,3.1-1.7,4.3l-29.8,29.8,29.8,29.8c1.1,1.1,1.7,2.5,1.7,4.3s-.6,3.1-1.7,4.3-2.5,1.7-4.3,1.7-3.1-.6-4.3-1.7c0,0-29.8-29.8-29.8-29.8Z"/>
    </g>
  </g>
</svg>