<?xml version="1.0" encoding="UTF-8"?>
<svg id="close_icon" data-name="Ebene 1" xmlns="http://www.w3.org/2000/svg" viewBox="0 0 80 80">
  <defs>
    <style>
      .cls-1 {
        fill: #2a3647;
        stroke-width: 0px;
      }
    </style>
  </defs>
  <path class="cls-1" d="M40,48.52l-29.81,29.81c-1.12,1.12-2.53,1.67-4.26,1.67s-3.14-.56-4.26-1.67c-1.12-1.12-1.67-2.54-1.67-4.26s.56-3.14,1.67-4.26l29.81-29.81L1.67,10.19c-1.12-1.12-1.67-2.53-1.67-4.26S.56,2.79,1.67,1.67C2.79.56,4.21,0,5.93,0s3.14.56,4.26,1.67l29.81,29.81L69.81,1.67c1.12-1.12,2.54-1.67,4.26-1.67s3.14.56,4.26,1.67c1.12,1.12,1.67,2.53,1.67,4.26s-.56,3.14-1.67,4.26l-29.81,29.81,29.81,29.81c1.12,1.12,1.67,2.54,1.67,4.26s-.56,3.14-1.67,4.26-2.54,1.67-4.26,1.67-3.14-.56-4.26-1.67l-29.81-29.81Z"/>
</svg>