<?xml version="1.0" encoding="UTF-8"?>
<svg id="Ebene_1" data-name="Ebene 1" xmlns="http://www.w3.org/2000/svg" viewBox="0 0 250 250">
  <defs>
    <style>
      .cls-1 {
        fill: #fff;
      }

      .cls-1, .cls-2 {
        stroke-width: 0px;
      }

      .cls-2 {
        fill: #29abe2;
      }

      .cls-3 {
        fill: none;
        stroke: #2a3647;
        stroke-width: 3px;
      }
    </style>
  </defs>
  <path class="cls-1" d="M125,198.36h0c40.51,0,73.36-32.84,73.36-73.36h0c0-40.51-32.84-73.36-73.36-73.36h0c-40.51,0-73.36,32.84-73.36,73.36h0c0,40.51,32.84,73.36,73.36,73.36Z"/>
  <path class="cls-2" d="M106.63,116c-.17-1.67-.88-2.96-2.13-3.89-1.25-.92-2.96-1.38-5.11-1.38-1.46,0-2.69.21-3.7.62-1.01.4-1.78.96-2.32,1.67-.52.72-.79,1.53-.79,2.44-.03.76.13,1.42.48,1.98.36.57.85,1.05,1.47,1.47.62.4,1.34.75,2.15,1.05.81.29,1.68.54,2.6.74l3.8.91c1.85.41,3.54.96,5.09,1.65,1.54.69,2.88,1.54,4.01,2.54,1.13,1.01,2.01,2.19,2.63,3.56.63,1.36.96,2.93.97,4.69-.01,2.59-.68,4.84-1.98,6.74-1.3,1.89-3.17,3.36-5.62,4.4-2.44,1.03-5.38,1.55-8.83,1.55s-6.4-.52-8.93-1.57c-2.52-1.05-4.49-2.6-5.91-4.65-1.41-2.07-2.14-4.62-2.21-7.67h8.66c.1,1.42.5,2.6,1.22,3.56.73.94,1.7,1.65,2.92,2.13,1.23.47,2.61.7,4.16.7s2.83-.22,3.95-.66c1.13-.44,2.01-1.05,2.63-1.84.62-.79.93-1.69.93-2.71,0-.95-.28-1.75-.85-2.4-.55-.65-1.36-1.2-2.44-1.65-1.06-.45-2.36-.87-3.91-1.24l-4.61-1.16c-3.57-.87-6.39-2.23-8.46-4.07-2.07-1.85-3.09-4.33-3.08-7.46-.01-2.56.67-4.8,2.05-6.72,1.39-1.92,3.3-3.41,5.73-4.49,2.43-1.08,5.18-1.61,8.27-1.61s5.89.54,8.23,1.61c2.36,1.08,4.19,2.57,5.5,4.49,1.31,1.92,1.98,4.13,2.03,6.66h-8.58Z"/>
  <path class="cls-2" d="M121.81,103.82h11.04l11.66,28.45h.5l11.66-28.45h11.04v42.34h-8.68v-27.56h-.35l-10.96,27.35h-5.91l-10.96-27.46h-.35v27.66h-8.68v-42.34Z"/>
  <circle class="cls-3" cx="125" cy="125" r="81"/>
</svg>