<?xml version="1.0" encoding="UTF-8"?>
<svg id="Ebene_1" data-name="Ebene 1" xmlns="http://www.w3.org/2000/svg" viewBox="0 0 250 250">
  <defs>
    <style>
      .cls-1 {
        fill: #a8a8a8;
        stroke-width: 0px;
      }
    </style>
  </defs>
  <path class="cls-1" d="M125.6,125c-7.42,0-13.78-2.64-19.07-7.93-5.29-5.29-7.93-11.64-7.93-19.07s2.64-13.78,7.93-19.07c5.29-5.29,11.64-7.93,19.07-7.93s13.78,2.64,19.07,7.93c5.29,5.29,7.93,11.64,7.93,19.07s-2.64,13.78-7.93,19.07c-5.29,5.29-11.64,7.93-19.07,7.93ZM166.1,179h-81c-3.71,0-6.89-1.32-9.53-3.97-2.64-2.64-3.97-5.82-3.97-9.53v-5.4c0-3.83.98-7.34,2.95-10.55,1.97-3.21,4.58-5.65,7.85-7.34,6.97-3.49,14.06-6.1,21.26-7.85,7.2-1.74,14.51-2.62,21.94-2.62s14.74.87,21.94,2.62c7.2,1.74,14.29,4.36,21.26,7.85,3.26,1.69,5.88,4.13,7.85,7.34,1.97,3.21,2.95,6.72,2.95,10.55v5.4c0,3.71-1.32,6.89-3.97,9.53-2.64,2.64-5.82,3.97-9.53,3.97ZM85.1,165.5h81v-5.4c0-1.24-.31-2.36-.93-3.38-.62-1.01-1.43-1.8-2.45-2.36-6.07-3.04-12.21-5.32-18.39-6.83-6.19-1.52-12.43-2.28-18.73-2.28s-12.54.76-18.73,2.28c-6.19,1.52-12.32,3.8-18.39,6.83-1.01.56-1.83,1.35-2.45,2.36-.62,1.01-.93,2.14-.93,3.38v5.4ZM125.6,111.5c3.71,0,6.89-1.32,9.53-3.97,2.64-2.64,3.97-5.82,3.97-9.53s-1.32-6.89-3.97-9.53c-2.64-2.64-5.82-3.97-9.53-3.97s-6.89,1.32-9.53,3.97c-2.64,2.64-3.97,5.82-3.97,9.53s1.32,6.89,3.97,9.53c2.64,2.64,5.82,3.97,9.53,3.97Z"/>
</svg>