<?xml version="1.0" encoding="UTF-8"?>
<svg id="contacts_icon_WHT" data-name="Ebene 1" xmlns="http://www.w3.org/2000/svg" xmlns:xlink="http://www.w3.org/1999/xlink" viewBox="0 0 114.4 127.11">
  <defs>
    <style>
      .cls-1 {
        fill: #d9d9d9;
      }

      .cls-1, .cls-2 {
        stroke-width: 0px;
      }

      .cls-2 {
        fill: #fff;
      }

      .cls-3 {
        mask: url(#mask);
      }
    </style>
    <mask id="mask" x="-19.07" y="-12.71" width="152.53" height="152.53" maskUnits="userSpaceOnUse">
      <g id="mask0_185215_1300" data-name="mask0 185215 1300">
        <rect class="cls-1" x="-19.07" y="-12.71" width="152.53" height="152.53"/>
      </g>
    </mask>
  </defs>
  <g class="cls-3">
    <path class="cls-2" d="M57.2,101.69c-5.93,0-11.6.93-17,2.78-5.4,1.85-10.33,4.63-14.78,8.34v1.59h63.56v-1.59c-4.45-3.71-9.37-6.49-14.78-8.34-5.4-1.85-11.07-2.78-17-2.78ZM12.71,107.09c5.72-5.61,12.37-10.04,19.94-13.27,7.57-3.23,15.76-4.85,24.55-4.85s16.97,1.62,24.55,4.85c7.57,3.23,14.22,7.65,19.94,13.27V25.42H12.71v81.67ZM57.2,76.27c-6.14,0-11.39-2.17-15.73-6.51-4.34-4.34-6.51-9.59-6.51-15.73s2.17-11.39,6.51-15.73c4.34-4.34,9.59-6.51,15.73-6.51s11.39,2.17,15.73,6.51c4.34,4.34,6.51,9.59,6.51,15.73s-2.17,11.39-6.51,15.73c-4.34,4.34-9.59,6.51-15.73,6.51ZM57.2,63.56c2.65,0,4.9-.93,6.75-2.78,1.85-1.85,2.78-4.1,2.78-6.75s-.93-4.9-2.78-6.75c-1.85-1.85-4.1-2.78-6.75-2.78s-4.9.93-6.75,2.78c-1.85,1.85-2.78,4.1-2.78,6.75s.93,4.9,2.78,6.75c1.85,1.85,4.1,2.78,6.75,2.78ZM12.71,127.11c-3.5,0-6.49-1.24-8.98-3.73-2.49-2.49-3.73-5.48-3.73-8.98V25.42c0-3.5,1.24-6.49,3.73-8.98,2.49-2.49,5.48-3.73,8.98-3.73h6.36V0h12.71v12.71h50.84V0h12.71v12.71h6.36c3.5,0,6.49,1.24,8.98,3.73,2.49,2.49,3.73,5.48,3.73,8.98v88.98c0,3.5-1.24,6.49-3.73,8.98-2.49,2.49-5.48,3.73-8.98,3.73H12.71Z"/>
  </g>
</svg>