<?xml version="1.0" encoding="UTF-8"?>
<svg id="Ebene_1" data-name="Ebene 1" xmlns="http://www.w3.org/2000/svg" viewBox="0 0 250 250">
  <defs>
    <style>
      .cls-1 {
        fill: #2a3647;
        stroke-width: 0px;
      }
    </style>
  </defs>
  <path class="cls-1" d="M139.69,160.73c-4.17,0-7.69-1.44-10.57-4.32-2.88-2.88-4.32-6.4-4.32-10.57s1.44-7.69,4.32-10.57c2.88-2.88,6.4-4.32,10.57-4.32s7.69,1.44,10.57,4.32c2.88,2.88,4.32,6.4,4.32,10.57s-1.44,7.69-4.32,10.57c-2.88,2.88-6.4,4.32-10.57,4.32ZM83.11,184.56c-3.28,0-6.08-1.17-8.41-3.5-2.33-2.33-3.5-5.14-3.5-8.41v-83.38c0-3.28,1.17-6.08,3.5-8.41,2.33-2.33,5.14-3.5,8.41-3.5h5.96v-5.96c0-1.69.57-3.1,1.71-4.24,1.14-1.14,2.56-1.71,4.24-1.71s3.1.57,4.24,1.71c1.14,1.14,1.71,2.56,1.71,4.24v5.96h47.64v-5.96c0-1.69.57-3.1,1.71-4.24,1.14-1.14,2.56-1.71,4.24-1.71s3.1.57,4.24,1.71c1.14,1.14,1.71,2.56,1.71,4.24v5.96h5.96c3.28,0,6.08,1.17,8.41,3.5,2.33,2.33,3.5,5.14,3.5,8.41v83.38c0,3.28-1.17,6.08-3.5,8.41-2.33,2.33-5.14,3.5-8.41,3.5h-83.38ZM83.11,172.64h83.38v-59.56h-83.38v59.56ZM83.11,101.18h83.38v-11.91h-83.38v11.91Z"/>
</svg>