<?xml version="1.0" encoding="UTF-8"?>
<svg id="date_icon" data-name="Ebene 1" xmlns="http://www.w3.org/2000/svg" viewBox="0 0 107.2 119.11">
  <defs>
    <style>
      .cls-1 {
        fill: #2a3647;
        stroke-width: 0px;
      }
    </style>
  </defs>
  <path class="cls-1" d="M68.49,95.29c-4.17,0-7.69-1.44-10.57-4.32-2.88-2.88-4.32-6.4-4.32-10.57s1.44-7.69,4.32-10.57c2.88-2.88,6.4-4.32,10.57-4.32s7.69,1.44,10.57,4.32c2.88,2.88,4.32,6.4,4.32,10.57s-1.44,7.69-4.32,10.57c-2.88,2.88-6.4,4.32-10.57,4.32ZM11.91,119.11c-3.28,0-6.08-1.17-8.41-3.5-2.33-2.33-3.5-5.14-3.5-8.41V23.82c0-3.28,1.17-6.08,3.5-8.41,2.33-2.33,5.14-3.5,8.41-3.5h5.96v-5.96c0-1.69.57-3.1,1.71-4.24,1.14-1.14,2.56-1.71,4.24-1.71s3.1.57,4.24,1.71c1.14,1.14,1.71,2.56,1.71,4.24v5.96h47.64v-5.96c0-1.69.57-3.1,1.71-4.24,1.14-1.14,2.56-1.71,4.24-1.71s3.1.57,4.24,1.71c1.14,1.14,1.71,2.56,1.71,4.24v5.96h5.96c3.28,0,6.08,1.17,8.41,3.5,2.33,2.33,3.5,5.14,3.5,8.41v83.38c0,3.28-1.17,6.08-3.5,8.41-2.33,2.33-5.14,3.5-8.41,3.5H11.91ZM11.91,107.2h83.38v-59.56H11.91v59.56ZM11.91,35.73h83.38v-11.91H11.91v11.91Z"/>
</svg>