<?xml version="1.0" encoding="UTF-8"?>
<svg id="Ebene_1" data-name="Ebene 1" xmlns="http://www.w3.org/2000/svg" viewBox="0 0 250 250">
  <defs>
    <style>
      .cls-1 {
        fill: #2a3647;
        stroke-width: 0px;
      }
    </style>
  </defs>
  <path class="cls-1" d="M96.24,176.41c-3.14,0-5.83-1.12-8.07-3.36-2.24-2.24-3.36-4.93-3.36-8.07v-74.27c-1.62,0-2.98-.55-4.07-1.64-1.09-1.09-1.64-2.45-1.64-4.07s.55-2.98,1.64-4.07c1.09-1.09,2.45-1.64,4.07-1.64h22.85c0-1.62.55-2.98,1.64-4.07,1.09-1.09,2.45-1.64,4.07-1.64h22.85c1.62,0,2.98.55,4.07,1.64,1.1,1.09,1.64,2.45,1.64,4.07h22.85c1.62,0,2.98.55,4.07,1.64,1.1,1.09,1.64,2.45,1.64,4.07s-.55,2.98-1.64,4.07c-1.1,1.09-2.45,1.64-4.07,1.64v74.27c0,3.14-1.12,5.83-3.36,8.07-2.24,2.24-4.93,3.36-8.07,3.36h-57.13ZM96.24,90.72v74.27h57.13v-74.27h-57.13ZM107.66,147.85c0,1.62.55,2.98,1.64,4.07s2.45,1.64,4.07,1.64,2.98-.55,4.07-1.64,1.64-2.45,1.64-4.07v-39.99c0-1.62-.55-2.98-1.64-4.07s-2.45-1.64-4.07-1.64-2.98.55-4.07,1.64-1.64,2.45-1.64,4.07v39.99ZM130.51,147.85c0,1.62.55,2.98,1.64,4.07,1.09,1.1,2.45,1.64,4.07,1.64s2.98-.55,4.07-1.64c1.1-1.1,1.64-2.45,1.64-4.07v-39.99c0-1.62-.55-2.98-1.64-4.07-1.1-1.09-2.45-1.64-4.07-1.64s-2.98.55-4.07,1.64c-1.09,1.09-1.64,2.45-1.64,4.07v39.99Z"/>
</svg>