<?xml version="1.0" encoding="UTF-8"?>
<svg id="Ebene_1" data-name="Ebene 1" xmlns="http://www.w3.org/2000/svg" viewBox="0 0 228.66 228.54">
  <defs>
    <style>
      .cls-1 {
        fill: #fff;
        stroke-width: 0px;
      }
    </style>
  </defs>
  <path class="cls-1" d="M145.98,166.49c-2.34,0-3.55,2.65-3.55,5.86s1.31,5.68,3.55,5.68,3.51-2.55,3.51-5.88c0-2.92-1.17-5.67-3.51-5.67Z"/>
  <path class="cls-1" d="M114.33,0C51.19,0,0,51.16,0,114.27s51.19,114.27,114.33,114.27,114.33-51.16,114.33-114.27S177.48,0,114.33,0ZM113.76,44.44h25.38v29.19h-25.38v-29.19ZM75.43,78.95h25.38v25.48h-25.38v-25.48ZM139.14,138.54c.12,9.91-2.7,19.62-8.1,27.92-5.33,8.06-15.62,17.64-34.66,17.64-20.74,0-32.82-9.8-39.35-15.17l16.01-19.74c6.37,5.19,12.5,9.47,23.43,9.47,8.28,0,11.58-3.37,13.51-6.31,2.63-4.08,3.99-8.86,3.91-13.72l-.14-41.25h25.38v41.17ZM145.84,180.49c-3.85,0-6.37-3.47-6.37-8.08s2.6-8.25,6.58-8.25,6.39,3.59,6.39,7.98c0,5.43-2.75,8.35-6.6,8.35ZM157.48,180.24h-2.81v-15.84h2.81v15.84ZM171.63,180.24h-2.91l-3.4-6.67c-.9-1.75-1.7-3.55-2.4-5.39,0,1.96.14,4.18.14,6.9v5.14l-2.54.02v-15.84h3.12l3.36,6.53c.86,1.71,1.63,3.46,2.3,5.25-.18-1.96-.25-4.21-.25-6.72v-5.06h2.58v15.84Z"/>
</svg>