<?xml version="1.0" encoding="UTF-8"?>
<svg xmlns="http://www.w3.org/2000/svg" version="1.1" viewBox="0 0 107.7 107.7">
  <defs>
    <style>
      .cls-1 {
        fill: #a8a8a8;
      }

      .cls-2 {
        display: none;
      }
    </style>
  </defs>
  <!-- Generator: Adobe Illustrator 28.7.0, SVG Export Plug-In . SVG Version: 1.2.0 Build 136)  -->
  <g>
    <g id="help_icon" class="cls-2">
      <path class="cls-1" d="M53.6,86.2c1.9,0,3.5-.7,4.8-1.9,1.3-1.3,2-2.9,2-4.8s-.7-3.5-2-4.8c-1.3-1.3-2.9-1.9-4.8-1.9s-3.5.7-4.8,1.9c-1.3,1.3-2,2.9-2,4.8s.7,3.5,2,4.8,2.9,1.9,4.8,1.9ZM54.4,30.7c2.2,0,4.2.7,5.9,2.2,1.7,1.4,2.5,3.2,2.5,5.4s-.6,3.7-1.8,5.2-2.6,3-4.1,4.3c-2.1,1.8-3.9,3.8-5.5,5.9-1.6,2.2-2.4,4.6-2.4,7.3s.5,2.3,1.4,3.2c.9.8,2,1.3,3.3,1.3s2.5-.4,3.4-1.3,1.5-2,1.8-3.4c.4-1.9,1.2-3.6,2.4-5,1.3-1.5,2.6-2.9,4-4.2,2.1-2,3.8-4.1,5.3-6.5,1.5-2.3,2.2-4.9,2.2-7.8,0-4.6-1.9-8.3-5.6-11.2s-8.1-4.4-13-4.4-6.7.7-9.8,2.1c-3.1,1.4-5.5,3.6-7.1,6.6-.6,1.1-.8,2.2-.6,3.4s.8,2.1,1.8,2.8c1.3.7,2.6.9,3.9.7s2.5-1,3.4-2.3c1-1.3,2.2-2.4,3.7-3.1s3-1.1,4.7-1.1h0ZM103.5,32.9c-2.8-6.5-6.7-12.2-11.5-17.1-4.8-4.9-10.5-8.7-17.1-11.5S61.3,0,53.9,0s-14.5,1.4-21,4.2c-6.5,2.8-12.2,6.7-17.1,11.5-4.9,4.8-8.7,10.5-11.5,17.1S0,46.4,0,53.9s1.4,14.5,4.2,21c2.8,6.5,6.7,12.2,11.5,17.1,4.8,4.9,10.5,8.7,17.1,11.5,6.5,2.8,13.6,4.2,21,4.2s14.5-1.4,21-4.2,12.2-6.7,17.1-11.5c4.9-4.8,8.7-10.5,11.5-17.1s4.2-13.6,4.2-21-1.4-14.5-4.2-21ZM87.5,87.5c-9.2,9.2-20.4,13.8-33.7,13.8s-24.5-4.6-33.7-13.8c-9.2-9.2-13.8-20.4-13.8-33.7s4.6-24.5,13.8-33.7c9.2-9.2,20.4-13.8,33.7-13.8s24.5,4.6,33.7,13.8c9.2,9.2,13.8,20.4,13.8,33.7s-4.6,24.5-13.8,33.7Z"/>
    </g>
    <g id="privacy_icon" class="cls-2">
      <path class="cls-1" d="M103.5,32.9c-2.8-6.5-6.7-12.2-11.5-17.1-4.8-4.9-10.5-8.7-17.1-11.5S61.3,0,53.9,0s-14.5,1.4-21,4.2c-6.5,2.8-12.2,6.7-17.1,11.5-4.9,4.8-8.7,10.5-11.5,17.1S0,46.4,0,53.9s1.4,14.5,4.2,21c2.8,6.5,6.7,12.2,11.5,17.1,4.8,4.9,10.5,8.7,17.1,11.5,6.5,2.8,13.6,4.2,21,4.2s14.5-1.4,21-4.2,12.2-6.7,17.1-11.5c4.9-4.8,8.7-10.5,11.5-17.1s4.2-13.6,4.2-21-1.4-14.5-4.2-21ZM87.5,87.5c-9.2,9.2-20.4,13.8-33.7,13.8s-24.5-4.6-33.7-13.8c-9.2-9.2-13.8-20.4-13.8-33.7s4.6-24.5,13.8-33.7c9.2-9.2,20.4-13.8,33.7-13.8s24.5,4.6,33.7,13.8c9.2,9.2,13.8,20.4,13.8,33.7s-4.6,24.5-13.8,33.7Z"/>
      <path class="cls-1" d="M68.8,74.3h-30c-.4-.1-.9-.2-1.3-.4-1.6-.8-2.4-2.2-2.4-4,0-8.4,0-16.8,0-25.3,0-1.2.3-1.5,1.5-1.5.9,0,1.7,0,2.7,0,0-1.3,0-2.6,0-3.9,0-4,1.3-7.5,4.1-10.3,3.8-3.9,8.5-5.3,13.8-4.1,6.4,1.4,11.1,7.2,11.2,13.9,0,1.3,0,2.6,0,3.9,0,.2,0,.3,0,.5,1,0,2,0,2.9,0,.9,0,1.3.4,1.3,1.2,0,8.6,0,17.1,0,25.7,0,1.4-.5,2.6-1.7,3.4-.6.4-1.3.6-2,.8ZM62.1,43.1c0-1.5,0-3,0-4.4,0-1.8-.6-3.4-1.7-4.8-2.1-2.6-4.9-3.7-8.2-3.1-3.3.7-5.5,2.7-6.4,6-.6,2-.2,4.1-.3,6.2,0,0,0,0,0,0h16.5ZM53.8,66c.6,0,1.2,0,1.9,0,1,0,1.4-.5,1.3-1.5-.2-1.8-.4-3.5-.6-5.3,0-.1,0-.4.2-.4,1.1-1,1.6-2.2,1.4-3.7-.2-2.4-2.8-4.1-5.1-3.5-1.7.4-2.7,1.5-3.1,3.2-.3,1.6.1,2.9,1.4,4,.1.1.2.3.2.5-.2,1.8-.4,3.6-.6,5.4,0,.9.3,1.4,1.2,1.4.6,0,1.2,0,1.9,0Z"/>
    </g>
    <g id="Ebene_4">
      <path class="cls-1" d="M63.8,61.6c2.4-1.5,3.8-3.6,3.8-6.4.1-1.2,0-2.3-.4-3.4-.8-2.7-2.7-4.3-5.1-5.5-2.2-1.1-4.6-1.7-6.9-2.3-1.9-.5-3.9-1-5.7-2.1-1.4-.9-2.2-2.1-2.1-3.8.1-1.6,1-2.8,2.5-3.5,2.4-1.1,5-1.2,7.4-.2,2.1.8,3.2,2.4,3.4,4.6,0,.7.2.9,1,.9,1.3,0,2.6,0,3.9,0s1.5,0,1.4-1.4c-.4-3.5-1.9-6.3-5.1-7.9-4.7-2.3-9.7-2.3-14.5-.5-6.8,2.5-8.2,10.3-3,15.4.4.4,0,.4-.2.6-3.2,2.1-4.5,5.5-3.5,9.2,0,.3.1.6.2.9.9,2.4,2.6,3.9,4.8,5,2.4,1.3,5,2,7.6,2.8,1.9.6,3.7,1.1,5.4,2.2.8.5,1.5,1.2,1.8,2.2.5,1.9-.4,3.6-2.3,4.5-2.3,1-4.7,1.1-7.2.5-2.6-.7-4.3-2.3-4.5-5.1,0-.4-.2-.3-.5-.3-1.7,0-3.5,0-5.2,0-.5,0-.6.2-.5.6.3,4.5,2.8,7.8,7,9.2,2.5.9,5.1,1.1,7.8,1,2.7-.1,5.2-.6,7.5-2,5.6-3.5,5.2-11.4,1.1-14.4-.4-.3-.2-.4.1-.6ZM59.1,59.3c-.3.2-.5.2-.9.1-2.6-.9-5.2-1.6-7.7-2.5-1.1-.4-2.1-.9-3-1.7-1.5-1.7-1.2-4.9.5-6.3.7-.6,1.3-.8,2.3-.5,2.1.7,4.2,1.2,6.3,2,1,.4,1.9.8,2.8,1.4,1.3.8,2.1,1.9,2.2,3.4,0,1.9-.9,3.2-2.4,4.1Z"/>
      <path class="cls-1" d="M103.5,32.9c-2.8-6.5-6.7-12.2-11.5-17.1-4.8-4.9-10.5-8.7-17.1-11.5S61.3,0,53.9,0s-14.5,1.4-21,4.2c-6.5,2.8-12.2,6.7-17.1,11.5-4.9,4.8-8.7,10.5-11.5,17.1S0,46.4,0,53.9s1.4,14.5,4.2,21c2.8,6.5,6.7,12.2,11.5,17.1,4.8,4.9,10.5,8.7,17.1,11.5,6.5,2.8,13.6,4.2,21,4.2s14.5-1.4,21-4.2,12.2-6.7,17.1-11.5c4.9-4.8,8.7-10.5,11.5-17.1s4.2-13.6,4.2-21-1.4-14.5-4.2-21ZM87.5,87.5c-9.2,9.2-20.4,13.8-33.7,13.8s-24.5-4.6-33.7-13.8c-9.2-9.2-13.8-20.4-13.8-33.7s4.6-24.5,13.8-33.7c9.2-9.2,20.4-13.8,33.7-13.8s24.5,4.6,33.7,13.8c9.2,9.2,13.8,20.4,13.8,33.7s-4.6,24.5-13.8,33.7Z"/>
    </g>
    <g id="Ebene_3" class="cls-2">
      <path class="cls-1" d="M53.9.3C24.3.3.3,24.3.3,53.9s24,53.6,53.6,53.6,53.6-24,53.6-53.6S83.4.3,53.9.3ZM71.2,93.8c-.8-2.1-2.4-7-2.5-7.4-1-3-1.4-6-1-9.1.6-5.3,2.2-10.5,3.7-15.6.2-.7.4-1.3.5-2,.5-3.3,2-6.1,3.8-8.8,1.4-2.1,2.7-4.3,3.9-6.5.5-.8.7-1.8.9-2.7.2-.7,0-1.5-.8-1.9-.7-.4-1.5-.3-2,.2-.7.7-1.3,1.4-1.8,2.2-2,3.3-4.7,6-7.7,8.4-1.1.9-1.6.7-1.8-.7,0-.6,0-1.2.1-1.7,1.5-5.5,2.4-11.2,2.9-16.9.1-1.1,0-2.3-.1-3.5-.2-1.2-.9-1.8-2-1.8-1.4,0-2.2.4-2.5,1.7-.4,1.9-.5,3.9-.9,5.9-1,4.5-2.2,9-3.3,13.5,0,0,0,.1,0,.2-.3.6-.4,1.4-1.2,1.3-.9-.1-1-1-1-1.7,0-1.5,0-3.1-.2-4.6-.5-6.3-.9-12.6-1.5-18.9,0-.8-.2-1.7-.5-2.5-.4-1.1-1.1-1.5-2.2-1.3-2.2.4-3.3,1.6-3.3,4.2,0,3.7,0,7.3,0,11,.1,3.5.4,7,.5,10.5,0,.7,0,1.3-.1,2,0,.6-.5.8-1,.4-.4-.4-.7-.9-1-1.3-1.2-2.2-1.5-4.6-2.1-7-1.1-4-2.2-8-3.3-12,0-.3-.2-.5-.3-.8-.3-.9-.8-1.6-1.9-1.6-1.2,0-2.2.4-2.8,1.5-.7,1.2-.7,2.6-.5,3.9.6,3.6,1.3,7.2,1.9,10.8.8,4.8,1.8,9.5,1.6,14.4,0,1.3-.4,2.7-1,3.9-.8,1.8-2.4,2.2-4,1-.6-.4-1.1-1-1.5-1.7-.4-.6-.6-1.3-.9-2-1.7-4-4.8-5.8-9.1-5.2-1,.1-2.1.4-3,.9-1.5.8-1.6,2.1-.3,3.1,1.5,1.1,3.1,2.1,4.7,3.2.6.4,1.3.9,1.7,1.4.4.4.5,1.1.8,1.6.3.8.5,1.6,1,2.3,1.5,2,2.7,4.2,3.4,6.6.4,1.3,1.3,2.2,2.6,2.8,3.2,1.5,5.8,3.8,8.2,6.3.3.3.5.6.6.9.8,1.7,4.3,12.9,5.7,16.7-22.5-1.7-40.3-20.5-40.3-43.5S29.8,10.3,53.9,10.3s43.6,19.6,43.6,43.6-10.8,33.3-26.2,40Z"/>
    </g>
  </g>
</svg>