<?xml version="1.0" encoding="UTF-8"?>
<svg id="Ebene_1" data-name="Ebene 1" xmlns="http://www.w3.org/2000/svg" viewBox="0 0 107.74 107.74">
  <defs>
    <style>
      .cls-1 {
        fill: #a8a8a8;
        stroke-width: 0px;
      }
    </style>
  </defs>
  <path class="cls-1" d="M53.6,86.2c1.89,0,3.48-.65,4.78-1.95,1.3-1.3,1.95-2.9,1.95-4.78s-.65-3.48-1.95-4.78c-1.3-1.3-2.9-1.95-4.78-1.95s-3.48.65-4.78,1.95c-1.3,1.3-1.95,2.9-1.95,4.78s.65,3.48,1.95,4.78,2.9,1.95,4.78,1.95ZM53.87,107.74c-7.45,0-14.46-1.41-21.01-4.24-6.55-2.83-12.26-6.67-17.1-11.52-4.85-4.85-8.69-10.55-11.52-17.1-2.83-6.55-4.24-13.56-4.24-21.01s1.41-14.46,4.24-21.01c2.83-6.55,6.67-12.26,11.52-17.1,4.85-4.85,10.55-8.69,17.1-11.52C39.42,1.41,46.42,0,53.87,0s14.46,1.41,21.01,4.24c6.55,2.83,12.26,6.67,17.1,11.52,4.85,4.85,8.69,10.55,11.52,17.1,2.83,6.55,4.24,13.56,4.24,21.01s-1.41,14.46-4.24,21.01c-2.83,6.55-6.67,12.26-11.52,17.1-4.85,4.85-10.55,8.69-17.1,11.52-6.55,2.83-13.56,4.24-21.01,4.24ZM53.87,96.97c12.03,0,22.22-4.18,30.57-12.53,8.35-8.35,12.53-18.54,12.53-30.57s-4.18-22.22-12.53-30.57c-8.35-8.35-18.54-12.53-30.57-12.53s-22.22,4.18-30.57,12.53c-8.35,8.35-12.53,18.54-12.53,30.57s4.18,22.22,12.53,30.57c8.35,8.35,18.54,12.53,30.57,12.53ZM54.41,30.71c2.24,0,4.2.72,5.86,2.15,1.66,1.44,2.49,3.23,2.49,5.39,0,1.98-.61,3.73-1.82,5.25s-2.58,2.96-4.11,4.31c-2.06,1.8-3.88,3.77-5.45,5.93-1.57,2.15-2.36,4.58-2.36,7.27,0,1.26.47,2.31,1.41,3.17.94.85,2.04,1.28,3.3,1.28,1.35,0,2.49-.45,3.43-1.35.94-.9,1.55-2.02,1.82-3.37.36-1.89,1.17-3.57,2.42-5.05,1.26-1.48,2.6-2.9,4.04-4.24,2.06-1.98,3.84-4.13,5.32-6.46,1.48-2.33,2.22-4.94,2.22-7.81,0-4.58-1.86-8.33-5.59-11.25s-8.06-4.38-13-4.38c-3.41,0-6.67.72-9.76,2.15-3.1,1.44-5.45,3.64-7.07,6.6-.63,1.08-.83,2.22-.61,3.43.22,1.21.83,2.13,1.82,2.76,1.26.72,2.56.94,3.91.67,1.35-.27,2.47-1.03,3.37-2.29.99-1.35,2.22-2.38,3.7-3.1,1.48-.72,3.03-1.08,4.65-1.08Z"/>
</svg>