<?xml version="1.0" encoding="UTF-8"?>
<svg id="Ebene_1" data-name="Ebene 1" xmlns="http://www.w3.org/2000/svg" viewBox="0 0 250 250">
  <defs>
    <style>
      .cls-1, .cls-2 {
        fill: #1f2833;
      }

      .cls-1, .cls-2, .cls-3, .cls-4 {
        stroke-width: 0px;
      }

      .cls-2 {
        fill-rule: evenodd;
      }

      .cls-3 {
        fill: #2a3647;
      }

      .cls-4 {
        fill: #fff;
      }
    </style>
  </defs>
  <path class="cls-3" d="M214,125c0,49.15-39.85,89-89,89-7.55,0-15.08-.95-22.39-2.84-.36-.09-.71-.19-1.07-.29-37.77-10.29-65.54-44.84-65.54-85.87,0-49.15,39.85-89,89-89,39.11,0,72.33,25.23,84.27,60.29l.2.63c3.01,9.06,4.53,18.54,4.53,28.08Z"/>
  <path class="cls-1" d="M214,125c0,49.15-39.85,89-89,89-7.55,0-15.08-.95-22.39-2.84-.36-.09-.71-.19-1.07-.29l-38.49-34.18,123.9-103.38,22.53,23.61c3.01,9.06,4.53,18.54,4.53,28.08Z"/>
  <path class="cls-4" d="M182.72,71.4h-115.45c-3.05,0-5.53,2.48-5.53,5.53v96.14c0,3.05,2.48,5.53,5.53,5.53h115.45c3.05,0,5.53-2.48,5.53-5.53v-96.14c0-3.05-2.48-5.53-5.53-5.53Z"/>
  <path class="cls-2" d="M68.68,93.02c0-.56.45-1.01,1.01-1.01h108.01c.56,0,1.01.45,1.01,1.01s-.45,1.01-1.01,1.01h-108.01c-.56,0-1.01-.45-1.01-1.01Z"/>
  <path class="cls-2" d="M93.37,75.72c.56,0,1.01.45,1.01,1.01v97.85c0,.56-.45,1.01-1.01,1.01s-1.01-.45-1.01-1.01v-97.85c0-.56.45-1.01,1.01-1.01Z"/>
  <path class="cls-2" d="M125,75.72c.56,0,1.01.45,1.01,1.01v97.85c0,.56-.45,1.01-1.01,1.01s-1.01-.45-1.01-1.01v-97.85c0-.56.45-1.01,1.01-1.01Z"/>
  <path class="cls-2" d="M156.63,75.12c.56,0,1.01.45,1.01,1.01v97.85c0,.56-.45,1.01-1.01,1.01s-1.01-.45-1.01-1.01v-97.85c0-.56.45-1.01,1.01-1.01Z"/>
  <path class="cls-2" d="M70.67,83.37c0-.56.45-1.01,1.01-1.01h11.77c.56,0,1.01.45,1.01,1.01s-.45,1.01-1.01,1.01h-11.77c-.56,0-1.01-.45-1.01-1.01Z"/>
  <path class="cls-2" d="M165.55,83.37c0-.56.45-1.01,1.01-1.01h11.77c.56,0,1.01.45,1.01,1.01s-.45,1.01-1.01,1.01h-11.77c-.56,0-1.01-.45-1.01-1.01Z"/>
  <path class="cls-2" d="M133.93,83.37c0-.56.45-1.01,1.01-1.01h11.77c.56,0,1.01.45,1.01,1.01s-.45,1.01-1.01,1.01h-11.77c-.56,0-1.01-.45-1.01-1.01Z"/>
  <path class="cls-2" d="M102.3,83.37c0-.56.45-1.01,1.01-1.01h11.77c.56,0,1.01.45,1.01,1.01s-.45,1.01-1.01,1.01h-11.77c-.56,0-1.01-.45-1.01-1.01Z"/>
  <path class="cls-4" d="M115.48,127.41h-12.74c-1.37,0-2.48,1.11-2.48,2.48v12.74c0,1.37,1.11,2.48,2.48,2.48h12.74c1.37,0,2.48-1.11,2.48-2.48v-12.74c0-1.37-1.11-2.48-2.48-2.48Z"/>
  <path class="cls-2" d="M102.74,128.42c-.81,0-1.47.66-1.47,1.47v12.74c0,.81.66,1.47,1.47,1.47h12.74c.81,0,1.47-.66,1.47-1.47v-12.74c0-.81-.66-1.47-1.47-1.47h-12.74ZM99.26,129.89c0-1.92,1.56-3.48,3.48-3.48h12.74c1.92,0,3.48,1.56,3.48,3.48v12.74c0,1.92-1.56,3.48-3.48,3.48h-12.74c-1.92,0-3.48-1.56-3.48-3.48v-12.74Z"/>
  <path class="cls-4" d="M115.48,103.68h-12.74c-1.37,0-2.48,1.11-2.48,2.48v12.74c0,1.37,1.11,2.48,2.48,2.48h12.74c1.37,0,2.48-1.11,2.48-2.48v-12.74c0-1.37-1.11-2.48-2.48-2.48Z"/>
  <path class="cls-2" d="M102.74,104.69c-.81,0-1.47.66-1.47,1.47v12.74c0,.81.66,1.47,1.47,1.47h12.74c.81,0,1.47-.66,1.47-1.47v-12.74c0-.81-.66-1.47-1.47-1.47h-12.74ZM99.26,106.16c0-1.92,1.56-3.48,3.48-3.48h12.74c1.92,0,3.48,1.56,3.48,3.48v12.74c0,1.92-1.56,3.48-3.48,3.48h-12.74c-1.92,0-3.48-1.56-3.48-3.48v-12.74Z"/>
  <path class="cls-2" d="M166.09,104.69c-.81,0-1.47.66-1.47,1.47v12.74c0,.81.66,1.47,1.47,1.47h12.74c.81,0,1.47-.66,1.47-1.47v-12.74c0-.81-.66-1.47-1.47-1.47h-12.74ZM162.61,106.16c0-1.92,1.56-3.48,3.48-3.48h12.74c1.92,0,3.48,1.56,3.48,3.48v12.74c0,1.92-1.56,3.48-3.48,3.48h-12.74c-1.92,0-3.48-1.56-3.48-3.48v-12.74Z"/>
  <path class="cls-2" d="M72.17,104.69c-.81,0-1.47.66-1.47,1.47v12.74c0,.81.66,1.47,1.47,1.47h12.74c.81,0,1.47-.66,1.47-1.47v-12.74c0-.81-.66-1.47-1.47-1.47h-12.74ZM68.68,106.16c0-1.92,1.56-3.48,3.48-3.48h12.74c1.92,0,3.48,1.56,3.48,3.48v12.74c0,1.92-1.56,3.48-3.48,3.48h-12.74c-1.92,0-3.48-1.56-3.48-3.48v-12.74Z"/>
</svg>