<?xml version="1.0" encoding="UTF-8"?>
<svg id="Ebene_1" data-name="Ebene 1" xmlns="http://www.w3.org/2000/svg" viewBox="0 0 177.64 178">
  <defs>
    <style>
      .cls-1 {
        fill: #1f2833;
      }

      .cls-1, .cls-2, .cls-3, .cls-4 {
        stroke-width: 0px;
      }

      .cls-2 {
        fill-rule: evenodd;
      }

      .cls-2, .cls-3 {
        fill: #2a3647;
      }

      .cls-4 {
        fill: #fff;
      }
    </style>
  </defs>
  <path class="cls-3" d="M177.64,89c0,6.85-.78,13.67-2.33,20.34-7.43,31.87-31.96,57.15-63.36,65.62-14.89,3.99-30.55,4.06-45.47.2-.36-.09-.71-.19-1.07-.29C27.71,164.58,0,130.03,0,89,0,39.85,39.76,0,88.82,0c39.03,0,72.18,25.23,84.1,60.29l.2.63c3,9.06,4.53,18.54,4.52,28.08Z"/>
  <path class="cls-1" d="M175.31,109.34c-7.43,31.87-31.96,57.15-63.36,65.62-9.61-9.08-19.21-18.16-28.8-27.25-5.75-5.43-11.5-10.87-17.25-16.31-.79-.64-1.42-1.46-1.4-2.58v-16.45c-6.26-5.92-12.53-11.85-18.8-17.77-27.17-23.67,9.78-58.84,32.85-30.99l10.81,10.23c4.73-5.48,9.13,1.32,12.73,4.4,4.84,4.57,9.67,9.14,14.5,13.72,5.09.12,6.9-.71,9.73,1.45l-32.52-32.25,17.54,1.84-2.66-16.62,66.62,62.98Z"/>
  <path class="cls-4" d="M74.82,91.91h-7.42c-1.61,0-2.91,1.31-2.91,2.92v33.99c0,1.61,1.3,2.92,2.91,2.92h7.42c1.61,0,2.91-1.31,2.91-2.92v-33.99c0-1.61-1.3-2.92-2.91-2.92Z"/>
  <path class="cls-4" d="M88.76,131.74c10.96,0,19.85-8.91,19.85-19.89s-8.89-19.89-19.85-19.89-19.85,8.91-19.85,19.89,8.89,19.89,19.85,19.89Z"/>
  <path class="cls-4" d="M119.89,131.73h-29.81c-1.32,0-2.58-.52-3.51-1.46-.93-.93-1.45-2.2-1.45-3.52s.52-2.58,1.45-3.52c.93-.93,2.19-1.46,3.51-1.46h29.81c1.32,0,2.58.52,3.51,1.46.93.93,1.45,2.2,1.45,3.52s-.52,2.58-1.45,3.52c-.93.93-2.19,1.46-3.51,1.46Z"/>
  <path class="cls-4" d="M122.8,121.79h-29.81c-.66.01-1.32-.11-1.93-.35-.61-.24-1.17-.61-1.64-1.07-.47-.46-.85-1.02-1.1-1.63-.26-.61-.39-1.27-.39-1.93s.13-1.32.39-1.93c.26-.61.63-1.16,1.1-1.63.47-.46,1.03-.83,1.64-1.07.61-.24,1.27-.36,1.93-.35h29.81c.66-.01,1.32.11,1.93.35.61.24,1.17.61,1.64,1.07.47.46.85,1.02,1.1,1.63.26.61.39,1.27.39,1.93s-.13,1.32-.39,1.93c-.26.61-.63,1.16-1.1,1.63-.47.46-1.03.83-1.64,1.07-.61.24-1.27.36-1.93.35Z"/>
  <path class="cls-4" d="M126.08,111.84h-29.81c-1.32,0-2.58-.52-3.51-1.46-.93-.93-1.45-2.2-1.45-3.52s.52-2.58,1.45-3.52c.93-.93,2.19-1.46,3.51-1.46h29.81c1.32,0,2.58.52,3.51,1.46.93.93,1.45,2.2,1.45,3.52s-.52,2.58-1.45,3.52c-.93.93-2.19,1.46-3.51,1.46Z"/>
  <path class="cls-4" d="M122.8,101.89h-29.81c-.66.01-1.32-.11-1.93-.35-.61-.24-1.17-.61-1.64-1.07-.47-.46-.85-1.02-1.1-1.63-.26-.61-.39-1.27-.39-1.93s.13-1.32.39-1.93c.26-.61.63-1.16,1.1-1.63.47-.46,1.03-.83,1.64-1.07.61-.24,1.27-.36,1.93-.35h29.81c.66-.01,1.32.11,1.93.35.61.24,1.17.61,1.64,1.07.47.46.85,1.02,1.1,1.63.26.61.39,1.26.39,1.93s-.13,1.32-.39,1.93c-.26.61-.63,1.16-1.1,1.63-.47.46-1.03.83-1.64,1.07-.61.24-1.27.36-1.93.35Z"/>
  <path class="cls-4" d="M92.79,100.41c-2.5.57-4.28-1.81-6.51-2.53-1.28-.42-2.5-.34-3.59-1.32-.55-.5-.94-1.23-.84-1.97.09-.74.64-1.35,1.27-1.76,4.16-2.76,6.36-5.7,6.3-10.91-.02-2.16-1.23-5.18-.54-7.16.65-1.86,2.75-3.04,4.65-2.96,5.03.23,6.6,7.33,6.56,11.31-.04,3.63-1.35,7.11-2.93,10.33-.74,1.51-1.76,2.98-2.34,4.55-.44,1.19-.55,2.08-2.02,2.42Z"/>
  <path class="cls-4" d="M131.13,90.19c5.15,0,9.32-4.18,9.32-9.34s-4.17-9.34-9.32-9.34-9.32,4.18-9.32,9.34,4.17,9.34,9.32,9.34Z"/>
  <path class="cls-4" d="M108.65,76.02c8.2,0,14.84-6.66,14.84-14.88s-6.65-14.88-14.84-14.88-14.85,6.66-14.85,14.88,6.65,14.88,14.85,14.88Z"/>
  <path class="cls-2" d="M131.06,105.86c.55,0,1,.47.99,1.02-.04,2.91-1.72,4.51-3.31,5.34-.78.41-1.55.64-2.11.77-.28.06-.52.1-.7.13-.09.01-.16.02-.21.03-.03,0-.05,0-.06,0,0,0-.01,0-.02,0h0s0,0,0,0h0s0,0-.08-1l.08,1s-.05,0-.08,0h-19.93c-.55,0-1-.45-1-1.01s.45-1.01,1-1.01h19.89s0,0,0,0c.03,0,.08,0,.14-.02.13-.02.31-.05.53-.1.45-.1,1.04-.28,1.63-.59,1.14-.6,2.2-1.63,2.23-3.59,0-.56.46-1,1.02-.99Z"/>
  <path class="cls-2" d="M77.78,96.34c.55,0,1,.45,1,1.01v28.96c0,.56-.45,1.01-1,1.01s-1-.45-1-1.01v-28.96c0-.56.45-1.01,1-1.01Z"/>
  <path class="cls-2" d="M124.71,125.64c.55,0,1,.45,1,1.01,0,1.42-.36,2.56-.95,3.44-.59.88-1.37,1.45-2.11,1.82-.74.37-1.47.55-2.01.64-.27.05-.5.07-.66.08-.08,0-.15,0-.2.01-.02,0-.04,0-.06,0,0,0-.01,0-.02,0h-.01s0,0,0-1.01v1.01s0,0,0,0h-18.23c-.55,0-1-.45-1-1.01s.45-1.01,1-1.01h18.22s.01,0,.03,0c.03,0,.07,0,.12,0,.11,0,.28-.02.48-.06.41-.07.93-.2,1.44-.46.51-.25.99-.62,1.34-1.14.35-.52.61-1.25.61-2.32,0-.56.45-1.01,1-1.01Z"/>
  <path class="cls-2" d="M127.76,115.81c.55,0,1,.45,1,1.01,0,1.42-.36,2.56-.95,3.44-.59.88-1.37,1.45-2.11,1.82-.74.37-1.47.55-2.01.64-.27.05-.5.07-.66.08-.08,0-.15,0-.2.01-.02,0-.04,0-.06,0h-.03s0,0,0,0h0s0,0,0-1.01v1.01s0,0,0,0h-20.44c-.55,0-1-.45-1-1.01s.45-1.01,1-1.01h20.43s.01,0,.03,0c.03,0,.07,0,.12,0,.11,0,.28-.03.48-.06.41-.07.93-.2,1.44-.46.51-.25.99-.62,1.34-1.14.35-.52.61-1.25.61-2.32,0-.56.45-1.01,1-1.01Z"/>
  <path class="cls-2" d="M127.83,95.91c.55.04.97.52.93,1.08-.22,2.93-1.71,4.47-3.2,5.22-.72.36-1.42.53-1.93.61-.26.04-.48.06-.63.07-.08,0-.14,0-.19,0-.02,0-.04,0-.06,0h-20.44c-.55,0-1-.45-1-1.01s.45-1.01,1-1.01h20.46,0,.02s.06,0,.11,0c.1,0,.25-.02.43-.04.37-.06.85-.18,1.34-.42.91-.46,1.94-1.4,2.1-3.58.04-.55.52-.97,1.08-.93Z"/>
  <path class="cls-4" d="M58.77,97.55c11.92,0,21.58-9.68,21.58-21.62s-9.66-21.62-21.58-21.62-21.58,9.68-21.58,21.62,9.66,21.62,21.58,21.62Z"/>
  <path class="cls-2" d="M58.77,55.31c-11.36,0-20.57,9.23-20.57,20.62s9.21,20.62,20.57,20.62,20.57-9.23,20.57-20.62-9.21-20.62-20.57-20.62ZM36.19,75.92c0-12.5,10.11-22.63,22.58-22.63s22.58,10.13,22.58,22.63-10.11,22.63-22.58,22.63-22.58-10.13-22.58-22.63Z"/>
  <path class="cls-2" d="M66.97,65.58c.49.26.67.87.41,1.36l-10.19,18.98c-.16.3-.46.5-.8.53-.34.03-.67-.12-.88-.38l-5.47-7.01c-.34-.44-.26-1.07.17-1.41.44-.34,1.07-.26,1.41.17l4.52,5.8,9.46-17.62c.26-.49.87-.67,1.36-.41Z"/>
</svg>