<?xml version="1.0" encoding="UTF-8"?>
<svg id="illustration_no_more_tasks" data-name="Ebene 1" xmlns="http://www.w3.org/2000/svg" viewBox="0 0 178 178">
  <defs>
    <style>
      .cls-1, .cls-2 {
        fill: #1f2833;
      }

      .cls-1, .cls-2, .cls-3, .cls-4, .cls-5, .cls-6, .cls-7 {
        stroke-width: 0px;
      }

      .cls-2 {
        fill-rule: evenodd;
      }

      .cls-3 {
        fill: #e6e6e6;
      }

      .cls-4 {
        fill: #42526e;
      }

      .cls-5 {
        fill: #2a3647;
      }

      .cls-6 {
        fill: #fff;
      }

      .cls-7 {
        fill: #d2e3ff;
      }
    </style>
  </defs>
  <path class="cls-5" d="M178,89c0,3.22-.17,6.44-.52,9.64-4.8,44.62-42.59,79.36-88.48,79.36-2.07,0-4.12-.07-6.15-.2-5.48-.37-10.92-1.25-16.24-2.63-.36-.09-.71-.19-1.07-.29C27.77,164.58,0,130.03,0,89,0,39.85,39.85,0,89,0c39.11,0,72.33,25.23,84.27,60.29l.2.63c3.01,9.06,4.53,18.54,4.53,28.08Z"/>
  <path class="cls-1" d="M177.48,98.64c-4.8,44.62-42.59,79.36-88.48,79.36-2.07,0-4.12-.07-6.15-.2l-39.16-42.14L126.91,43.69l50.57,54.95Z"/>
  <path class="cls-7" d="M50.11,39.92l-9.14,92.05c-.18,1.77,1.12,3.35,2.89,3.53l73.04,7.25c1.77.18,3.35-1.12,3.53-2.89l9.14-92.05c.18-1.77-1.12-3.35-2.89-3.53l-73.04-7.25c-1.77-.18-3.35,1.12-3.53,2.89Z"/>
  <path class="cls-6" d="M122.43,51.55l-6.88,69.32c-12.27,8.38-21.66,9.97-23.57,10.22h-.02c-.11.03-.22.04-.34.04l-43.36-4.31,8.13-81.83,66.03,6.57Z"/>
  <path class="cls-3" d="M115.55,120.87c-13.75,11.3-21.66,9.97-23.57,10.22,2.18-.48,6.84-7.5,9.25-15.55,0,0,6.76,7.14,14.32,5.33Z"/>
  <path class="cls-6" d="M85.64,102.79c9.16,0,16.59-7.43,16.59-16.59s-7.43-16.59-16.59-16.59-16.59,7.43-16.59,16.59,7.43,16.59,16.59,16.59Z"/>
  <path class="cls-2" d="M85.64,70.37c-8.74,0-15.82,7.08-15.82,15.82s7.08,15.82,15.82,15.82,15.82-7.08,15.82-15.82-7.08-15.82-15.82-15.82ZM68.28,86.19c0-9.59,7.77-17.36,17.36-17.36s17.36,7.77,17.36,17.36-7.77,17.36-17.36,17.36-17.36-7.77-17.36-17.36Z"/>
  <path class="cls-2" d="M92.71,78.92c.35.24.45.72.21,1.07l-9.23,13.72c-.15.22-.39.34-.65.34-.26,0-.5-.14-.64-.36l-3.65-5.77c-.23-.36-.12-.84.24-1.06.36-.23.84-.12,1.06.24l3.02,4.77,8.57-12.74c.24-.35.72-.45,1.07-.21Z"/>
  <path class="cls-5" d="M108.27,71.66c5.16,0,9.34-4.18,9.34-9.34s-4.18-9.34-9.34-9.34-9.34,4.18-9.34,9.34,4.18,9.34,9.34,9.34Z"/>
  <path class="cls-5" d="M64.74,111.88c3.34,0,6.05-2.71,6.05-6.05s-2.71-6.05-6.05-6.05-6.05,2.71-6.05,6.05,2.71,6.05,6.05,6.05Z"/>
  <path class="cls-5" d="M67.67,77c8.22,0,14.88-6.66,14.88-14.88s-6.66-14.88-14.88-14.88-14.88,6.66-14.88,14.88,6.66,14.88,14.88,14.88Z"/>
  <path class="cls-3" d="M91.95,131.09c-.11.03-.22.04-.34.04,0,0,.11,0,.34-.04Z"/>
  <path class="cls-4" d="M131.13,26.57c.08,0,.16-.03.21-.09.06-.06.09-.13.09-.21s-.03-.16-.09-.21c-.06-.06-.13-.09-.21-.09s-.16.03-.21.09c-.06.06-.09.13-.09.21s.03.16.09.21.13.09.21.09Z"/>
  <path class="cls-7" d="M100.26,41.5l-.63-.06c.25-2.51-.51-5.01-2.1-6.95-1.6-1.95-3.9-3.18-6.41-3.43s-5.01.51-6.95,2.1c-1.95,1.6-3.18,3.9-3.43,6.41l-.62-.06c-1.8-.18-3.6.37-5,1.52-1.4,1.15-2.29,2.8-2.47,4.61l-.06.58c-.18,1.8.37,3.6,1.52,5,1.15,1.4,2.81,2.29,4.61,2.47l20.14,2.01c1.8.18,3.6-.37,5-1.51,1.4-1.15,2.29-2.8,2.47-4.61l.06-.58c.18-1.8-.36-3.61-1.51-5.01-1.15-1.4-2.81-2.29-4.61-2.47ZM90.28,39.66c-.4-.04-.77-.19-1.08-.45s-.53-.59-.65-.97c-.12-.38-.12-.79,0-1.17.11-.38.34-.72.65-.97.31-.25.68-.41,1.08-.45.4-.04.79.04,1.15.23.35.19.64.47.83.82.19.35.27.75.23,1.14-.03.26-.1.52-.23.76-.12.23-.29.44-.5.61-.2.17-.44.29-.7.37-.25.08-.52.1-.78.07h0Z"/>
</svg>