<?xml version="1.0" encoding="UTF-8"?>
<svg id="illustration_awaiting_feedback" data-name="Ebene 1" xmlns="http://www.w3.org/2000/svg" viewBox="0 0 176.98 176.98">
  <defs>
    <style>
      .cls-1, .cls-2 {
        fill: #1f2833;
      }

      .cls-1, .cls-2, .cls-3, .cls-4, .cls-5 {
        stroke-width: 0px;
      }

      .cls-2, .cls-3 {
        fill-rule: evenodd;
      }

      .cls-3, .cls-4 {
        fill: #2a3647;
      }

      .cls-5 {
        fill: #fff;
      }
    </style>
  </defs>
  <path class="cls-4" d="M176.98,88.49v1.1c-.57,46.86-37.56,84.95-83.97,87.28-1.49.08-3,.11-4.51.11h-.19c-7.45-.01-14.86-.96-22.08-2.82-.36-.09-.71-.19-1.06-.28C27.61,163.64,0,129.28,0,88.49,0,39.62,39.62,0,88.49,0c38.89,0,71.91,25.08,83.79,59.95l.2.62c2.84,8.57,4.36,17.52,4.48,26.55.01.46.02.91.02,1.37Z"/>
  <path class="cls-1" d="M176.98,88.49v1.1c-.57,46.86-37.56,84.95-83.97,87.28l-52.11-59.78,67.59-47.39,15.4-18,1.2-1.6,2.4-9.2,49.48,46.22c0,.46.01.91.01,1.37Z"/>
  <path class="cls-5" d="M131.81,57.69H45.17c-2.91,0-5.27,2.36-5.27,5.27v51.05c0,2.91,2.36,5.27,5.27,5.27h86.65c2.91,0,5.27-2.36,5.27-5.27v-51.05c0-2.91-2.36-5.27-5.27-5.27Z"/>
  <path class="cls-5" d="M95.09,118.84l-25.91,17.01c-.18.12-.4.19-.62.2-.22,0-.44-.04-.63-.15-.19-.1-.35-.26-.47-.45-.11-.19-.17-.4-.17-.62v-26.34l27.8,10.35Z"/>
  <path class="cls-3" d="M49.89,72.89c0-.55.45-1,1-1h72.55c.55,0,1,.45,1,1s-.45,1-1,1H50.89c-.55,0-1-.45-1-1Z"/>
  <path class="cls-3" d="M49.89,104.09c0-.55.45-1,1-1h51.59c.55,0,1,.45,1,1s-.45,1-1,1h-51.59c-.55,0-1-.45-1-1Z"/>
  <path class="cls-3" d="M49.89,88.49c0-.55.45-1,1-1h60.59c.55,0,1,.45,1,1s-.45,1-1,1h-60.59c-.55,0-1-.45-1-1Z"/>
  <path class="cls-5" d="M125.18,51.33l-10.21-6.82-30.63,45.89,10.21,6.82,30.63-45.89Z"/>
  <path class="cls-2" d="M114.18,43.98c.29-.44.88-.55,1.32-.26l10.21,6.82c.44.29.56.88.26,1.32l-30.63,45.89c-.29.44-.88.56-1.32.26l-10.21-6.82c-.44-.29-.55-.88-.26-1.32l30.63-45.89ZM115.23,45.83l-29.57,44.3,8.63,5.76,29.57-44.3-8.63-5.76Z"/>
  <path class="cls-5" d="M123.82,38.25l3.55,2.4c.88.59,1.49,1.51,1.69,2.56.2,1.04-.02,2.12-.61,3l-3.86,5.72-10.19-6.88,3.86-5.72c.59-.88,1.51-1.49,2.56-1.69,1.04-.2,2.12.02,3,.61Z"/>
  <path class="cls-2" d="M123.29,39.04c-.67-.45-1.49-.62-2.29-.47-.79.15-1.49.62-1.95,1.29l-3.33,4.93,8.61,5.81,3.33-4.93c.45-.67.62-1.49.47-2.29-.15-.79-.62-1.49-1.29-1.95l-3.55-2.4ZM120.64,36.7c1.29-.25,2.63.02,3.72.76l3.55,2.4c1.09.74,1.84,1.87,2.09,3.16.25,1.29-.02,2.63-.76,3.72l-3.86,5.72c-.29.44-.89.55-1.32.26l-10.19-6.88c-.44-.29-.55-.89-.26-1.32l3.86-5.72c.74-1.09,1.87-1.84,3.16-2.09Z"/>
  <path class="cls-5" d="M83.58,100.52l.76-10.12,10.21,6.82-9.06,4.6c-.21.11-.45.16-.68.14-.24-.01-.46-.09-.66-.22-.2-.13-.35-.31-.45-.53-.1-.21-.15-.45-.13-.68Z"/>
  <path class="cls-2" d="M83.93,89.54c.3-.15.66-.12.95.06l10.21,6.81c.28.19.44.51.42.85-.02.34-.22.64-.52.79l-9.06,4.6h0c-.36.18-.76.27-1.17.24-.4-.02-.8-.16-1.13-.38-.34-.23-.61-.54-.78-.9-.18-.36-.25-.77-.22-1.17l.76-10.12c.03-.34.23-.64.53-.78ZM85.17,92.09l-.64,8.5h0c0,.07,0,.14.04.2.03.06.07.11.13.15.05.04.12.06.18.06.07,0,.13,0,.19-.04l7.61-3.86-7.5-5.01Z"/>
</svg>