<?xml version="1.0" encoding="UTF-8"?>
<svg id="Ebene_1" data-name="Ebene 1" xmlns="http://www.w3.org/2000/svg" viewBox="0 0 250 250">
  <defs>
    <style>
      .cls-1, .cls-2 {
        fill: #1f2833;
      }

      .cls-1, .cls-2, .cls-3, .cls-4, .cls-5, .cls-6 {
        stroke-width: 0px;
      }

      .cls-2, .cls-4 {
        fill-rule: evenodd;
      }

      .cls-3 {
        fill: #e6e6e6;
      }

      .cls-4, .cls-5 {
        fill: #2a3647;
      }

      .cls-6 {
        fill: #fff;
      }
    </style>
  </defs>
  <path class="cls-5" d="M214,125c0,2.99-.15,5.97-.45,8.94-.02.2-.04.38-.06.58-2.27,21.2-12.08,40.88-27.64,55.45-15.56,14.57-35.84,23.07-57.14,23.95-1.23.05-2.47.08-3.71.08-2.94,0-5.85-.14-8.71-.42-4.61-.45-9.19-1.25-13.68-2.41-.36-.09-.71-.19-1.07-.29-37.77-10.3-65.54-44.85-65.54-85.88,0-49.15,39.85-89,89-89,39.11,0,72.33,25.23,84.27,60.29l.2.63c2.57,7.76,4.06,15.83,4.43,23.99.07,1.35.1,2.72.1,4.09Z"/>
  <path class="cls-1" d="M213.55,133.94c-.02.2-.04.38-.06.58-2.27,21.2-12.08,40.88-27.64,55.45-15.56,14.57-35.84,23.07-57.14,23.95l-40.66-43.13,73.9-91.59,51.6,54.74Z"/>
  <path class="cls-6" d="M161.95,79.21v77.57c-12.67,10.64-22.91,13.44-25,13.92h-.02c-.12.04-.24.07-.37.08h-48.51v-91.57h73.9Z"/>
  <path class="cls-3" d="M136.93,170.71c-.12.04-.24.07-.37.08,0,0,.12-.02.37-.08Z"/>
  <path class="cls-6" d="M107.65,91.18h-10.32c-1.17,0-2.12.95-2.12,2.12v10.32c0,1.17.95,2.12,2.12,2.12h10.32c1.17,0,2.12-.95,2.12-2.12v-10.32c0-1.17-.95-2.12-2.12-2.12Z"/>
  <path class="cls-4" d="M97.33,92.3c-.55,0-1,.45-1,1v10.32c0,.55.45,1,1,1h10.32c.55,0,1-.45,1-1v-10.32c0-.55-.45-1-1-1h-10.32ZM94.09,93.3c0-1.79,1.45-3.24,3.24-3.24h10.32c1.79,0,3.24,1.45,3.24,3.24v10.32c0,1.79-1.45,3.24-3.24,3.24h-10.32c-1.79,0-3.24-1.45-3.24-3.24v-10.32Z"/>
  <path class="cls-6" d="M107.65,117.72h-10.32c-1.17,0-2.12.95-2.12,2.12v10.32c0,1.17.95,2.12,2.12,2.12h10.32c1.17,0,2.12-.95,2.12-2.12v-10.32c0-1.17-.95-2.12-2.12-2.12Z"/>
  <path class="cls-4" d="M97.33,118.84c-.55,0-1,.45-1,1v10.32c0,.55.45,1,1,1h10.32c.55,0,1-.45,1-1v-10.32c0-.55-.45-1-1-1h-10.32ZM94.09,119.84c0-1.79,1.45-3.24,3.24-3.24h10.32c1.79,0,3.24,1.45,3.24,3.24v10.32c0,1.79-1.45,3.24-3.24,3.24h-10.32c-1.79,0-3.24-1.45-3.24-3.24v-10.32Z"/>
  <path class="cls-6" d="M107.65,144.26h-10.32c-1.17,0-2.12.95-2.12,2.12v10.32c0,1.17.95,2.12,2.12,2.12h10.32c1.17,0,2.12-.95,2.12-2.12v-10.32c0-1.17-.95-2.12-2.12-2.12Z"/>
  <path class="cls-4" d="M97.33,145.38c-.55,0-1,.45-1,1v10.32c0,.55.45,1,1,1h10.32c.55,0,1-.45,1-1v-10.32c0-.55-.45-1-1-1h-10.32ZM94.09,146.37c0-1.79,1.45-3.24,3.24-3.24h10.32c1.79,0,3.24,1.45,3.24,3.24v10.32c0,1.79-1.45,3.24-3.24,3.24h-10.32c-1.79,0-3.24-1.45-3.24-3.24v-10.32Z"/>
  <path class="cls-4" d="M114.47,98.54c0-.62.5-1.12,1.12-1.12h36.39c.62,0,1.12.5,1.12,1.12s-.5,1.12-1.12,1.12h-36.39c-.62,0-1.12-.5-1.12-1.12Z"/>
  <path class="cls-4" d="M119.23,105.71c0-.62.5-1.12,1.12-1.12h26.88c.62,0,1.12.5,1.12,1.12s-.5,1.12-1.12,1.12h-26.88c-.62,0-1.12-.5-1.12-1.12Z"/>
  <path class="cls-4" d="M119.18,132.37c0-.62.5-1.12,1.12-1.12h26.88c.62,0,1.12.5,1.12,1.12s-.5,1.12-1.12,1.12h-26.88c-.62,0-1.12-.5-1.12-1.12Z"/>
  <path class="cls-4" d="M119.18,158.8c0-.62.5-1.12,1.12-1.12h26.88c.62,0,1.12.5,1.12,1.12s-.5,1.12-1.12,1.12h-26.88c-.62,0-1.12-.5-1.12-1.12Z"/>
  <path class="cls-4" d="M114.47,124.97c0-.62.5-1.12,1.12-1.12h36.39c.62,0,1.12.5,1.12,1.12s-.5,1.12-1.12,1.12h-36.39c-.62,0-1.12-.5-1.12-1.12Z"/>
  <path class="cls-4" d="M114.47,152.52c0-.62.5-1.12,1.12-1.12h36.39c.62,0,1.12.5,1.12,1.12s-.5,1.12-1.12,1.12h-36.39c-.62,0-1.12-.5-1.12-1.12Z"/>
  <path class="cls-3" d="M161.95,156.78c-13.99,14.03-22.91,13.44-25,13.92,2.36-.77,6.75-9.07,8.54-18.25,0,0,8.29,7.18,16.45,4.33Z"/>
  <path class="cls-6" d="M154.79,97.39l-10.25-6.92-31.07,46.05,10.25,6.92,31.07-46.05Z"/>
  <path class="cls-2" d="M143.75,89.94c.3-.44.89-.55,1.33-.26l10.25,6.92c.44.3.55.89.26,1.33l-31.07,46.05c-.3.44-.89.55-1.33.26l-10.25-6.92c-.44-.3-.55-.89-.26-1.33l31.07-46.05ZM144.8,91.8l-30,44.47,8.66,5.84,30-44.47-8.66-5.84Z"/>
  <path class="cls-6" d="M153.96,83.71l3.57,2.41c.89.6,1.5,1.52,1.7,2.57.2,1.05-.02,2.14-.62,3.02l-3.88,5.76-10.25-6.92,3.88-5.75c.3-.44.67-.81,1.12-1.11.44-.29.94-.49,1.45-.6.52-.1,1.05-.1,1.57,0,.52.11,1.01.31,1.45.61Z"/>
  <path class="cls-2" d="M153.42,84.51c-.33-.23-.71-.38-1.1-.46-.4-.08-.8-.08-1.2,0-.4.08-.77.23-1.11.45-.34.22-.63.51-.85.84l-3.35,4.96,8.66,5.84,3.35-4.96c.46-.67.62-1.5.47-2.3-.16-.8-.62-1.5-1.3-1.96l-3.57-2.41ZM154.49,82.92l3.57,2.41c1.1.74,1.85,1.88,2.11,3.18.25,1.3-.02,2.64-.76,3.74l-3.88,5.76c-.3.44-.89.55-1.33.26l-10.25-6.92c-.44-.3-.55-.89-.26-1.33l3.88-5.75h0c.37-.54.84-1.01,1.38-1.37.55-.36,1.16-.61,1.8-.74.64-.13,1.3-.12,1.95,0,.64.13,1.25.39,1.79.75Z"/>
  <path class="cls-6" d="M113.52,146.39l.77-10.19,10.27,6.86-9.11,4.63c-.21.11-.45.16-.68.14-.24-.01-.46-.09-.66-.22-.2-.13-.35-.31-.46-.53s-.15-.45-.13-.69Z"/>
  <path class="cls-2" d="M113.09,135.72c.31-.15.67-.12.95.06l10.27,6.86c.28.19.44.51.42.85-.02.34-.22.64-.52.8l-9.11,4.63c-.36.18-.77.27-1.17.24-.41-.03-.8-.16-1.14-.39-.34-.23-.61-.54-.79-.91-.18-.37-.25-.77-.22-1.18l.77-10.18c.03-.34.23-.64.54-.79ZM112.74,146.77l.95.08c0,.07,0,.13.04.19.03.06.07.11.13.15.06.04.12.06.19.06.07,0,.13,0,.19-.04,0,0,0,0,0,0l7.65-3.88-7.55-5.04-.65,8.55-.95-.07Z"/>
</svg>