<?xml version="1.0" encoding="UTF-8"?>
<svg id="illustration_in_progress" data-name="Ebene 1" xmlns="http://www.w3.org/2000/svg" viewBox="0 0 177.69 177.68">
  <defs>
    <style>
      .cls-1, .cls-2, .cls-3, .cls-4, .cls-5 {
        stroke-width: 0px;
      }

      .cls-1, .cls-4 {
        fill-rule: evenodd;
      }

      .cls-1, .cls-5 {
        fill: #fff;
      }

      .cls-2 {
        fill: #1f2833;
      }

      .cls-3 {
        fill: #2a3647;
      }

      .cls-4 {
        fill: #42526e;
      }
    </style>
  </defs>
  <path class="cls-3" d="M177.68,88.84v1.1c-.59,48.56-40.13,87.74-88.83,87.74h-.19c-7.48-.01-14.92-.96-22.16-2.83-.36-.09-.71-.19-1.07-.29C27.72,164.29,0,129.8,0,88.84,0,39.78,39.78,0,88.84,0c38.21,0,70.79,24.13,83.33,57.97.27.73.53,1.47.79,2.21l.2.63c3,9.04,4.53,18.51,4.52,28.04Z"/>
  <path class="cls-2" d="M177.68,88.84v1.1c-.59,48.56-40.13,87.74-88.83,87.74h-.19c-3.3,0-6.6-.19-9.88-.56l-51.01-46.92s90.59-34.13,93.16-36.74c2.57-2.61,2.41-62.62,2.41-62.62l17.57.27,31.27,26.86c.27.73.53,1.47.79,2.21l.2.63c3,9.04,4.53,18.51,4.52,28.04Z"/>
  <path class="cls-5" d="M29.87,115.75h23.31c.56,0,1.09.22,1.48.61.39.39.61.93.61,1.48v12.36h-27.51v-12.36c0-.56.22-1.09.61-1.48.39-.39.93-.61,1.48-.61Z"/>
  <path class="cls-5" d="M58.62,93.46h20.82c.89,0,1.74.35,2.36.98.63.63.98,1.48.98,2.36v33.4h-27.51v-33.4c0-.44.09-.87.25-1.28.17-.41.41-.77.72-1.08.31-.31.68-.56,1.08-.72.41-.17.84-.25,1.28-.25Z"/>
  <path class="cls-5" d="M87.02,70.97h19.02c1.13,0,2.2.45,3,1.24.8.8,1.24,1.87,1.24,3v54.99h-27.51v-54.99c0-1.13.45-2.2,1.24-3,.8-.8,1.87-1.24,3-1.24Z"/>
  <path class="cls-5" d="M115.31,56.92h17.47c1.33,0,2.61.53,3.55,1.47.94.94,1.47,2.22,1.47,3.55v67.96c0,.08-.03.16-.09.21-.06.06-.13.09-.21.09h-26.9c-.08,0-.16-.03-.21-.09s-.09-.13-.09-.21V61.94c0-1.33.53-2.61,1.47-3.55.94-.94,2.22-1.47,3.55-1.47Z"/>
  <path class="cls-1" d="M68.03,86.95c.38-.02.7.28.72.66.02.38.03.68.05.88,0,.1.01.18.01.23,0,.03,0,.04,0,.06h0v.02l-.69.05-.69.05c.03.38.36.67.74.64.38-.03.67-.36.64-.74M68.12,88.84l-.69.05h0s0-.02,0-.02c0-.01,0-.03,0-.06,0-.05,0-.13-.02-.24-.01-.21-.03-.51-.05-.9-.02-.38.28-.7.66-.72"/>
  <path class="cls-1" d="M81.22,58.67c-.78-.08-1.5-.08-2.17.01-.38.05-.72-.22-.77-.6-.05-.38.22-.72.6-.77.79-.1,1.62-.11,2.49-.01.38.04.65.38.61.76-.04.38-.38.65-.76.61ZM82.94,58.26c.11-.37.49-.58.85-.47.73.21,1.49.48,2.27.82.35.15.51.56.36.91-.15.35-.56.51-.91.36-.74-.32-1.44-.57-2.11-.76-.37-.11-.58-.49-.47-.85ZM77.34,58.34c.15.35,0,.76-.36.91-.66.29-1.27.66-1.84,1.12-.3.24-.73.2-.97-.1-.24-.3-.2-.73.1-.97.66-.53,1.37-.98,2.16-1.32.35-.15.76,0,.91.36ZM87.29,59.93c.18-.34.6-.46.94-.28.67.36,1.35.77,2.06,1.22.32.21.42.63.21.95-.21.32-.63.42-.95.21-.68-.43-1.34-.82-1.98-1.17-.34-.18-.46-.6-.28-.94ZM73.5,60.97c.3.24.35.67.12.97-.44.56-.85,1.19-1.22,1.86-.18.33-.6.45-.94.27-.33-.18-.45-.6-.27-.94.4-.73.85-1.42,1.35-2.05.24-.3.67-.35.97-.12ZM91.3,62.37c.22-.31.65-.38.96-.16.32.23.65.47.98.72.3.23.37.66.14.97-.23.3-.66.37-.97.14-.32-.24-.64-.48-.96-.7-.31-.22-.38-.65-.16-.96ZM71.05,64.95c.35.14.52.55.38.9-.28.69-.54,1.41-.77,2.16-.11.36-.5.57-.86.46-.36-.11-.57-.5-.46-.86.24-.78.51-1.54.81-2.27.14-.35.55-.52.9-.38ZM69.55,69.4c.37.09.6.46.51.83-.17.74-.33,1.5-.46,2.26-.07.38-.43.63-.8.56-.38-.07-.63-.43-.56-.8.14-.78.3-1.57.48-2.34.09-.37.46-.6.83-.51ZM68.65,74.01c.38.05.64.4.59.77-.1.78-.19,1.55-.26,2.31-.04.38-.37.66-.75.62-.38-.04-.66-.37-.62-.75.07-.78.16-1.57.26-2.36.05-.38.4-.64.77-.59ZM68.16,78.68c.38.02.67.35.65.73-.05.8-.08,1.58-.1,2.32-.01.38-.33.68-.71.67-.38-.01-.68-.33-.67-.71.02-.75.06-1.55.1-2.37.02-.38.35-.67.73-.65ZM67.98,83.37c.38,0,.69.31.69.69,0,.41,0,.79,0,1.16,0,.38-.3.69-.68.7-.38,0-.69-.3-.7-.68,0-.37,0-.77,0-1.18,0-.38.31-.69.69-.69Z"/>
  <path class="cls-1" d="M94.75,63.09c.38,0,.69.32.68.7,0,.38,0,.68,0,.88,0,.1,0,.18,0,.23v.06s0,.02,0,.02h0M94.75,63.09c-.32,0-.6.21-.68.51l.68-.51Z"/>
  <path class="cls-1" d="M108.64,37.16c.04-.38.39-.65.77-.61.93.11,1.85.36,2.74.74.35.15.51.55.37.91-.15.35-.56.51-.91.37-.78-.33-1.57-.55-2.36-.64-.38-.04-.65-.39-.61-.77ZM107.36,37.21c.08.37-.17.74-.54.81-.77.16-1.54.43-2.29.84-.34.18-.75.06-.94-.28-.18-.34-.06-.75.28-.94.87-.47,1.76-.8,2.67-.98.37-.07.74.17.81.54ZM113.61,38.84c.23-.31.66-.37.97-.15.72.53,1.41,1.15,2.07,1.86.26.28.24.72-.04.98-.28.26-.72.24-.98-.04-.6-.65-1.23-1.21-1.87-1.68-.31-.23-.37-.66-.15-.97ZM102.57,39.34c.26.28.24.72-.04.98-.3.28-.59.57-.88.9M102.57,39.34c-.26-.28-.7-.3-.98-.04l.98.04ZM101.59,39.3c-.33.31-.66.64-.98,1l.98-1ZM100.62,40.3h0s0,0,0,0ZM101.65,41.21c-.28.32-.55.66-.81,1.01-.22.31-.66.38-.96.15-.31-.22-.38-.66-.15-.96.28-.39.58-.76.89-1.11M117.39,42.52c.32-.21.74-.13.96.18.49.73.96,1.51,1.39,2.35.17.34.04.76-.3.93-.34.17-.76.04-.93-.3-.41-.79-.84-1.53-1.31-2.21-.21-.32-.13-.74.18-.96ZM99.17,43.53c.34.18.47.59.29.93-.4.77-.76,1.58-1.09,2.42-.14.36-.54.53-.89.39-.35-.14-.53-.54-.39-.89.34-.88.73-1.74,1.15-2.55.18-.34.59-.47.93-.29ZM119.96,47.15c.36-.14.76.04.89.4.16.42.31.84.46,1.28.12.36-.08.75-.44.87s-.75-.08-.87-.44c-.14-.42-.28-.82-.44-1.22-.14-.36.04-.76.4-.89ZM97.04,48.55c.37.11.57.49.46.86-.26.86-.48,1.73-.68,2.6-.08.37-.45.6-.83.52-.37-.08-.6-.45-.52-.83.2-.89.44-1.79.7-2.68.11-.37.49-.57.86-.46ZM95.74,53.85c.38.06.63.42.56.8-.16.92-.29,1.81-.39,2.67-.05.38-.39.65-.77.6-.38-.05-.65-.39-.6-.77.11-.88.24-1.79.4-2.73.06-.38.42-.63.8-.56ZM95,59.26c.38.03.66.37.63.75-.04.47-.07.92-.1,1.34-.02.38-.35.67-.73.65-.38-.02-.67-.35-.65-.73.03-.43.06-.89.1-1.37.03-.38.36-.66.75-.63Z"/>
  <path class="cls-1" d="M120.83,49.57c.37-.1.75.11.85.48.11.39.22.78.32,1.19.09.37-.13.74-.5.84-.37.09-.74-.13-.84-.5-.1-.39-.2-.77-.3-1.14-.1-.37.11-.75.48-.85Z"/>
  <path class="cls-1" d="M42.21,111.8l-.37.02.37-.02c.02.38-.28.7-.66.72-.38.02-.7-.28-.72-.66l.69-.03q-.69.03-.69.03h0s0-.04,0-.04c0-.02,0-.06,0-.11,0-.09,0-.23-.01-.4,0-.35-.02-.86-.02-1.49,0-1.27.03-3.06.16-5.13.26-4.12.9-9.4,2.47-13.92,1.55-4.48,4.09-8.43,8.28-9.51,4.18-1.08,9.67.8,16.86,7.06.29.25.32.69.07.97-.25.29-.69.32-.97.07-7.12-6.19-12.13-7.66-15.61-6.76-3.48.9-5.8,4.25-7.32,8.63-1.51,4.34-2.14,9.48-2.4,13.55-.13,2.03-.16,3.79-.16,5.04,0,.62,0,1.12.02,1.46,0,.17,0,.3.01.39,0,.04,0,.08,0,.1v.02s0,0,0,0Z"/>
  <path class="cls-1" d="M124.04,30.14c.39,0,.7.31.7.7v33.09c0,.39-.31.7-.7.7s-.7-.31-.7-.7V30.84c0-.39.31-.7.7-.7Z"/>
  <path class="cls-5" d="M136.79,36.44l4.12-5.32s.06-.1.06-.16c0-.06,0-.12-.03-.17-.03-.05-.07-.1-.11-.13-.05-.03-.11-.05-.16-.05l-17.12.03v11.69h17.24c.06,0,.11-.02.16-.05.05-.03.09-.07.11-.13.03-.05.04-.11.03-.17,0-.06-.03-.11-.06-.16l-4.23-5.4Z"/>
  <path class="cls-4" d="M110.29,75.58c.55,0,1,.45,1,1v53.62c0,.55-.45,1-1,1s-1-.45-1-1v-53.62c0-.55.45-1,1-1Z"/>
  <path class="cls-4" d="M82.78,96.86c.55,0,1,.45,1,1v32.34c0,.55-.45,1-1,1s-1-.45-1-1v-32.34c0-.55.45-1,1-1Z"/>
  <path class="cls-4" d="M55.28,118.36c.55,0,1,.45,1,1v10.84c0,.55-.45,1-1,1s-1-.45-1-1v-10.84c0-.55.45-1,1-1Z"/>
</svg>