<?xml version="1.0" encoding="UTF-8"?>
<svg id="Ebene_1" data-name="Ebene 1" xmlns="http://www.w3.org/2000/svg" viewBox="0 0 178.01 178">
  <defs>
    <style>
      .cls-1, .cls-2, .cls-3, .cls-4, .cls-5 {
        stroke-width: 0px;
      }

      .cls-1, .cls-3 {
        fill-rule: evenodd;
      }

      .cls-1, .cls-5 {
        fill: #fff;
      }

      .cls-2 {
        fill: #1f2833;
      }

      .cls-3, .cls-4 {
        fill: #2a3647;
      }
    </style>
  </defs>
  <path class="cls-4" d="M178.01,89v1.17c0,.27,0,.54-.01.8-.92,42.33-31.4,77.37-71.61,85.33-2.08.41-4.18.75-6.31,1.01-11.19,1.39-22.54.66-33.46-2.16-.36-.09-.71-.19-1.07-.29C27.77,164.59,0,130.04,0,89,0,39.85,39.85,0,89.01,0c39.11,0,72.33,25.23,84.28,60.3l.2.63c3.01,9.06,4.53,18.54,4.53,28.08Z"/>
  <path class="cls-2" d="M177.39,89.62c-.27-.25-.54-.5-.82-.75-.28-.25-.54-.5-.82-.75-.28-.25-.55-.5-.82-.75-.28-.25-.55-.51-.82-.75-.28-.25-.54-.51-.82-.75-.28-.25-.54-.5-.82-.75-.28-.25-.54-.5-.82-.75-.28-.25-.54-.5-.82-.75-.28-.25-.54-.5-.82-.75-.28-.25-.55-.5-.82-.75-.28-.25-.54-.5-.82-.75-.28-.25-.54-.5-.82-.75-.28-.25-.54-.5-.82-.75-.28-.25-.54-.5-.82-.75s-.54-.5-.82-.75c-.28-.25-.54-.5-.82-.75-.28-.25-.55-.5-.82-.75-.28-.25-.54-.5-.82-.75-.28-.25-.54-.5-.82-.75-.28-.25-.54-.5-.82-.75-.28-.25-.54-.5-.82-.75-.28-.25-.54-.5-.82-.75-.28-.25-.54-.51-.82-.75-.28-.25-.55-.51-.82-.75-.28-.25-.54-.5-.82-.75-.28-.25-.54-.5-.82-.75-.28-.25-.54-.5-.82-.75s-.54-.5-.82-.75c-.28-.25-.54-.5-.82-.75-.28-.25-.54-.5-.82-.75-.28-.25-.55-.5-.82-.75-.28-.25-.54-.5-.82-.75-.28-.25-.54-.5-.82-.75-.28-.25-.54-.5-.82-.75-.28-.25-.54-.5-.82-.75-.28-.25-.54-.5-.82-.75-.28-.25-.54-.5-.82-.75-.28-.25-.54-.5-.82-.75-.28-.25-.54-.5-.82-.75s-.54-.5-.82-.75c-.28-.25-.54-.5-.82-.75-.28-.25-.54-.5-.82-.75-7.45-7-17.17-11.08-27.38-11.5-10.21-.41-20.23,2.87-28.22,9.25-.13-.13-.27-.25-.42-.35l-.75-.85-1.5-1.7-.75-.85-.75-.85-1.5-1.7-.75-.85s-1.02-1.16-1.82-1.16h-21.82c-.53,0-1.05.21-1.42.59-.38.38-.59.89-.59,1.42,0,.7.9,1.68.9,1.68l.72.85.72.85.72.85.72.85.72.85.72.85.72.85.72.85.72.85.72.85.72.85.72.85.73.84.72.85.72.85.72.85.72.85.72.85.72.85.72.85.72.85.72.85.72.85.72.85.72.85c.1.19.23.37.36.55-.38.94-.74,1.89-1.05,2.86-.16-.15-.33-.29-.52-.4l-.8-.86-.79-.85-1.59-1.7-.8-.85-.79-.85-.79-.85-.79-.85s-.87-1.04-1.57-1.04h-3.83c-.15-.32-.7-.76-.7-.76l-.74-.85-.74-.85-.73-.85-.74-.85-.74-.85-.74-.85-.74-.85-.74-.85-.74-.85-.74-.85-.74-.85s-.87-1.08-1.59-1.08h-5.46c-.45,0-.89.18-1.21.5-.32.32-.5.76-.5,1.21,0,.63.85,1.48.85,1.48l.73.85.74.85.73.85.73.85.74.85.73.85.74.86.73.85.73.86c.05.12.11.23.18.34h-14.71c-.45,0-.89.18-1.21.5s-.5.76-.5,1.21c0,.64.86,1.48.86,1.48l.74.85.74.85.74.85.74.85.74.85.74.85.74.85.74.85.74.85.74.85.74.85.74.85.74.85.74.85.74.85.74.85.74.85.74.85.74.85c.07.14.15.28.24.42h-1.48c-.15-.09-.31-.17-.47-.24l-.98-.76-.97-.76-.98-.76-.97-.76-.98-.76-.97-.76-.97-.75-.98-.76-.97-.76-.98-.76-.97-.76-.98-.76-.98-.76s-.97-.88-1.66-.88h-5.45c-.53,0-1.04.21-1.42.59-.38.38-.59.89-.59,1.42,0,.87,1.33,1.89,1.33,1.89l.98.76.99.75.98.75.98.75.98.75.98.75.98.75.98.75s.58.6.98.75c.06.1.13.19.21.27h-16.69c-.45,0-.89.18-1.21.5-.32.32-.5.76-.5,1.21,0,.8,1.32,1.66,1.32,1.66l.95.6.95.6.95.6.95.6.95.6.95.6.95.6.95.6.95.6.95.6.95.6.95.6s.07.08.11.12c-.43.03-.84.22-1.14.53-.3.32-.47.74-.47,1.17,0,.78,1.24,1.64,1.24,1.64l.98.75.98.75.98.75.98.75.98.75.98.75.98.75s.09.14.15.2h-1.05c-.53,0-1.05.21-1.42.59-.38.38-.59.89-.59,1.42,0,.98,1.61,1.97,1.61,1.97l.93.46.92.46.93.46.92.46.93.46.93.46.93.4.93.46.92.46.93.46.92.46.93.46,1.77,2.04h-6.51c-.45,0-.89.18-1.21.5-.32.32-.5.76-.5,1.21,0,.7,1.03,1.57,1.03,1.57,21.49,18.29,42.92,36.68,64.58,54.76,40.22-7.95,70.69-43,71.61-85.33,0-.27,0-.54.01-.8-.2-.19-.4-.37-.61-.56ZM100.71,144.72l.08.04.04.09c-.04-.05-.08-.09-.12-.13Z"/>
  <path class="cls-5" d="M113.8,131.5c23.47,0,42.49-19.02,42.49-42.49s-19.02-42.49-42.49-42.49-42.49,19.02-42.49,42.49,19.02,42.49,42.49,42.49Z"/>
  <path class="cls-3" d="M113.8,52.05c-20.41,0-36.96,16.55-36.96,36.96s16.55,36.96,36.96,36.96,36.96-16.55,36.96-36.96-16.55-36.96-36.96-36.96ZM74.83,89c0-21.52,17.45-38.97,38.97-38.97s38.97,17.45,38.97,38.97-17.45,38.97-38.97,38.97-38.97-17.45-38.97-38.97Z"/>
  <path class="cls-3" d="M113.85,59.84c.56,0,1.01.45,1.01,1.01v27.15h19.21c.56,0,1.01.45,1.01,1.01s-.45,1.01-1.01,1.01h-20.21c-.56,0-1.01-.45-1.01-1.01v-28.16c0-.56.45-1.01,1.01-1.01Z"/>
  <path class="cls-4" d="M113.8,91.02c1.11,0,2.01-.9,2.01-2.01s-.9-2.01-2.01-2.01-2.01.9-2.01,2.01.9,2.01,2.01,2.01Z"/>
  <path class="cls-1" d="M34.8,69.24c0-.94.77-1.71,1.71-1.71h28.46c.94,0,1.71.77,1.71,1.71s-.77,1.71-1.71,1.71h-28.46c-.94,0-1.71-.77-1.71-1.71Z"/>
  <path class="cls-1" d="M55.21,49.48c0-1.11.9-2.01,2.01-2.01h21.82c1.11,0,2.01.9,2.01,2.01s-.9,2.01-2.01,2.01h-21.82c-1.11,0-2.01-.9-2.01-2.01Z"/>
  <path class="cls-1" d="M34.5,108.77c0-1.11.9-2.01,2.01-2.01h28.46c1.11,0,2.01.9,2.01,2.01s-.9,2.01-2.01,2.01h-28.46c-1.11,0-2.01-.9-2.01-2.01Z"/>
  <path class="cls-1" d="M55.21,128.53c0-1.11.9-2.01,2.01-2.01h21.82c1.11,0,2.01.9,2.01,2.01s-.9,2.01-2.01,2.01h-21.82c-1.11,0-2.01-.9-2.01-2.01Z"/>
  <path class="cls-1" d="M66.1,59.36c0-.94.77-1.71,1.71-1.71h3.04c.94,0,1.71.77,1.71,1.71s-.77,1.71-1.71,1.71h-3.04c-.94,0-1.71-.77-1.71-1.71Z"/>
  <path class="cls-1" d="M66.91,118.65c0-.94.77-1.71,1.71-1.71h5.45c.94,0,1.71.77,1.71,1.71s-.77,1.71-1.71,1.71h-5.45c-.94,0-1.71-.77-1.71-1.71Z"/>
  <path class="cls-1" d="M61.58,98.89c0-1.11.9-2.01,2.01-2.01h3.04c1.11,0,2.01.9,2.01,2.01s-.9,2.01-2.01,2.01h-3.04c-1.11,0-2.01-.9-2.01-2.01Z"/>
  <path class="cls-1" d="M29.3,99.67c0-.94.77-1.71,1.71-1.71h5.45c.94,0,1.71.77,1.71,1.71s-.77,1.71-1.71,1.71h-5.45c-.94,0-1.71-.77-1.71-1.71Z"/>
  <path class="cls-1" d="M40.76,119.98c0-.94.77-1.71,1.71-1.71h5.45c.94,0,1.71.77,1.71,1.71s-.77,1.71-1.71,1.71h-5.45c-.94,0-1.71-.77-1.71-1.71Z"/>
  <path class="cls-1" d="M57.45,79.13c0-.94.77-1.71,1.71-1.71h5.45c.94,0,1.71.77,1.71,1.71s-.77,1.71-1.71,1.71h-5.45c-.94,0-1.71-.77-1.71-1.71Z"/>
  <path class="cls-1" d="M26.18,78.34c0-1.11.9-2.01,2.01-2.01h5.45c1.11,0,2.01.9,2.01,2.01s-.9,2.01-2.01,2.01h-5.45c-1.11,0-2.01-.9-2.01-2.01Z"/>
  <path class="cls-1" d="M43.58,58.03c0-.94.77-1.71,1.71-1.71h5.45c.94,0,1.71.77,1.71,1.71s-.77,1.71-1.71,1.71h-5.45c-.94,0-1.71-.77-1.71-1.71Z"/>
  <path class="cls-1" d="M18.1,89c0-.94.77-1.71,1.71-1.71h39.52c.94,0,1.71.77,1.71,1.71s-.77,1.71-1.71,1.71H19.81c-.94,0-1.71-.77-1.71-1.71Z"/>
</svg>