<?xml version="1.0" encoding="UTF-8"?>
<svg id="Ebene_1" data-name="Ebene 1" xmlns="http://www.w3.org/2000/svg" viewBox="0 0 176.23 176.23">
  <defs>
    <style>
      .cls-1, .cls-2, .cls-3, .cls-4, .cls-5 {
        stroke-width: 0px;
      }

      .cls-1, .cls-3 {
        fill-rule: evenodd;
      }

      .cls-1, .cls-5 {
        fill: #fff;
      }

      .cls-2 {
        fill: #1f2833;
      }

      .cls-3, .cls-4 {
        fill: #2a3647;
      }
    </style>
  </defs>
  <path class="cls-4" d="M176.23,88.11c0,3.15-.17,6.29-.5,9.42-2.32,21.62-12.55,41.61-28.72,56.14-16.17,14.53-37.15,22.56-58.89,22.55-2.91,0-5.79-.14-8.63-.42-4.57-.44-9.1-1.24-13.54-2.39-.35-.09-.71-.19-1.06-.28C27.49,162.94,0,128.73,0,88.11,0,39.45,39.45,0,88.11,0c38.72,0,71.61,24.97,83.43,59.69l.2.62c2.55,7.68,4.02,15.67,4.38,23.75.07,1.34.1,2.69.1,4.05Z"/>
  <path class="cls-2" d="M176.13,84.07l-43.61-44.14-93.05,21.63,32.99,32.48-11.89,2.76,28.13,27.69-49.64,11.54,40.41,39.79c2.84.27,5.72.41,8.63.42,21.74,0,42.71-8.03,58.88-22.56,16.17-14.53,26.41-34.52,28.73-56.13.33-3.13.5-6.28.5-9.42,0-1.36-.03-2.7-.1-4.05Z"/>
  <path class="cls-5" d="M128.6,113.1H43.24c-2.93,0-5.31,2.38-5.31,5.31v14.27c0,2.93,2.38,5.31,5.31,5.31h85.36c2.93,0,5.31-2.38,5.31-5.31v-14.27c0-2.93-2.38-5.31-5.31-5.31Z"/>
  <path class="cls-5" d="M59.41,116.79h-12.62c-1.35,0-2.45,1.1-2.45,2.45v12.62c0,1.35,1.1,2.45,2.45,2.45h12.62c1.35,0,2.45-1.1,2.45-2.45v-12.62c0-1.35-1.1-2.45-2.45-2.45Z"/>
  <path class="cls-3" d="M46.79,117.78c-.81,0-1.46.65-1.46,1.46v12.62c0,.81.65,1.46,1.46,1.46h12.62c.81,0,1.46-.65,1.46-1.46v-12.62c0-.81-.65-1.46-1.46-1.46h-12.62ZM43.34,119.24c0-1.91,1.54-3.45,3.45-3.45h12.62c1.9,0,3.45,1.54,3.45,3.45v12.62c0,1.91-1.54,3.45-3.45,3.45h-12.62c-1.9,0-3.45-1.54-3.45-3.45v-12.62Z"/>
  <path class="cls-3" d="M66.04,127.44c0-.55.45-1,1-1h41.62c.55,0,1,.45,1,1s-.45,1-1,1h-41.62c-.55,0-1-.45-1-1Z"/>
  <path class="cls-3" d="M66.04,120.67c0-.55.45-1,1-1h60.47c.55,0,1,.45,1,1s-.45,1-1,1h-60.47c-.55,0-1-.45-1-1Z"/>
  <path class="cls-5" d="M151.3,75.67h-85.36c-2.93,0-5.31,2.38-5.31,5.31v14.27c0,2.93,2.38,5.31,5.31,5.31h85.36c2.93,0,5.31-2.38,5.31-5.31v-14.27c0-2.93-2.38-5.31-5.31-5.31Z"/>
  <path class="cls-5" d="M82.11,79.35h-12.62c-1.35,0-2.45,1.1-2.45,2.45v12.62c0,1.35,1.1,2.45,2.45,2.45h12.62c1.35,0,2.45-1.1,2.45-2.45v-12.62c0-1.35-1.1-2.45-2.45-2.45Z"/>
  <path class="cls-3" d="M69.49,80.35c-.81,0-1.46.65-1.46,1.46v12.62c0,.81.65,1.46,1.46,1.46h12.62c.81,0,1.46-.65,1.46-1.46v-12.62c0-.81-.65-1.46-1.46-1.46h-12.62ZM66.04,81.8c0-1.91,1.54-3.45,3.45-3.45h12.62c1.91,0,3.45,1.54,3.45,3.45v12.62c0,1.91-1.54,3.45-3.45,3.45h-12.62c-1.91,0-3.45-1.54-3.45-3.45v-12.62Z"/>
  <path class="cls-3" d="M88.74,90.01c0-.55.45-1,1-1h41.62c.55,0,1,.45,1,1s-.45,1-1,1h-41.62c-.55,0-1-.45-1-1Z"/>
  <path class="cls-3" d="M88.74,83.24c0-.55.45-1,1-1h60.47c.55,0,1,.45,1,1s-.45,1-1,1h-60.47c-.55,0-1-.45-1-1Z"/>
  <path class="cls-5" d="M128.6,38.23H43.24c-2.93,0-5.31,2.38-5.31,5.31v14.27c0,2.93,2.38,5.31,5.31,5.31h85.36c2.93,0,5.31-2.38,5.31-5.31v-14.27c0-2.93-2.38-5.31-5.31-5.31Z"/>
  <path class="cls-5" d="M59.41,41.92h-12.62c-1.35,0-2.45,1.1-2.45,2.45v12.62c0,1.35,1.1,2.45,2.45,2.45h12.62c1.35,0,2.45-1.1,2.45-2.45v-12.62c0-1.35-1.1-2.45-2.45-2.45Z"/>
  <path class="cls-3" d="M46.79,42.91c-.81,0-1.46.65-1.46,1.46v12.62c0,.81.65,1.46,1.46,1.46h12.62c.81,0,1.46-.65,1.46-1.46v-12.62c0-.81-.65-1.46-1.46-1.46h-12.62ZM43.34,44.37c0-1.91,1.54-3.45,3.45-3.45h12.62c1.9,0,3.45,1.54,3.45,3.45v12.62c0,1.91-1.54,3.45-3.45,3.45h-12.62c-1.9,0-3.45-1.54-3.45-3.45v-12.62Z"/>
  <path class="cls-3" d="M66.04,52.57c0-.55.45-1,1-1h41.62c.55,0,1,.45,1,1s-.45,1-1,1h-41.62c-.55,0-1-.45-1-1Z"/>
  <path class="cls-3" d="M66.04,45.8c0-.55.45-1,1-1h60.47c.55,0,1,.45,1,1s-.45,1-1,1h-60.47c-.55,0-1-.45-1-1Z"/>
  <path class="cls-1" d="M27.81,50.83c.15.35-.02.75-.37.9-2.93,1.22-5.41,3.02-7.08,5.39-1.66,2.36-2.54,5.32-2.22,8.92.57,6.25,5.35,10.6,10.41,14.2h0c7.11,5.07,15.21,6.29,23.82,7.39.36.05.62.36.6.72-.02.36-.32.64-.68.64-7.73.04-15.5.13-22.56,2.83h0c-3.53,1.35-7.1,3.7-9.71,6.73-2.6,3.02-4.2,6.68-3.88,10.65h0c.31,3.83,2.73,7.35,6.05,10.22,3.31,2.87,7.42,5.01,10.9,6.1.36.11.56.5.45.86-.11.36-.5.56-.86.45-3.65-1.14-7.93-3.38-11.38-6.37-3.45-2.99-6.17-6.82-6.52-11.15-.35-4.43,1.44-8.43,4.21-11.65,2.77-3.22,6.54-5.7,10.26-7.12,4.78-1.83,9.86-2.49,14.95-2.75-5.77-1.08-11.34-2.8-16.44-6.43-5.07-3.61-10.35-8.27-10.98-15.19h0c-.35-3.92.61-7.2,2.46-9.84,1.85-2.62,4.56-4.57,7.67-5.86.35-.15.75.02.9.37Z"/>
  <path class="cls-5" d="M32.76,49.52c-2.9-.2-6.63-.9-9.16-2.06l2.87,3.91-.28,4.84c1.49-2.35,4.25-4.95,6.57-6.69Z"/>
</svg>