<?xml version="1.0" encoding="UTF-8"?>
<svg xmlns="http://www.w3.org/2000/svg" version="1.1" viewBox="0 0 107.7 107.7">
  <defs>
    <style>
      .cls-1 {
        fill: #a8a8a8;
      }
    </style>
  </defs>
  <!-- Generator: Adobe Illustrator 28.7.0, SVG Export Plug-In . SVG Version: 1.2.0 Build 136)  -->
  <g>
    <g id="Ebene_4">
      <path class="cls-1" d="M63.8,61.6c2.4-1.5,3.8-3.6,3.8-6.4.1-1.2,0-2.3-.4-3.4-.8-2.7-2.7-4.3-5.1-5.5-2.2-1.1-4.6-1.7-6.9-2.3-1.9-.5-3.9-1-5.7-2.1-1.4-.9-2.2-2.1-2.1-3.8.1-1.6,1-2.8,2.5-3.5,2.4-1.1,5-1.2,7.4-.2,2.1.8,3.2,2.4,3.4,4.6,0,.7.2.9,1,.9,1.3,0,2.6,0,3.9,0s1.5,0,1.4-1.4c-.4-3.5-1.9-6.3-5.1-7.9-4.7-2.3-9.7-2.3-14.5-.5-6.8,2.5-8.2,10.3-3,15.4.4.4,0,.4-.2.6-3.2,2.1-4.5,5.5-3.5,9.2,0,.3.1.6.2.9.9,2.4,2.6,3.9,4.8,5,2.4,1.3,5,2,7.6,2.8,1.9.6,3.7,1.1,5.4,2.2.8.5,1.5,1.2,1.8,2.2.5,1.9-.4,3.6-2.3,4.5-2.3,1-4.7,1.1-7.2.5-2.6-.7-4.3-2.3-4.5-5.1,0-.4-.2-.3-.5-.3-1.7,0-3.5,0-5.2,0-.5,0-.6.2-.5.6.3,4.5,2.8,7.8,7,9.2,2.5.9,5.1,1.1,7.8,1,2.7-.1,5.2-.6,7.5-2,5.6-3.5,5.2-11.4,1.1-14.4-.4-.3-.2-.4.1-.6ZM59.1,59.3c-.3.2-.5.2-.9.1-2.6-.9-5.2-1.6-7.7-2.5-1.1-.4-2.1-.9-3-1.7-1.5-1.7-1.2-4.9.5-6.3.7-.6,1.3-.8,2.3-.5,2.1.7,4.2,1.2,6.3,2,1,.4,1.9.8,2.8,1.4,1.3.8,2.1,1.9,2.2,3.4,0,1.9-.9,3.2-2.4,4.1Z"/>
      <path class="cls-1" d="M103.5,32.9c-2.8-6.5-6.7-12.2-11.5-17.1-4.8-4.9-10.5-8.7-17.1-11.5S61.3,0,53.9,0s-14.5,1.4-21,4.2c-6.5,2.8-12.2,6.7-17.1,11.5-4.9,4.8-8.7,10.5-11.5,17.1S0,46.4,0,53.9s1.4,14.5,4.2,21c2.8,6.5,6.7,12.2,11.5,17.1,4.8,4.9,10.5,8.7,17.1,11.5,6.5,2.8,13.6,4.2,21,4.2s14.5-1.4,21-4.2,12.2-6.7,17.1-11.5c4.9-4.8,8.7-10.5,11.5-17.1s4.2-13.6,4.2-21-1.4-14.5-4.2-21ZM87.5,87.5c-9.2,9.2-20.4,13.8-33.7,13.8s-24.5-4.6-33.7-13.8c-9.2-9.2-13.8-20.4-13.8-33.7s4.6-24.5,13.8-33.7c9.2-9.2,20.4-13.8,33.7-13.8s24.5,4.6,33.7,13.8c9.2,9.2,13.8,20.4,13.8,33.7s-4.6,24.5-13.8,33.7Z"/>
    </g>
  </g>
</svg>