<?xml version="1.0" encoding="UTF-8"?>
<svg id="Ebene_1" data-name="Ebene 1" xmlns="http://www.w3.org/2000/svg" viewBox="0 0 250 250">
  <defs>
    <style>
      .cls-1 {
        fill: #fff;
      }

      .cls-1, .cls-2 {
        stroke-width: 0px;
      }

      .cls-2 {
        fill: #29abe2;
      }
    </style>
  </defs>
  <path class="cls-1" d="M158.37,30h-34.14v39.71h34.14V30Z"/>
  <path class="cls-1" d="M124.23,102.01h34.14v56.01c.16,13.48-3.64,26.7-10.9,37.98-7.17,10.96-21.01,24-46.62,24-27.89,0-44.15-13.34-52.92-20.64l21.54-26.86c8.56,7.07,16.81,12.88,31.51,12.88,11.14,0,15.57-4.59,18.17-8.59,3.53-5.56,5.36-12.05,5.25-18.67l-.18-56.11Z"/>
  <path class="cls-2" d="M106.81,76.94h-34.14v34.67h34.14v-34.67Z"/>
  <path class="cls-1" d="M176.25,203.73c0,7.39-3.7,11.36-8.88,11.36s-8.56-4.72-8.56-10.99,3.49-11.23,8.85-11.23,8.59,4.88,8.59,10.85ZM162.78,204.03c0,4.45,1.76,7.73,4.78,7.73s4.73-3.47,4.73-8c0-3.97-1.58-7.71-4.73-7.71s-4.78,3.6-4.78,7.97Z"/>
  <path class="cls-1" d="M183.03,193.2v21.55h-3.78v-21.55h3.78Z"/>
  <path class="cls-1" d="M187.12,214.75v-21.55h4.2l4.52,8.88c1.16,2.32,2.2,4.71,3.1,7.15-.24-2.67-.34-5.73-.34-9.15v-6.88h3.47v21.55h-3.91l-4.57-9.07c-1.21-2.38-2.29-4.83-3.23-7.33,0,2.67.18,5.68.18,9.39v6.99l-3.41.03Z"/>
</svg>