<?xml version="1.0" encoding="UTF-8"?>
<svg id="Ebene_1" data-name="Ebene 1" xmlns="http://www.w3.org/2000/svg" viewBox="0 0 250 250">
  <defs>
    <style>
      .cls-1 {
        fill: #fff;
        stroke-width: 0px;
      }
    </style>
  </defs>
  <path class="cls-1" d="M152.79,168.32c-1.93,0-2.93,2.18-2.93,4.83s1.08,4.69,2.93,4.69,2.9-2.1,2.9-4.85c0-2.41-.97-4.67-2.9-4.67Z"/>
  <path class="cls-1" d="M126.7,31c-52.05,0-94.24,42.19-94.24,94.24s42.19,94.24,94.24,94.24,94.24-42.19,94.24-94.24S178.75,31,126.7,31ZM126.23,67.66h20.92v24.07h-20.92v-24.07ZM94.63,96.11h20.92v21.02h-20.92v-21.02ZM147.15,145.26c.1,8.17-2.23,16.18-6.68,23.02-4.39,6.64-12.88,14.55-28.57,14.55-17.09,0-27.06-8.08-32.43-12.51l13.2-16.28c5.25,4.28,10.3,7.81,19.32,7.81,6.82,0,9.54-2.78,11.14-5.21,2.17-3.37,3.29-7.31,3.22-11.32l-.11-34.02h20.92v33.95ZM152.67,179.86c-3.17,0-5.25-2.86-5.25-6.66s2.14-6.81,5.42-6.81,5.26,2.96,5.26,6.58c0,4.48-2.27,6.89-5.44,6.89ZM162.27,179.65h-2.32v-13.06h2.32v13.06ZM173.94,179.65h-2.4l-2.8-5.5c-.74-1.44-1.4-2.93-1.98-4.45,0,1.62.11,3.44.11,5.69v4.24l-2.09.02v-13.06h2.58l2.77,5.38c.71,1.41,1.35,2.85,1.9,4.33-.14-1.62-.21-3.48-.21-5.55v-4.17h2.12v13.06Z"/>
</svg>