<?xml version="1.0" encoding="UTF-8"?>
<svg id="join_logo_DARK" data-name="Ebene 1" xmlns="http://www.w3.org/2000/svg" viewBox="0 0 156 190.2">
  <defs>
    <style>
      .cls-1 {
        fill: #2a3647;
      }

      .cls-1, .cls-2 {
        stroke-width: 0px;
      }

      .cls-2 {
        fill: #29abe2;
      }
    </style>
  </defs>
  <path class="cls-1" d="M111.77,0h-34.55v39.75h34.55V0Z"/>
  <path class="cls-1" d="M77.22,72.09h34.55v56.07c.16,13.49-3.68,26.72-11.03,38.02-7.26,10.97-21.26,24.03-47.18,24.03-28.23,0-44.68-13.35-53.56-20.66l21.8-26.89c8.67,7.08,17.01,12.9,31.9,12.9,11.27,0,15.76-4.59,18.39-8.6,3.58-5.56,5.43-12.07,5.32-18.69l-.19-56.17Z"/>
  <path class="cls-2" d="M59.59,46.99H25.04v34.71h34.55v-34.71Z"/>
  <path class="cls-1" d="M129.87,173.92c0,7.4-3.75,11.37-8.98,11.37s-8.67-4.73-8.67-11,3.54-11.24,8.96-11.24,8.69,4.89,8.69,10.87ZM116.24,174.21c0,4.46,1.78,7.74,4.84,7.74s4.78-3.47,4.78-8.01c0-3.98-1.59-7.72-4.78-7.72s-4.84,3.6-4.84,7.98Z"/>
  <path class="cls-1" d="M136.73,163.37v21.57h-3.83v-21.57h3.83Z"/>
  <path class="cls-1" d="M140.88,184.94v-21.57h4.25l4.57,8.89c1.18,2.32,2.22,4.71,3.14,7.15-.24-2.67-.35-5.74-.35-9.16v-6.89h3.51v21.57h-3.96l-4.63-9.08c-1.22-2.38-2.32-4.84-3.27-7.34,0,2.67.19,5.69.19,9.4v6.99l-3.46.03Z"/>
</svg>