<?xml version="1.0" encoding="UTF-8"?>
<svg id="Ebene_1" data-name="Ebene 1" xmlns="http://www.w3.org/2000/svg" viewBox="0 0 107 140.44">
  <defs>
    <style>
      .cls-1 {
        fill: #a8a8a8;
        stroke-width: 0px;
      }
    </style>
  </defs>
  <path class="cls-1" d="M13.38,140.44c-3.68,0-6.83-1.31-9.45-3.93-2.62-2.62-3.93-5.77-3.93-9.45V60.19c0-3.68,1.31-6.83,3.93-9.45,2.62-2.62,5.77-3.93,9.45-3.93h6.69v-13.38c0-9.25,3.26-17.14,9.78-23.66C36.36,3.26,44.25,0,53.5,0s17.14,3.26,23.66,9.78c6.52,6.52,9.78,14.41,9.78,23.66v13.38h6.69c3.68,0,6.83,1.31,9.45,3.93,2.62,2.62,3.93,5.77,3.93,9.45v66.88c0,3.68-1.31,6.83-3.93,9.45-2.62,2.62-5.77,3.93-9.45,3.93H13.38ZM13.38,127.06h80.25V60.19H13.38v66.88ZM53.5,107c3.68,0,6.83-1.31,9.45-3.93,2.62-2.62,3.93-5.77,3.93-9.45s-1.31-6.83-3.93-9.45c-2.62-2.62-5.77-3.93-9.45-3.93s-6.83,1.31-9.45,3.93c-2.62,2.62-3.93,5.77-3.93,9.45s1.31,6.83,3.93,9.45c2.62,2.62,5.77,3.93,9.45,3.93ZM33.44,46.81h40.12v-13.38c0-5.57-1.95-10.31-5.85-14.21-3.9-3.9-8.64-5.85-14.21-5.85s-10.31,1.95-14.21,5.85-5.85,8.64-5.85,14.21v13.38Z"/>
</svg>