<?xml version="1.0" encoding="UTF-8"?>
<svg xmlns="http://www.w3.org/2000/svg" version="1.1" viewBox="0 0 133.3 94.1">
  <defs>
    <style>
      .cls-1 {
        fill: #fff;
      }
    </style>
  </defs>
  <!-- Generator: Adobe Illustrator 28.7.0, SVG Export Plug-In . SVG Version: 1.2.0 Build 136)  -->
  <g>
    <g id="low_icon">
      <path class="cls-1" d="M66.7,56.8c-1.6,0-3.1-.5-4.3-1.4L3,12.8c-.8-.6-1.4-1.2-1.9-2.1s-.8-1.7-1-2.6c-.3-1.9.2-3.8,1.4-5.3C2.6,1.4,4.3.4,6.2,0c1.9-.3,3.9.2,5.4,1.3l55,39.5L121.7,1.4c.8-.6,1.7-1,2.6-1.2.9-.2,1.9-.3,2.8-.1,1,.1,1.9.5,2.7.9.8.5,1.5,1.1,2.1,1.9s1,1.6,1.2,2.5c.2.9.3,1.8.1,2.8-.1.9-.5,1.8-1,2.6-.5.8-1.1,1.5-1.9,2.1l-59.3,42.6c-1.3.9-2.8,1.4-4.3,1.4h0Z"/>
      <path class="cls-1" d="M66.7,94.1c-1.6,0-3.1-.5-4.3-1.4L3,50.1c-1.6-1.1-2.6-2.8-2.9-4.7-.3-1.9.2-3.8,1.4-5.3,1.1-1.5,2.9-2.5,4.8-2.8,1.9-.3,3.9.2,5.4,1.3l55,39.5,55-39.5c1.6-1.1,3.5-1.6,5.4-1.3,1.9.3,3.6,1.3,4.8,2.8,1.1,1.5,1.6,3.4,1.4,5.3-.3,1.9-1.3,3.5-2.9,4.7l-59.3,42.6c-1.3.9-2.8,1.4-4.3,1.4h0Z"/>
    </g>
  </g>
</svg>