<?xml version="1.0" encoding="UTF-8"?>
<svg id="low_icon" data-name="Ebene 1" xmlns="http://www.w3.org/2000/svg" viewBox="0 0 133.32 94.11">
  <defs>
    <style>
      .cls-1 {
        fill: #7ae229;
        stroke-width: 0px;
      }
    </style>
  </defs>
  <path class="cls-1" d="M66.66,56.82c-1.56,0-3.09-.48-4.35-1.38L2.97,12.83c-.77-.55-1.42-1.25-1.92-2.05s-.82-1.69-.97-2.61c-.29-1.86.2-3.76,1.35-5.28C2.58,1.37,4.31.36,6.23.08c1.92-.28,3.87.19,5.43,1.31l55,39.45L121.66,1.39c.77-.55,1.65-.96,2.58-1.18.93-.23,1.9-.27,2.85-.13.95.14,1.86.46,2.68.94.82.48,1.54,1.12,2.11,1.87.57.75.98,1.6,1.22,2.51.23.91.28,1.85.13,2.77-.14.92-.47,1.81-.97,2.61-.49.8-1.15,1.5-1.92,2.05l-59.35,42.61c-1.26.9-2.78,1.39-4.35,1.38Z"/>
  <path class="cls-1" d="M66.66,94.11c-1.56,0-3.09-.48-4.35-1.38L2.97,50.11c-1.56-1.12-2.6-2.8-2.88-4.66-.29-1.86.2-3.76,1.35-5.28,1.15-1.52,2.88-2.53,4.8-2.8,1.92-.28,3.87.19,5.43,1.31l55,39.45,55-39.45c1.56-1.12,3.51-1.59,5.43-1.31,1.92.28,3.64,1.29,4.8,2.8,1.15,1.52,1.64,3.42,1.35,5.28-.29,1.86-1.33,3.54-2.88,4.66l-59.35,42.61c-1.26.9-2.78,1.39-4.35,1.38Z"/>
</svg>