<?xml version="1.0" encoding="UTF-8"?>
<svg id="mail_icon" data-name="Ebene 1" xmlns="http://www.w3.org/2000/svg" viewBox="0 0 107 85.6">
  <defs>
    <style>
      .cls-1 {
        fill: #a8a8a8;
        stroke-width: 0px;
      }
    </style>
  </defs>
  <path class="cls-1" d="M10.7,85.6c-2.94,0-5.46-1.05-7.56-3.14-2.1-2.1-3.14-4.61-3.14-7.56V10.7c0-2.94,1.05-5.46,3.14-7.56C5.24,1.05,7.76,0,10.7,0h85.6c2.94,0,5.46,1.05,7.56,3.14,2.1,2.1,3.14,4.61,3.14,7.56v64.2c0,2.94-1.05,5.46-3.14,7.56-2.1,2.1-4.61,3.14-7.56,3.14H10.7ZM96.3,21.4l-39.99,25.01c-.45.27-.91.47-1.4.6-.49.13-.96.2-1.4.2s-.91-.07-1.4-.2c-.49-.13-.96-.33-1.4-.6L10.7,21.4v53.5h85.6V21.4ZM53.5,37.45l42.8-26.75H10.7l42.8,26.75ZM10.7,22.74v-7.89.13-.07,7.82Z"/>
</svg>