<?xml version="1.0" encoding="UTF-8"?>
<svg id="Ebene_1" data-name="Ebene 1" xmlns="http://www.w3.org/2000/svg" viewBox="0 0 250 250">
  <defs>
    <style>
      .cls-1 {
        fill: #a8a8a8;
        stroke-width: 0px;
      }
    </style>
  </defs>
  <path class="cls-1" d="M82.3,167.8c-2.94,0-5.46-1.05-7.56-3.14-2.1-2.1-3.14-4.61-3.14-7.56v-64.2c0-2.94,1.05-5.46,3.14-7.56,2.1-2.1,4.61-3.14,7.56-3.14h85.6c2.94,0,5.46,1.05,7.56,3.14,2.1,2.1,3.14,4.61,3.14,7.56v64.2c0,2.94-1.05,5.46-3.14,7.56-2.1,2.1-4.61,3.14-7.56,3.14h-85.6ZM167.9,103.6l-39.99,25.01c-.45.27-.91.47-1.4.6-.49.13-.96.2-1.4.2s-.91-.07-1.4-.2c-.49-.13-.96-.33-1.4-.6l-39.99-25.01v53.5h85.6v-53.5ZM125.1,119.65l42.8-26.75h-85.6l42.8,26.75ZM82.3,104.94v-7.89.13-.07,7.82Z"/>
</svg>