<?xml version="1.0" encoding="UTF-8"?>
<svg id="Ebene_1" data-name="Ebene 1" xmlns="http://www.w3.org/2000/svg" viewBox="0 0 250 250">
  <defs>
    <style>
      .cls-1 {
        fill: #F9F6EE;
        stroke-width: 0px;
      }
    </style>
  </defs>
  <path class="cls-1" d="M184.66,149.96h-119.32c-1.95,0-3.81-.78-5.19-2.17-1.38-1.39-2.15-3.27-2.15-5.23s.77-3.84,2.15-5.23c1.38-1.39,3.24-2.17,5.19-2.17h119.32c1.95,0,3.82.78,5.19,2.17,1.38,1.39,2.15,3.27,2.15,5.23s-.77,3.84-2.15,5.23c-1.38,1.39-3.25,2.17-5.19,2.17Z"/>
  <path class="cls-1" d="M184.66,114.83h-119.32c-1.95,0-3.81-.78-5.19-2.17-1.38-1.39-2.15-3.27-2.15-5.23s.77-3.84,2.15-5.23c1.38-1.39,3.24-2.17,5.19-2.17h119.32c1.95,0,3.82.78,5.19,2.17,1.38,1.39,2.15,3.27,2.15,5.23s-.77,3.84-2.15,5.23c-1.38,1.39-3.25,2.17-5.19,2.17Z"/>
</svg>