<?xml version="1.0" encoding="UTF-8"?>
<svg xmlns="http://www.w3.org/2000/svg" version="1.1" viewBox="0 0 134 49.9">
  <defs>
    <style>
      .cls-1 {
        fill: #fff;
      }
    </style>
  </defs>
  <!-- Generator: Adobe Illustrator 28.7.0, SVG Export Plug-In . SVG Version: 1.2.0 Build 136)  -->
  <g>
    <g id="medium_icon">
      <path class="cls-1" d="M126.7,49.9H7.3c-1.9,0-3.8-.8-5.2-2.2-1.4-1.4-2.2-3.3-2.2-5.2s.8-3.8,2.2-5.2,3.2-2.2,5.2-2.2h119.3c1.9,0,3.8.8,5.2,2.2,1.4,1.4,2.1,3.3,2.1,5.2s-.8,3.8-2.1,5.2c-1.4,1.4-3.2,2.2-5.2,2.2Z"/>
      <path class="cls-1" d="M126.7,14.8H7.3c-1.9,0-3.8-.8-5.2-2.2-1.4-1.4-2.2-3.3-2.2-5.2S.8,3.5,2.2,2.2C3.5.8,5.4,0,7.3,0h119.3c1.9,0,3.8.8,5.2,2.2,1.4,1.4,2.1,3.3,2.1,5.2s-.8,3.8-2.1,5.2c-1.4,1.4-3.2,2.2-5.2,2.2h0Z"/>
    </g>
  </g>
</svg>