<?xml version="1.0" encoding="UTF-8"?>
<svg id="Ebene_1" data-name="Ebene 1" xmlns="http://www.w3.org/2000/svg" viewBox="0 0 250 250">
  <defs>
    <style>
      .cls-1 {
        fill: #fff;
        stroke-width: 0px;
      }
    </style>
  </defs>
  <path class="cls-1" d="M125,181.28c-3.87,0-7.18-1.38-9.94-4.13-2.76-2.76-4.13-6.07-4.13-9.94s1.38-7.18,4.13-9.94c2.76-2.76,6.07-4.13,9.94-4.13s7.18,1.38,9.94,4.13c2.76,2.76,4.13,6.07,4.13,9.94s-1.38,7.18-4.13,9.94c-2.76,2.76-6.07,4.13-9.94,4.13ZM125,139.07c-3.87,0-7.18-1.38-9.94-4.13-2.76-2.76-4.13-6.07-4.13-9.94s1.38-7.18,4.13-9.94c2.76-2.76,6.07-4.13,9.94-4.13s7.18,1.38,9.94,4.13c2.76,2.76,4.13,6.07,4.13,9.94s-1.38,7.18-4.13,9.94c-2.76,2.76-6.07,4.13-9.94,4.13ZM125,96.86c-3.87,0-7.18-1.38-9.94-4.13-2.76-2.76-4.13-6.07-4.13-9.94s1.38-7.18,4.13-9.94c2.76-2.76,6.07-4.13,9.94-4.13s7.18,1.38,9.94,4.13c2.76,2.76,4.13,6.07,4.13,9.94s-1.38,7.18-4.13,9.94c-2.76,2.76-6.07,4.13-9.94,4.13Z"/>
</svg>