<?xml version="1.0" encoding="UTF-8"?>
<svg id="more_icon" data-name="Ebene 1" xmlns="http://www.w3.org/2000/svg" viewBox="0 0 28.14 112.56">
  <defs>
    <style>
      .cls-1 {
        fill: #fff;
        stroke-width: 0px;
      }
    </style>
  </defs>
  <path class="cls-1" d="M14.07,112.56c-3.87,0-7.18-1.38-9.94-4.13-2.76-2.76-4.13-6.07-4.13-9.94s1.38-7.18,4.13-9.94c2.76-2.76,6.07-4.13,9.94-4.13s7.18,1.38,9.94,4.13c2.76,2.76,4.13,6.07,4.13,9.94s-1.38,7.18-4.13,9.94c-2.76,2.76-6.07,4.13-9.94,4.13ZM14.07,70.35c-3.87,0-7.18-1.38-9.94-4.13-2.76-2.76-4.13-6.07-4.13-9.94s1.38-7.18,4.13-9.94c2.76-2.76,6.07-4.13,9.94-4.13s7.18,1.38,9.94,4.13c2.76,2.76,4.13,6.07,4.13,9.94s-1.38,7.18-4.13,9.94c-2.76,2.76-6.07,4.13-9.94,4.13ZM14.07,28.14c-3.87,0-7.18-1.38-9.94-4.13C1.38,21.25,0,17.94,0,14.07S1.38,6.89,4.13,4.13C6.89,1.38,10.2,0,14.07,0s7.18,1.38,9.94,4.13c2.76,2.76,4.13,6.07,4.13,9.94s-1.38,7.18-4.13,9.94c-2.76,2.76-6.07,4.13-9.94,4.13Z"/>
</svg>