<?xml version="1.0" encoding="UTF-8"?>
<svg id="Ebene_1" data-name="Ebene 1" xmlns="http://www.w3.org/2000/svg" xmlns:xlink="http://www.w3.org/1999/xlink" viewBox="0 0 108.15 108">
  <defs>
    <style>
      .cls-1 {
        fill: #d9d9d9;
      }

      .cls-1, .cls-2 {
        stroke-width: 0px;
      }

      .cls-2 {
        fill: #2a3647;
      }

      .cls-3 {
        mask: url(#mask);
      }
    </style>
    <mask id="mask" x="-17.75" y="-16.27" width="142.03" height="142.03" maskUnits="userSpaceOnUse">
      <g id="mask0_185215_6093" data-name="mask0 185215 6093">
        <rect class="cls-1" x="-17.75" y="-16.27" width="142.03" height="142.03"/>
      </g>
    </mask>
  </defs>
  <g class="cls-3">
    <path class="cls-2" d="M11.84,96.16h8.28l51.04-51.04-8.28-8.29L11.84,87.88v8.29ZM96.46,36.54l-25.15-24.85,8.28-8.28c2.27-2.27,5.05-3.4,8.36-3.4s6.09,1.13,8.36,3.4l8.29,8.28c2.27,2.27,3.45,5.01,3.55,8.21.1,3.21-.99,5.94-3.26,8.21l-8.43,8.43ZM87.88,45.27l-62.73,62.73H0v-25.15L62.73,20.12l25.15,25.15Z"/>
  </g>
</svg>