<?xml version="1.0" encoding="UTF-8"?>
<svg id="Ebene_1" data-name="Ebene 1" xmlns="http://www.w3.org/2000/svg" viewBox="0 0 104.4 104.4">
  <defs>
    <style>
      .cls-1 {
        fill: #a8a8a8;
        stroke-width: 0px;
      }
    </style>
  </defs>
  <path class="cls-1" d="M98.31,104.4c-12.08,0-24.02-2.63-35.82-7.9-11.79-5.27-22.52-12.74-32.19-22.4-9.67-9.67-17.13-20.4-22.4-32.19C2.63,30.11,0,18.17,0,6.09c0-1.74.58-3.19,1.74-4.35C2.9.58,4.35,0,6.09,0h23.49c1.35,0,2.56.46,3.62,1.38,1.06.92,1.69,2.01,1.89,3.26l3.77,20.3c.19,1.55.15,2.85-.14,3.91-.29,1.06-.82,1.98-1.6,2.75l-14.07,14.21c1.93,3.58,4.23,7.03,6.89,10.37,2.66,3.33,5.58,6.55,8.77,9.64,3,3,6.14,5.78,9.43,8.34,3.29,2.56,6.77,4.91,10.44,7.03l13.63-13.63c.87-.87,2.01-1.52,3.41-1.96,1.4-.43,2.78-.56,4.13-.36l20.01,4.06c1.35.39,2.46,1.09,3.33,2.1s1.31,2.15,1.31,3.41v23.49c0,1.74-.58,3.19-1.74,4.35-1.16,1.16-2.61,1.74-4.35,1.74ZM17.55,34.8l9.57-9.57-2.47-13.63h-12.9c.48,3.96,1.16,7.88,2.03,11.75.87,3.87,2.13,7.68,3.77,11.45ZM69.46,86.71c3.77,1.64,7.61,2.95,11.53,3.92,3.92.97,7.85,1.59,11.82,1.89v-12.76l-13.63-2.76-9.71,9.72Z"/>
</svg>