<?xml version="1.0" encoding="UTF-8"?>
<svg xmlns="http://www.w3.org/2000/svg" version="1.1" viewBox="0 0 107.7 107.7">
  <defs>
    <style>
      .cls-1 {
        fill: #a8a8a8;
      }
    </style>
  </defs>
  <!-- Generator: Adobe Illustrator 28.7.0, SVG Export Plug-In . SVG Version: 1.2.0 Build 136)  -->
  <g>
    <g id="privacy_icon">
      <path class="cls-1" d="M103.5,32.9c-2.8-6.5-6.7-12.2-11.5-17.1-4.8-4.9-10.5-8.7-17.1-11.5S61.3,0,53.9,0s-14.5,1.4-21,4.2c-6.5,2.8-12.2,6.7-17.1,11.5-4.9,4.8-8.7,10.5-11.5,17.1S0,46.4,0,53.9s1.4,14.5,4.2,21c2.8,6.5,6.7,12.2,11.5,17.1,4.8,4.9,10.5,8.7,17.1,11.5,6.5,2.8,13.6,4.2,21,4.2s14.5-1.4,21-4.2,12.2-6.7,17.1-11.5c4.9-4.8,8.7-10.5,11.5-17.1s4.2-13.6,4.2-21-1.4-14.5-4.2-21ZM87.5,87.5c-9.2,9.2-20.4,13.8-33.7,13.8s-24.5-4.6-33.7-13.8c-9.2-9.2-13.8-20.4-13.8-33.7s4.6-24.5,13.8-33.7c9.2-9.2,20.4-13.8,33.7-13.8s24.5,4.6,33.7,13.8c9.2,9.2,13.8,20.4,13.8,33.7s-4.6,24.5-13.8,33.7Z"/>
      <path class="cls-1" d="M68.8,74.3h-30c-.4-.1-.9-.2-1.3-.4-1.6-.8-2.4-2.2-2.4-4,0-8.4,0-16.8,0-25.3,0-1.2.3-1.5,1.5-1.5.9,0,1.7,0,2.7,0,0-1.3,0-2.6,0-3.9,0-4,1.3-7.5,4.1-10.3,3.8-3.9,8.5-5.3,13.8-4.1,6.4,1.4,11.1,7.2,11.2,13.9,0,1.3,0,2.6,0,3.9,0,.2,0,.3,0,.5,1,0,2,0,2.9,0,.9,0,1.3.4,1.3,1.2,0,8.6,0,17.1,0,25.7,0,1.4-.5,2.6-1.7,3.4-.6.4-1.3.6-2,.8ZM62.1,43.1c0-1.5,0-3,0-4.4,0-1.8-.6-3.4-1.7-4.8-2.1-2.6-4.9-3.7-8.2-3.1-3.3.7-5.5,2.7-6.4,6-.6,2-.2,4.1-.3,6.2,0,0,0,0,0,0h16.5ZM53.8,66c.6,0,1.2,0,1.9,0,1,0,1.4-.5,1.3-1.5-.2-1.8-.4-3.5-.6-5.3,0-.1,0-.4.2-.4,1.1-1,1.6-2.2,1.4-3.7-.2-2.4-2.8-4.1-5.1-3.5-1.7.4-2.7,1.5-3.1,3.2-.3,1.6.1,2.9,1.4,4,.1.1.2.3.2.5-.2,1.8-.4,3.6-.6,5.4,0,.9.3,1.4,1.2,1.4.6,0,1.2,0,1.9,0Z"/>
    </g>
  </g>
</svg>