<?xml version="1.0" encoding="UTF-8"?>
<svg id="search_icon_clicked" data-name="Ebene 1" xmlns="http://www.w3.org/2000/svg" xmlns:xlink="http://www.w3.org/1999/xlink" viewBox="0 0 17.58 17.58">
  <defs>
    <style>
      .cls-1 {
        fill: #d9d9d9;
      }

      .cls-1, .cls-2 {
        stroke-width: 0px;
      }

      .cls-3 {
        mask: url(#mask);
      }

      .cls-2 {
        fill: #29abe2;
      }
    </style>
    <mask id="mask" x="-7.21" y="-7.21" width="32" height="32" maskUnits="userSpaceOnUse">
      <g id="mask0_75609_16025" data-name="mask0 75609 16025">
        <rect class="cls-1" x="-7.21" y="-7.21" width="32" height="32"/>
      </g>
    </mask>
  </defs>
  <g class="cls-3">
    <path class="cls-2" d="M6.5,13c-1.82,0-3.36-.63-4.61-1.89-1.26-1.26-1.89-2.8-1.89-4.61S.63,3.15,1.89,1.89C3.15.63,4.68,0,6.5,0s3.36.63,4.61,1.89c1.26,1.26,1.89,2.8,1.89,4.61,0,.73-.12,1.43-.35,2.08-.23.65-.55,1.23-.95,1.73l5.6,5.6c.18.18.28.42.28.7s-.09.52-.28.7c-.18.18-.42.28-.7.28s-.52-.09-.7-.28l-5.6-5.6c-.5.4-1.08.72-1.73.95-.65.23-1.34.35-2.08.35ZM6.5,11c1.25,0,2.31-.44,3.19-1.31.88-.88,1.31-1.94,1.31-3.19s-.44-2.31-1.31-3.19c-.88-.88-1.94-1.31-3.19-1.31s-2.31.44-3.19,1.31c-.88.88-1.31,1.94-1.31,3.19s.44,2.31,1.31,3.19c.88.88,1.94,1.31,3.19,1.31Z"/>
  </g>
</svg>