<?xml version="1.0" encoding="UTF-8"?>
<svg id="search_icon_hover" data-name="Ebene 1" xmlns="http://www.w3.org/2000/svg" xmlns:xlink="http://www.w3.org/1999/xlink" viewBox="0 0 32 32">
  <defs>
    <style>
      .cls-1 {
        fill: #eee;
      }

      .cls-1, .cls-2, .cls-3 {
        stroke-width: 0px;
      }

      .cls-2 {
        fill: #d9d9d9;
      }

      .cls-3 {
        fill: #2a3647;
      }

      .cls-4 {
        mask: url(#mask);
      }
    </style>
    <mask id="mask" x="0" y="0" width="32" height="32" maskUnits="userSpaceOnUse">
      <g id="mask0_75609_16022" data-name="mask0 75609 16022">
        <rect class="cls-2" width="32" height="32"/>
      </g>
    </mask>
  </defs>
  <path class="cls-1" d="M16,0h0c8.84,0,16,7.16,16,16h0c0,8.84-7.16,16-16,16h0C7.16,32,0,24.84,0,16h0C0,7.16,7.16,0,16,0Z"/>
  <g class="cls-4">
    <path class="cls-3" d="M13.71,20.21c-1.82,0-3.36-.63-4.61-1.89-1.26-1.26-1.89-2.8-1.89-4.61s.63-3.36,1.89-4.61c1.26-1.26,2.8-1.89,4.61-1.89s3.36.63,4.61,1.89c1.26,1.26,1.89,2.8,1.89,4.61,0,.73-.12,1.43-.35,2.08-.23.65-.55,1.23-.95,1.73l5.6,5.6c.18.18.28.42.28.7s-.09.52-.28.7c-.18.18-.42.28-.7.28s-.52-.09-.7-.28l-5.6-5.6c-.5.4-1.08.72-1.73.95-.65.23-1.34.35-2.08.35ZM13.71,18.21c1.25,0,2.31-.44,3.19-1.31.88-.88,1.31-1.94,1.31-3.19s-.44-2.31-1.31-3.19c-.88-.88-1.94-1.31-3.19-1.31s-2.31.44-3.19,1.31c-.88.88-1.31,1.94-1.31,3.19s.44,2.31,1.31,3.19c.88.88,1.94,1.31,3.19,1.31Z"/>
  </g>
</svg>