<?xml version="1.0" encoding="UTF-8"?>
<svg id="Ebene_1" data-name="Ebene 1" xmlns="http://www.w3.org/2000/svg" viewBox="0 0 109 109">
  <defs>
    <style>
      .cls-1 {
        fill: #2a3647;
        stroke-width: 0px;
      }
    </style>
  </defs>
  <path class="cls-1" d="M40.31,80.62c-11.27,0-20.8-3.9-28.61-11.71C3.9,61.11,0,51.58,0,40.31S3.9,19.51,11.71,11.71C19.51,3.9,29.05,0,40.31,0s20.8,3.9,28.61,11.71c7.8,7.8,11.71,17.34,11.71,28.61,0,4.55-.72,8.84-2.17,12.87-1.45,4.03-3.41,7.6-5.89,10.7l34.73,34.73c1.14,1.14,1.71,2.58,1.71,4.34s-.57,3.2-1.71,4.34c-1.14,1.14-2.58,1.71-4.34,1.71s-3.2-.57-4.34-1.71l-34.73-34.73c-3.1,2.48-6.67,4.44-10.7,5.89-4.03,1.45-8.32,2.17-12.87,2.17ZM40.31,68.22c7.75,0,14.34-2.71,19.77-8.14,5.43-5.43,8.14-12.02,8.14-19.77s-2.71-14.34-8.14-19.77c-5.43-5.43-12.02-8.14-19.77-8.14s-14.34,2.71-19.77,8.14c-5.43,5.43-8.14,12.02-8.14,19.77s2.71,14.34,8.14,19.77c5.43,5.43,12.02,8.14,19.77,8.14Z"/>
</svg>