<?xml version="1.0" encoding="UTF-8"?>
<svg id="Ebene_1" data-name="Ebene 1" xmlns="http://www.w3.org/2000/svg" viewBox="0 0 18 18">
  <defs>
    <style>
      .cls-1 {
        fill: #2a3647;
        stroke-width: 0px;
      }
    </style>
  </defs>
  <path class="cls-1" d="M6.66,13.31c-1.86,0-3.44-.64-4.72-1.93-1.29-1.29-1.93-2.86-1.93-4.72S.64,3.22,1.93,1.93C3.22.64,4.8,0,6.66,0s3.44.64,4.72,1.93c1.29,1.29,1.93,2.86,1.93,4.72,0,.75-.12,1.46-.36,2.13-.24.67-.56,1.25-.97,1.77l5.74,5.74c.19.19.28.43.28.72s-.09.53-.28.72c-.19.19-.43.28-.72.28s-.53-.09-.72-.28l-5.74-5.74c-.51.41-1.1.73-1.77.97-.67.24-1.37.36-2.13.36ZM6.66,11.27c1.28,0,2.37-.45,3.26-1.34.9-.9,1.34-1.98,1.34-3.26s-.45-2.37-1.34-3.26c-.9-.9-1.98-1.34-3.26-1.34s-2.37.45-3.26,1.34-1.34,1.98-1.34,3.26.45,2.37,1.34,3.26c.9.9,1.98,1.34,3.26,1.34Z"/>
</svg>