<?xml version="1.0" encoding="UTF-8"?>
<svg id="Ebene_1" data-name="Ebene 1" xmlns="http://www.w3.org/2000/svg" viewBox="0 0 250 250">
  <defs>
    <style>
      .cls-1 {
        fill: #ff3d00;
        stroke-width: 0px;
      }
    </style>
  </defs>
  <path class="cls-1" d="M125,115.2c1.57,0,3.1.48,4.36,1.39l59.54,42.75c.77.56,1.43,1.26,1.92,2.06.5.8.83,1.69.97,2.62.29,1.87-.2,3.78-1.36,5.3-1.16,1.52-2.89,2.53-4.81,2.81-1.92.28-3.88-.19-5.45-1.32l-55.18-39.58-55.18,39.58c-.77.56-1.65.96-2.59,1.19-.93.23-1.91.27-2.86.13-.95-.14-1.87-.46-2.69-.94-.83-.48-1.54-1.12-2.12-1.87-.57-.75-.99-1.61-1.22-2.52-.23-.91-.28-1.85-.14-2.78.14-.93.47-1.82.97-2.62.5-.8,1.15-1.5,1.93-2.06l59.54-42.75c1.26-.9,2.79-1.39,4.36-1.39Z"/>
  <path class="cls-1" d="M125,77.8c1.57,0,3.1.48,4.36,1.39l59.54,42.75c1.56,1.12,2.61,2.81,2.89,4.68.29,1.87-.2,3.78-1.36,5.3-1.16,1.52-2.89,2.53-4.81,2.81-1.92.28-3.88-.19-5.45-1.32l-55.18-39.58-55.18,39.58c-1.56,1.12-3.52,1.6-5.45,1.32-1.92-.28-3.65-1.29-4.81-2.81-1.16-1.52-1.64-3.43-1.36-5.3.29-1.87,1.33-3.55,2.89-4.68l59.54-42.75c1.26-.9,2.79-1.39,4.36-1.39Z"/>
</svg>