<?xml version="1.0" encoding="UTF-8"?>
<svg id="Ebene_1" data-name="Ebene 1" xmlns="http://www.w3.org/2000/svg" viewBox="0 0 133 97.72">
  <defs>
    <style>
      .cls-1 {
        fill: #fff;
        stroke-width: 0px;
      }
    </style>
  </defs>
  <path class="cls-1" d="M125.7,97.71c-1.56,0-3.08-.5-4.34-1.44l-54.87-40.96L11.63,96.27c-.77.58-1.65.99-2.57,1.23-.93.23-1.9.28-2.84.14-.95-.14-1.86-.47-2.68-.97-.82-.5-1.54-1.16-2.11-1.94-.57-.78-.98-1.66-1.21-2.61-.23-.94-.28-1.92-.14-2.88.29-1.94,1.32-3.68,2.88-4.84l59.2-44.24c1.25-.94,2.77-1.45,4.34-1.45s3.08.51,4.34,1.45l59.2,44.24c1.24.92,2.15,2.22,2.62,3.7.47,1.48.46,3.07-.02,4.55-.48,1.48-1.41,2.76-2.66,3.67-1.24.91-2.74,1.4-4.28,1.4Z"/>
  <path class="cls-1" d="M125.7,59c-1.56,0-3.08-.5-4.34-1.44l-54.87-40.96L11.63,57.56c-1.56,1.16-3.5,1.65-5.42,1.36-1.91-.29-3.63-1.34-4.78-2.91-1.15-1.57-1.63-3.55-1.35-5.48.29-1.94,1.32-3.68,2.88-4.84L62.16,1.45c1.25-.94,2.77-1.45,4.34-1.45s3.08.51,4.34,1.45l59.2,44.24c1.24.92,2.15,2.22,2.62,3.7.47,1.48.46,3.07-.02,4.55-.48,1.48-1.41,2.76-2.66,3.67-1.24.91-2.74,1.4-4.28,1.4Z"/>
</svg>