<?xml version="1.0" encoding="UTF-8"?>
<svg id="Ebene_1" data-name="Ebene 1" xmlns="http://www.w3.org/2000/svg" viewBox="0 0 114.16 99.92">
  <defs>
    <style>
      .cls-1 {
        fill: #a8a8a8;
        stroke-width: 0px;
      }
    </style>
  </defs>
  <path class="cls-1" d="M78.7,53.12l-7.65-7.65c.79-4.13-.4-8-3.56-11.6-3.16-3.6-7.25-5.01-12.26-4.22l-7.65-7.65c1.49-.7,3.01-1.23,4.55-1.58,1.54-.35,3.19-.53,4.94-.53,6.59,0,12.19,2.31,16.81,6.92,4.61,4.61,6.92,10.22,6.92,16.81,0,1.76-.18,3.41-.53,4.94-.35,1.54-.88,3.05-1.58,4.55ZM95.57,69.73l-7.65-7.38c3.34-2.55,6.31-5.34,8.9-8.37,2.59-3.03,4.81-6.48,6.66-10.35-4.39-8.88-10.7-15.93-18.92-21.16-8.22-5.23-17.38-7.84-27.48-7.84-2.55,0-5.05.18-7.51.53-2.46.35-4.88.88-7.25,1.58l-8.17-8.17c3.6-1.49,7.29-2.61,11.07-3.36,3.78-.75,7.73-1.12,11.86-1.12,12.57,0,23.86,3.32,33.88,9.95,10.02,6.63,17.53,15.27,22.54,25.9.26.44.44.99.53,1.65.09.66.13,1.34.13,2.04s-.07,1.38-.2,2.04c-.13.66-.29,1.21-.46,1.65-2.02,4.48-4.55,8.61-7.58,12.39-3.03,3.78-6.48,7.12-10.35,10.02ZM94.51,98.47l-18.45-18.19c-3.08.97-6.17,1.69-9.29,2.18-3.12.48-6.35.73-9.69.73-12.57,0-23.86-3.32-33.88-9.95-10.02-6.63-17.53-15.27-22.54-25.9-.26-.44-.44-.99-.53-1.65s-.13-1.34-.13-2.04.04-1.36.13-1.98c.09-.62.26-1.14.53-1.58,1.85-3.95,4.04-7.6,6.59-10.94,2.55-3.34,5.36-6.42,8.44-9.23L4.75,8.83c-.97-.97-1.45-2.18-1.45-3.63s.53-2.7,1.58-3.76c.97-.97,2.2-1.45,3.69-1.45s2.72.48,3.69,1.45l89.64,89.64c.97.97,1.47,2.18,1.52,3.63.04,1.45-.46,2.7-1.52,3.76-.97.97-2.2,1.45-3.69,1.45s-2.72-.48-3.69-1.45ZM23.07,27.29c-2.55,2.28-4.88,4.79-6.99,7.51-2.11,2.72-3.91,5.67-5.4,8.83,4.39,8.88,10.7,15.93,18.92,21.16,8.22,5.23,17.38,7.84,27.48,7.84,1.76,0,3.47-.11,5.14-.33,1.67-.22,3.38-.46,5.14-.73l-4.75-5.01c-.97.26-1.89.46-2.77.59-.88.13-1.8.2-2.77.2-6.59,0-12.19-2.31-16.81-6.92-4.61-4.61-6.92-10.22-6.92-16.81,0-.97.07-1.89.2-2.77.13-.88.33-1.8.59-2.77l-11.07-10.81Z"/>
</svg>