<?xml version="1.0" encoding="UTF-8"?>
<svg id="Ebene_1" data-name="Ebene 1" xmlns="http://www.w3.org/2000/svg" viewBox="0 0 114.13 79.07">
  <defs>
    <style>
      .cls-1 {
        fill: #a8a8a8;
        stroke-width: 0px;
      }
    </style>
  </defs>
  <path class="cls-1" d="M57.06,63.26c6.59,0,12.19-2.31,16.8-6.92s6.92-10.21,6.92-16.8-2.31-12.19-6.92-16.8c-4.61-4.61-10.21-6.92-16.8-6.92s-12.19,2.31-16.8,6.92c-4.61,4.61-6.92,10.21-6.92,16.8s2.31,12.19,6.92,16.8c4.61,4.61,10.21,6.92,16.8,6.92ZM57.06,53.77c-3.95,0-7.31-1.38-10.08-4.15-2.77-2.77-4.15-6.13-4.15-10.08s1.38-7.31,4.15-10.08c2.77-2.77,6.13-4.15,10.08-4.15s7.31,1.38,10.08,4.15c2.77,2.77,4.15,6.13,4.15,10.08s-1.38,7.31-4.15,10.08c-2.77,2.77-6.13,4.15-10.08,4.15ZM57.06,79.07c-12.21,0-23.37-3.23-33.47-9.69C13.49,62.93,5.84,54.21.66,43.23c-.26-.44-.44-.99-.53-1.65s-.13-1.34-.13-2.04.04-1.38.13-2.04.26-1.21.53-1.65c5.18-10.98,12.83-19.7,22.93-26.16C33.69,3.23,44.85,0,57.06,0s23.37,3.23,33.47,9.69c10.1,6.46,17.75,15.18,22.93,26.16.26.44.44.99.53,1.65.09.66.13,1.34.13,2.04s-.04,1.38-.13,2.04c-.09.66-.26,1.21-.53,1.65-5.18,10.98-12.83,19.7-22.93,26.16-10.1,6.46-21.26,9.69-33.47,9.69ZM57.06,68.53c9.93,0,19.04-2.61,27.35-7.84,8.3-5.23,14.65-12.28,19.04-21.15-4.39-8.87-10.74-15.92-19.04-21.15-8.3-5.23-17.42-7.84-27.35-7.84s-19.04,2.61-27.35,7.84c-8.3,5.23-14.65,12.28-19.04,21.15,4.39,8.87,10.74,15.92,19.04,21.15,8.3,5.23,17.42,7.84,27.35,7.84Z"/>
</svg>